SplineFontDB: 3.2
FontName: Dakkhinee-Regular
FullName: Dakkhinee Regular
FamilyName: Dakkhinee
Weight: Regular
Copyright: Copyright 2024 The Dakkhinee Project Authors (github.com/mitradranirban/font-dakkhinee)
Version: 1.21
StyleMapFamilyName: Dakkhinee
ItalicAngle: 0
UnderlinePosition: -366
UnderlineWidth: 73
Ascent: 800
Descent: 200
InvalidEm: 0
UFOAscent: 800
UFODescent: -200
LayerCount: 2
Layer: 0 0 "Back" 1
Layer: 1 0 "public.default" 0 "glyphs"
BaseVert: 2 'hang' 'romn'
BaseScript: 'beng' 0  1024 0
BaseScript: 'deva' 0  1024 0
BaseScript: 'latn' 1  0 0
StyleMap: 0x0040
FSType: 0
OS2Version: 0
OS2_WeightWidthSlopeOnly: 0
OS2_UseTypoMetrics: 0
CreationTime: 1726744342
ModificationTime: 1726744456
PfmFamily: 16
TTFWeight: 400
TTFWidth: 5
LineGap: 0
VLineGap: 0
OS2TypoAscent: 1200
OS2TypoAOffset: 0
OS2TypoDescent: -300
OS2TypoDOffset: 0
OS2TypoLinegap: 0
OS2WinAscent: 1295
OS2WinAOffset: 0
OS2WinDescent: 672
OS2WinDOffset: 0
HheadAscent: 1200
HheadAOffset: 0
HheadDescent: -300
HheadDOffset: 0
OS2CapHeight: 800
OS2XHeight: 508
OS2Vendor: 'anir'
OS2UnicodeRanges: 80018007.00002002.00000000.00000000
Lookup: 4 0 1 "ligaStandardLigaturesinLatinlookup0" { "ligaStandardLigaturesinLatinlookup0 subtable"  } ['liga' ('latn' <'dflt' > 'DFLT' <'dflt' > ) ]
Lookup: 1 0 0 "initInitialFormsinBengali2lookup0" { "initInitialFormsinBengali2lookup0 subtable"  } ['init' ('bng2' <'dflt' 'ASM ' > ) ]
Lookup: 4 0 0 "nuktNuktaFormsinBengali2lookup1" { "nuktNuktaFormsinBengali2lookup1 subtable"  } ['nukt' ('bng2' <'dflt' 'ASM ' > ) ]
Lookup: 4 0 0 "akhnAkhandinBengali2lookup2" { "akhnAkhandinBengali2lookup2 subtable"  } ['akhn' ('bng2' <'dflt' > ) ]
Lookup: 4 0 0 "rphfRephForminBengali2lookup3" { "rphfRephForminBengali2lookup3 subtable"  } ['rphf' ('bng2' <'dflt' 'ASM ' > ) ]
Lookup: 4 0 0 "blwfBelowBaseFormsinBengali2lookup4" { "blwfBelowBaseFormsinBengali2lookup4 subtable"  } ['blwf' ('bng2' <'dflt' 'ASM ' > ) ]

StartChar: comma
Encoding: 1 44 1
GlifName: comma
Width: 226
VWidth: 0
GlyphClass: 2
Flags: W
HStem: -162 264<75 130.5>
VStem: 97 79<-60.5 37>
LayerCount: 2
Fore
SplineSet
50 47 m 256
 50 81 74 102 108 102 c 256
 153 102 176 61 176 13 c 256
 176 -52 148 -113 115 -146 c 256
 104 -157 92 -162 81 -162 c 256
 69 -162 60 -153 60 -142 c 256
 60 -118 78 -104 88 -88 c 256
 94 -79 97 -67 97 -54 c 256
 97 -3 50 -2 50 47 c 256
EndSplineSet
PickledDataWithLists: "(dp0
Vcom.fontlab.hintData
p1
(dp2
Vhhints
p3
(lp4
(dp5
Vposition
p6
I-162
sVwidth
p7
I264
sasVvhints
p8
(lp9
(dp10
g6
I97
sg7
I79
sass."
EndChar

StartChar: danda
Encoding: 2 2404 2
GlifName: danda
Width: 254
VWidth: 0
GlyphClass: 2
Flags: W
VStem: 60 145<41 496 496 496>
LayerCount: 2
Fore
SplineSet
60 -113 m 257
 60 496 l 257
 205 676 l 257
 205 41 l 257
 60 -113 l 257
EndSplineSet
PickledDataWithLists: "(dp0
Vcom.fontlab.hintData
p1
(dp2
Vvhints
p3
(lp4
(dp5
Vposition
p6
I60
sVwidth
p7
I145
sass."
EndChar

StartChar: doubledanda
Encoding: 3 2405 3
GlifName: doubledanda
Width: 625
VWidth: 0
GlyphClass: 2
Flags: W
VStem: 60 145<41 496 496 496> 348 145<41 496 496 496>
LayerCount: 2
Fore
SplineSet
348 -113 m 257
 348 496 l 257
 493 676 l 257
 493 41 l 257
 348 -113 l 257
60 -113 m 257
 60 496 l 257
 205 676 l 257
 205 41 l 257
 60 -113 l 257
EndSplineSet
PickledDataWithLists: "(dp0
Vcom.fontlab.hintData
p1
(dp2
Vvhints
p3
(lp4
(dp5
Vposition
p6
I60
sVwidth
p7
I145
sa(dp8
g6
I348
sg7
I145
sass."
EndChar

StartChar: u0981
Encoding: 4 2433 4
GlifName: u0981
Width: 0
VWidth: 0
GlyphClass: 4
Flags: W
HStem: 986 32<-244.5 -177.5 -244.5 -165> 1084 32<-222 -204 -222 -195> 1181 33<-222 -204>
VStem: -390 52<1099.5 1144.5> -278 32<1140 1158 1140 1167> -180 32<1140 1158> -84 59<1099.5 1142.5>
AnchorPoint: "Anchor0" -197 968 mark 0
AnchorPoint: "Anchor-0" -197 968 mark 0
LayerCount: 2
Fore
SplineSet
-246 1149 m 256
 -246 1131 -231 1116 -213 1116 c 256
 -195 1116 -180 1131 -180 1149 c 256
 -180 1167 -195 1181 -213 1181 c 256
 -231 1181 -246 1167 -246 1149 c 256
-278 1149 m 256
 -278 1185 -249 1214 -213 1214 c 256
 -175 1214 -148 1185 -148 1149 c 256
 -148 1113 -177 1084 -213 1084 c 256
 -249 1084 -278 1113 -278 1149 c 256
-390 1132 m 256
 -390 1157 -383 1182 -368 1206 c 256
 -353 1230 -339 1252 -312 1272 c 257
 -262 1252 l 257
 -299 1225 -338 1186 -338 1132 c 256
 -338 1067 -278 1018 -211 1018 c 256
 -144 1018 -84 1067 -84 1132 c 256
 -84 1153 -91 1173 -104 1194 c 256
 -117 1215 -135 1234 -160 1252 c 257
 -110 1272 l 257
 -67 1241 -25 1196 -25 1132 c 256
 -25 1044 -119 986 -211 986 c 256
 -299 986 -390 1048 -390 1132 c 256
EndSplineSet
PickledDataWithLists: "(dp0
Vcom.fontlab.hintData
p1
(dp2
Vhhints
p3
(lp4
(dp5
Vposition
p6
I986
sVwidth
p7
I32
sa(dp8
g6
I1084
sg7
I32
sa(dp9
g6
I1181
sg7
I33
sasVvhints
p10
(lp11
(dp12
g6
I-390
sg7
I52
sa(dp13
g6
I-278
sg7
I32
sa(dp14
g6
I-180
sg7
I32
sa(dp15
g6
I-84
sg7
I59
sass."
Substitution2: "Single Substitution lookup 13 subtable" u0981.salt
EndChar

StartChar: u0982
Encoding: 5 2434 5
GlifName: u0982
Width: 539
VWidth: 0
GlyphClass: 2
Flags: W
HStem: 174 78<115 142.5 115 164> 357 118<115.5 223> 524 56<215 251 215 269> 710 74<215 242>
VStem: 0 76<299 307 307 307> 103 65<627 663 627 690> 181 78<291.5 318.5> 298 65<627 654> 429 82<106 142.5>
LayerCount: 2
Fore
SplineSet
168 645 m 256
 168 609 197 580 233 580 c 256
 269 580 298 609 298 645 c 256
 298 663 290 676 279 691 c 256
 266 709 251 710 233 710 c 256
 197 710 168 681 168 645 c 256
103 654 m 256
 103 726 161 784 233 784 c 256
 278 784 300 771 325 746 c 256
 350 721 363 690 363 654 c 256
 363 582 305 524 233 524 c 256
 161 524 103 582 103 654 c 256
76 305 m 256
 76 277 101 252 129 252 c 256
 156 252 181 278 181 305 c 256
 181 332 156 357 129 357 c 256
 102 357 76 332 76 305 c 256
0 299 m 258
 0 307 l 257
 5 410 117 475 215 475 c 258
 223 475 l 257
 293 473 353 447 404 396 c 256
 470 330 511 246 511 125 c 256
 511 87 506 49 496 10 c 257
 395 -91 l 257
 417 -29 429 30 429 89 c 256
 429 196 397 275 340 332 c 256
 309 363 270 391 220 396 c 257
 245 371 259 341 259 305 c 256
 259 235 199 174 129 174 c 256
 61 174 0 229 0 299 c 258
EndSplineSet
PickledDataWithLists: "(dp0
Vcom.fontlab.hintData
p1
(dp2
Vhhints
p3
(lp4
(dp5
Vposition
p6
I174
sVwidth
p7
I78
sa(dp8
g6
I357
sg7
I118
sa(dp9
g6
I524
sg7
I56
sa(dp10
g6
I710
sg7
I74
sasVvhints
p11
(lp12
(dp13
g6
I0
sg7
I76
sa(dp14
g6
I103
sg7
I65
sa(dp15
g6
I181
sg7
I78
sa(dp16
g6
I298
sg7
I65
sa(dp17
g6
I429
sg7
I82
sass."
EndChar

StartChar: u0983
Encoding: 6 2435 6
GlifName: u0983
Width: 423
VWidth: 0
GlyphClass: 2
Flags: W
HStem: 0 65<215 251 215 269> 195 65<215 251> 325 65<215 251 215 269> 520 65<215 251>
VStem: 103 65<112 148 112 166 437 473> 298 65<112 148 437 473>
LayerCount: 2
Fore
SplineSet
168 455 m 256
 168 419 197 390 233 390 c 256
 269 390 298 419 298 455 c 256
 298 491 269 520 233 520 c 256
 197 520 168 491 168 455 c 256
168 130 m 256
 168 94 197 65 233 65 c 256
 269 65 298 94 298 130 c 256
 298 166 269 195 233 195 c 256
 197 195 168 166 168 130 c 256
103 455 m 256
 103 527 161 585 233 585 c 256
 278 585 300 572 325 547 c 256
 350 522 363 491 363 455 c 256
 363 383 305 325 233 325 c 256
 161 325 103 383 103 455 c 256
103 130 m 256
 103 202 161 260 233 260 c 256
 305 260 363 202 363 130 c 256
 363 58 305 0 233 0 c 256
 161 0 103 58 103 130 c 256
EndSplineSet
PickledDataWithLists: "(dp0
Vcom.fontlab.hintData
p1
(dp2
Vhhints
p3
(lp4
(dp5
Vposition
p6
I0
sVwidth
p7
I65
sa(dp8
g6
I195
sg7
I65
sa(dp9
g6
I325
sg7
I65
sa(dp10
g6
I520
sg7
I65
sasVvhints
p11
(lp12
(dp13
g6
I103
sg7
I65
sa(dp14
g6
I298
sg7
I65
sass."
EndChar

StartChar: u09a4
Encoding: 7 2468 7
GlifName: u09a4
Width: 790
VWidth: 0
GlyphClass: 2
Flags: W
HStem: 41 90<297.5 363 297.5 368> 384 95<154.5 178 153 208.5> 597 107<550.5 592.5> 610 95<151 177.5> 740 78<0 7 8 403 403 413 0 7> 1003 20<705 727>
VStem: 0 100<310 388.5 309.5 496> 208 98<544 554.5> 385 107<543 560.5 527.5 587.5> 661 97<341.5 472> 712 78<862.5 896.5>
AnchorPoint: "Anchor1" 475 29 basechar 0
AnchorPoint: "Anchor0" 361 872 basechar 0
AnchorPoint: "Anchor-0" 361 872 basechar 0
AnchorPoint: "Anchor-1" 475 29 basechar 0
LayerCount: 2
Fore
SplineSet
116 544 m 256
 116 507 141 479 165 479 c 256
 191 479 208 512 208 541 c 256
 208 568 192 610 163 610 c 256
 139 610 116 579 116 544 c 256
0 420 m 256
 0 572 51 705 169 705 c 256
 243 705 306 635 306 544 c 256
 304 451 251 384 166 384 c 256
 143 384 120 394 104 394 c 256
 101 394 100 392 100 385 c 256
 100 234 235 131 360 131 c 256
 366 131 373 132 379 132 c 256
 554 145 661 255 661 428 c 256
 661 516 619 597 566 597 c 256
 535 597 492 579 492 542 c 256
 492 513 537 490 562 446 c 258
 575 423 l 257
 532 424 488 426 445 427 c 257
 428 444 l 258
 405 468 386 513 385 543 c 256
 385 632 463 704 557 704 c 256
 695 704 758 571 758 427 c 256
 758 210 607 53 388 42 c 256
 380 42 372 41 364 41 c 256
 145 41 0 200 0 420 c 256
-69 742 m 257
 -69 742 -39 756 -20 775 c 256
 -14 781 -6 794 0 805 c 257
 0 818 l 257
 7 818 l 257
 8 819 l 257
 8 818 l 257
 403 818 l 258
 480 818 538 817 581 817 c 256
 705 817 712 825 712 885 c 256
 712 908 693 945 674 961 c 258
 657 975 l 257
 677 998 l 258
 689 1012 701 1022 705 1023 c 256
 749 1023 790 929 790 882 c 256
 790 843 775 808 745 780 c 256
 705 741 710 742 413 740 c 257
 0 740 l 257
 0 741 l 257
 -11 741 l 258
 -30 741 -49 741 -69 742 c 257
EndSplineSet
PickledDataWithLists: "(dp0
Vcom.fontlab.hintData
p1
(dp2
Vhhints
p3
(lp4
(dp5
Vposition
p6
I41
sVwidth
p7
I90
sa(dp8
g6
I384
sg7
I95
sa(dp9
g6
I597
sg7
I107
sa(dp10
g6
I610
sg7
I95
sa(dp11
g6
I740
sg7
I78
sa(dp12
g6
I1003
sg7
I20
sasVvhints
p13
(lp14
(dp15
g6
I0
sg7
I100
sa(dp16
g6
I208
sg7
I98
sa(dp17
g6
I385
sg7
I107
sa(dp18
g6
I661
sg7
I97
sa(dp19
g6
I712
sg7
I78
sass."
EndChar

StartChar: u09ce
Encoding: 8 2510 8
GlifName: u09ce
Width: 502
VWidth: 0
GlyphClass: 2
Flags: W
HStem: 55 21<283 372 283 283> 291 74<253 312 253 316> 428 63<343 367.5 343 390> 576 20<276 309> 660 73<201 290.5>
VStem: 9 57<492 558 492 581.5> 230 126<533 550> 419 74<156.5 216 156.5 223> 430 63<544 600.5>
AnchorPoint: "Anchor1" 415 27 basechar 0
AnchorPoint: "Anchor0" 256 765 basechar 0
AnchorPoint: "Anchor-0" 256 765 basechar 0
AnchorPoint: "Anchor-1" 415 27 basechar 0
LayerCount: 2
Fore
SplineSet
9 512 m 256
 9 651 109 733 251 733 c 256
 371 733 493 676 493 565 c 256
 493 488 429 428 351 428 c 256
 289 428 230 472 230 533 c 256
 230 567 259 596 293 596 c 256
 325 596 356 575 356 544 c 256
 356 522 345 506 330 497 c 257
 334 495 340 491 346 491 c 256
 389 491 430 523 430 565 c 256
 430 636 332 660 249 660 c 256
 153 660 66 604 66 512 c 256
 66 472 87 437 129 408 c 256
 171 379 223 365 283 365 c 256
 341 365 391 348 432 314 c 256
 473 280 493 240 493 192 c 256
 493 121 436 55 372 55 c 258
 283 55 l 257
 349 67 419 119 419 192 c 256
 419 254 349 291 283 291 c 256
 208 291 142 313 89 356 c 256
 36 399 9 451 9 512 c 256
EndSplineSet
PickledDataWithLists: "(dp0
Vcom.fontlab.hintData
p1
(dp2
Vhhints
p3
(lp4
(dp5
Vposition
p6
I55
sVwidth
p7
I21
sa(dp8
g6
I291
sg7
I74
sa(dp9
g6
I428
sg7
I63
sa(dp10
g6
I576
sg7
I20
sa(dp11
g6
I660
sg7
I73
sasVvhints
p12
(lp13
(dp14
g6
I9
sg7
I57
sa(dp15
g6
I230
sg7
I126
sa(dp16
g6
I419
sg7
I74
sa(dp17
g6
I430
sg7
I63
sass."
Ligature2: "halfHalfFormsinBengali2lookup5 subtable" u09a4 u09cd zwj
EndChar

StartChar: zwnj
Encoding: 9 8204 9
GlifName: zwnj
Width: 0
VWidth: 0
GlyphClass: 2
Flags: W
VStem: -12 24<12 683 12 683>
LayerCount: 2
Fore
SplineSet
-12 12 m 257
 -12 683 l 257
 12 683 l 257
 12 12 l 257
 -12 12 l 257
EndSplineSet
PickledDataWithLists: "(dp0
Vcom.fontlab.hintData
p1
(dp2
Vvhints
p3
(lp4
(dp5
Vposition
p6
I-12
sVwidth
p7
I24
sass."
EndChar

StartChar: zwj
Encoding: 10 8205 10
GlifName: zwj
Width: 0
VWidth: 0
GlyphClass: 2
Flags: W
VStem: -19 39<15 601 15 605 15 605>
LayerCount: 2
Fore
SplineSet
-146 688 m 257
 -126 723 l 257
 0 645 l 257
 93 723 l 257
 123 698 l 257
 20 625 l 257
 127 557 l 257
 118 537 l 257
 20 601 l 257
 20 15 l 257
 -19 10 l 257
 -19 605 l 257
 -102 532 l 257
 -131 542 l 257
 -34 632 l 257
 -146 688 l 257
EndSplineSet
PickledDataWithLists: "(dp0
Vcom.fontlab.hintData
p1
(dp2
Vvhints
p3
(lp4
(dp5
Vposition
p6
I-19
sVwidth
p7
I39
sass."
EndChar

StartChar: quotedblleft
Encoding: 11 8220 11
GlifName: quotedblleft
Width: 273
VWidth: 0
GlyphClass: 2
Flags: W
HStem: 489 247<100.5 181>
VStem: 18 76<654.5 669> 81 55<508 518.5> 132 75<695.5 710> 194 56<549 561.5>
LayerCount: 2
Fore
SplineSet
132 698 m 256
 132 721 148 736 171 736 c 256
 191 736 201 725 207 710 c 257
 249 569 l 258
 250 566 250 563 250 560 c 256
 250 543 238 531 220 531 c 256
 206 531 198 538 194 549 c 258
 135 684 l 258
 133 689 132 693 132 698 c 256
18 657 m 256
 18 678 35 696 57 696 c 256
 77 696 89 684 94 669 c 258
 134 527 l 258
 135 524 136 520 136 517 c 256
 136 501 123 489 107 489 c 256
 94 489 85 497 81 508 c 258
 21 643 l 258
 19 648 18 652 18 657 c 256
EndSplineSet
PickledDataWithLists: "(dp0
Vcom.fontlab.hintData
p1
(dp2
Vhhints
p3
(lp4
(dp5
Vposition
p6
I489
sVwidth
p7
I247
sasVvhints
p8
(lp9
(dp10
g6
I18
sg7
I76
sa(dp11
g6
I81
sg7
I55
sa(dp12
g6
I132
sg7
I75
sa(dp13
g6
I194
sg7
I56
sass."
EndChar

StartChar: quotedblright
Encoding: 12 8221 12
GlifName: quotedblright
Width: 273
VWidth: 0
GlyphClass: 2
Flags: W
HStem: 492 244
VStem: -48 239<570 666.5 571.5 666.5>
LayerCount: 2
Fore
SplineSet
64 528 m 256
 64 529 65 530 65 531 c 258
 115 669 l 258
 121 685 136 696 152 696 c 256
 175 696 191 676 191 657 c 256
 191 652 190 648 188 643 c 258
 138 504 l 258
 135 496 120 495 113 492 c 256
 109 490 106 490 102 490 c 256
 90 490 80 497 76 506 c 256
 73 511 64 520 64 528 c 256
-48 570 m 256
 -48 571 -48 571 -48 572 c 258
 0 710 l 258
 6 726 22 736 38 736 c 256
 63 736 77 718 77 698 c 256
 77 693 77 689 75 684 c 258
 24 546 l 258
 21 538 6 536 0 533 c 256
 -4 531 -6 530 -10 530 c 256
 -22 530 -34 539 -38 547 c 256
 -41 552 -48 562 -48 570 c 256
EndSplineSet
PickledDataWithLists: "(dp0
Vcom.fontlab.hintData
p1
(dp2
Vhhints
p3
(lp4
(dp5
Vposition
p6
I492
sVwidth
p7
I244
sasVvhints
p8
(lp9
(dp10
g6
I-48
sg7
I239
sass."
EndChar

StartChar: euro
Encoding: 13 8364 13
GlifName: euro
Width: 501
VWidth: 0
GlyphClass: 2
Flags: W
HStem: 267 45<261 261 261 494> 385 41<270 493> 574 53<479 493>
LayerCount: 2
Fore
SplineSet
6 267 m 257
 6 313 l 257
 183 313 l 257
 176 330 l 257
 176 347 182 368 193 394 c 257
 188 386 l 257
 6 386 l 257
 6 426 l 257
 200 426 l 257
 207 440 215 454 225 470 c 256
 291 579 376 620 479 627 c 257
 493 574 l 257
 454 571 415 556 376 532 c 256
 343 511 308 487 270 426 c 257
 493 426 l 257
 493 385 l 257
 256 385 l 257
 249 374 l 257
 244 330 l 257
 248 318 253 284 260 269 c 257
 251 312 l 257
 494 312 l 257
 494 267 l 257
 261 267 l 257
 270 248 280 248 293 225 c 256
 316 184 375 129 469 61 c 257
 464 12 l 258
 463 12 462 12 461 12 c 256
 451 12 434 20 409 37 c 256
 395 46 378 58 359 73 c 256
 267 144 236 170 194 267 c 257
 6 267 l 257
EndSplineSet
PickledDataWithLists: "(dp0
Vcom.fontlab.hintData
p1
(dp2
Vhhints
p3
(lp4
(dp5
Vposition
p6
I267
sVwidth
p7
I45
sa(dp8
g6
I385
sg7
I41
sa(dp9
g6
I574
sg7
I53
sass."
EndChar

StartChar: uni25CC
Encoding: 14 9676 14
GlifName: uni25C_C_
Width: 845
VWidth: 0
GlyphClass: 2
Flags: W
HStem: 0 94<410.5 435.5> 40 95<257.5 282.5 257.5 283 562.5 587.5> 152 94<147.5 172.5 673.5 698.5> 304 94<105.5 130.5 714.5 739.5> 456 94<147.5 172.5 673.5 698.5> 568 94<257.5 282.5 562.5 587.5> 608 94<410.5 435.5>
VStem: 72 93<338.5 363.5> 113 94<186.5 211.5 490.5 515.5> 224 93<75 100.5 602.5 627.5> 376 93<34.5 59.5 642.5 667.5> 528 93<75 100.5 602.5 627.5> 640 93<186.5 211.5 490.5 515.5> 680 94<338.5 363.5>
AnchorPoint: "Anchor1" 486 -30 basechar 0
AnchorPoint: "Anchor0" 442 748 basechar 0
AnchorPoint: "Anchor-0" 442 748 basechar 0
AnchorPoint: "Anchor-1" 486 -30 basechar 0
LayerCount: 2
Fore
SplineSet
680 351 m 256
 680 376 702 398 727 398 c 256
 752 398 774 376 774 351 c 256
 774 326 752 304 727 304 c 256
 702 304 680 326 680 351 c 256
640 503 m 256
 640 528 661 550 686 550 c 256
 711 550 733 528 733 503 c 256
 733 478 711 456 686 456 c 256
 661 456 640 478 640 503 c 256
640 199 m 256
 640 224 661 246 686 246 c 256
 711 246 733 224 733 199 c 256
 733 174 711 152 686 152 c 256
 661 152 640 174 640 199 c 256
528 615 m 256
 528 640 550 662 575 662 c 256
 600 662 621 640 621 615 c 256
 621 590 600 568 575 568 c 256
 550 568 528 590 528 615 c 256
528 88 m 256
 528 113 550 135 575 135 c 256
 600 135 621 113 621 88 c 256
 621 62 601 40 575 40 c 256
 549 40 528 62 528 88 c 256
376 655 m 256
 376 680 398 702 423 702 c 256
 448 702 469 680 469 655 c 256
 469 630 448 608 423 608 c 256
 398 608 376 630 376 655 c 256
376 47 m 256
 376 72 398 94 423 94 c 256
 448 94 469 72 469 47 c 256
 469 22 448 0 423 0 c 256
 398 0 376 22 376 47 c 256
224 615 m 256
 224 640 245 662 270 662 c 256
 295 662 317 640 317 615 c 256
 317 590 295 568 270 568 c 256
 245 568 224 590 224 615 c 256
224 88 m 256
 224 113 245 135 270 135 c 256
 295 135 317 113 317 88 c 256
 317 62 296 40 270 40 c 256
 244 40 224 62 224 88 c 256
113 503 m 256
 113 528 135 550 160 550 c 256
 185 550 207 528 207 503 c 256
 207 478 185 456 160 456 c 256
 135 456 113 478 113 503 c 256
113 199 m 256
 113 224 135 246 160 246 c 256
 185 246 207 224 207 199 c 256
 207 174 185 152 160 152 c 256
 135 152 113 174 113 199 c 256
72 351 m 256
 72 376 93 398 118 398 c 256
 143 398 165 376 165 351 c 256
 165 326 143 304 118 304 c 256
 93 304 72 326 72 351 c 256
EndSplineSet
PickledDataWithLists: "(dp0
Vcom.fontlab.hintData
p1
(dp2
Vhhints
p3
(lp4
(dp5
Vposition
p6
I0
sVwidth
p7
I94
sa(dp8
g6
I40
sg7
I95
sa(dp9
g6
I152
sg7
I94
sa(dp10
g6
I304
sg7
I94
sa(dp11
g6
I456
sg7
I94
sa(dp12
g6
I568
sg7
I94
sa(dp13
g6
I608
sg7
I94
sasVvhints
p14
(lp15
(dp16
g6
I72
sg7
I93
sa(dp17
g6
I113
sg7
I94
sa(dp18
g6
I224
sg7
I93
sa(dp19
g6
I376
sg7
I93
sa(dp20
g6
I528
sg7
I93
sa(dp21
g6
I640
sg7
I93
sa(dp22
g6
I680
sg7
I94
sass."
EndChar

StartChar: u0981.salt
Encoding: 15 -1 15
GlifName: u0981.salt
Width: 779
VWidth: 0
GlyphClass: 2
Flags: W
HStem: 1063 16<652 684 652 690> 1112 16<663 673.5 663 677> 1160 17<663 673.5>
VStem: 576 29<1120 1148.5> 635 16<1139 1149 1139 1153.5> 684 16<1138.5 1149.5> 732 30<1120 1148.5 1114 1149>
LayerCount: 2
Fore
SplineSet
651 1144 m 256
 651 1134 658 1128 668 1128 c 256
 679 1128 684 1133 684 1144 c 256
 684 1155 679 1160 668 1160 c 256
 658 1160 651 1154 651 1144 c 256
635 1144 m 256
 635 1163 649 1177 668 1177 c 256
 687 1177 700 1163 700 1144 c 256
 700 1126 686 1112 668 1112 c 256
 650 1112 635 1126 635 1144 c 256
576 1136 m 256
 576 1161 590 1185 618 1206 c 257
 643 1196 l 257
 624 1183 605 1162 605 1136 c 256
 605 1104 636 1079 668 1079 c 256
 700 1079 732 1104 732 1136 c 256
 732 1162 713 1183 694 1196 c 257
 719 1206 l 257
 748 1184 762 1161 762 1136 c 256
 762 1092 712 1063 668 1063 c 256
 624 1063 576 1092 576 1136 c 256
EndSplineSet
PickledDataWithLists: "(dp0
Vcom.fontlab.hintData
p1
(dp2
Vhhints
p3
(lp4
(dp5
Vposition
p6
I1063
sVwidth
p7
I16
sa(dp8
g6
I1112
sg7
I16
sa(dp9
g6
I1160
sg7
I17
sasVvhints
p10
(lp11
(dp12
g6
I576
sg7
I29
sa(dp13
g6
I635
sg7
I16
sa(dp14
g6
I684
sg7
I16
sa(dp15
g6
I732
sg7
I30
sass."
EndChar

StartChar: u099c_u09cd_u099e.akhn
Encoding: 16 -1 16
GlifName: u099c_u09cd_u099e.akhn
Width: 995
VWidth: 0
GlyphClass: 3
Flags: W
HStem: 0 83<276.5 289.5> 79 87<774 803 774 824.5> 217 97<132.5 147.5 130 150> 394 89<253 273.5> 569 88<564 569.5> 622 81<767.5 798.5> 738 80<0 341 0 221> 1003 20<895 899>
VStem: 3 86<184.5 188 161.5 224.5> 127 90<525.5 555.5 525.5 566> 194 93<149.5 164.5 144.5 176.5> 617 113 664 66<212 212 212 313 283.5 313> 857 74<220 270 506.5 559.5> 904 78<879.5 889.5 862.5 895.5>
AnchorPoint: "Anchor1" 790 64 basechar 0
AnchorPoint: "Anchor0" 476 836 basechar 0
AnchorPoint: "Anchor-0" 476 836 basechar 0
AnchorPoint: "Anchor-1" 790 64 basechar 0
LayerCount: 2
Fore
SplineSet
730 212 m 257
 759 191 765 166 783 166 c 256
 823 166 857 200 857 240 c 256
 857 300 791 344 730 350 c 257
 730 212 l 257
723 607 m 257
 727 592 729 576 729 560 c 258
 729 426 l 257
 790 432 857 476 857 537 c 256
 857 582 821 622 776 622 c 256
 759 622 742 617 725 608 c 256
 724 608 724 607 723 607 c 257
89 177 m 256
 89 146 118 121 149 121 c 256
 152 121 156 122 159 122 c 256
 179 125 194 138 194 161 c 256
 194 192 166 217 134 217 c 256
 131 217 127 216 124 216 c 256
 105 213 89 199 89 177 c 256
0 738 m 257
 0 818 l 257
 341 818 l 258
 624 818 877 818 895 852 c 256
 900 861 904 875 904 884 c 256
 904 907 885 944 866 960 c 258
 849 974 l 257
 869 998 l 258
 880 1011 893 1023 897 1023 c 256
 901 1023 918 1009 935 992 c 256
 959 968 968 954 975 928 c 256
 979 912 982 897 982 882 c 256
 982 843 967 807 937 779 c 256
 898 741 647 746 378 739 c 256
 360 739 344 728 331 719 c 256
 294 692 263 658 238 614 c 256
 225 590 217 567 217 544 c 256
 217 507 235 483 271 483 c 256
 283 483 297 487 312 493 c 256
 340 505 367 526 391 555 c 256
 428 599 469 630 514 646 c 256
 535 653 555 657 573 657 c 256
 594 657 613 652 630 642 c 256
 633 640 637 639 640 639 c 256
 664 639 692 680 692 680 c 257
 718 695 746 703 776 703 c 256
 863 703 931 625 931 537 c 256
 931 461 879 409 821 388 c 257
 879 367 931 314 931 240 c 256
 931 155 866 79 783 79 c 256
 764 79 739 91 709 114 c 256
 697 124 675 130 664 136 c 257
 664 195 664 254 664 313 c 257
 653 283 653 280 635 249 c 256
 568 133 486 57 388 21 c 256
 348 6 309 0 270 0 c 256
 212 0 155 15 98 48 c 256
 58 71 30 103 14 141 c 256
 6 159 3 176 3 193 c 256
 3 256 52 296 100 309 c 256
 112 312 124 314 136 314 c 256
 159 314 182 308 204 295 c 256
 246 271 271 238 282 194 c 256
 285 182 287 170 287 159 c 256
 287 130 276 106 255 85 c 257
 264 84 272 83 281 83 c 256
 322 83 366 99 411 130 c 256
 466 168 515 223 556 295 c 256
 590 354 609 409 615 462 c 256
 616 472 617 481 617 490 c 256
 617 527 606 552 584 564 c 256
 579 567 573 569 566 569 c 256
 556 569 545 566 532 560 c 256
 510 550 490 533 470 510 c 256
 428 460 381 425 330 407 c 256
 306 399 284 394 263 394 c 256
 176 394 127 462 127 547 c 256
 127 585 138 622 159 659 c 256
 177 690 198 714 221 738 c 257
 0 738 l 257
EndSplineSet
PickledDataWithLists: "(dp0
Vcom.fontlab.hintData
p1
(dp2
Vhhints
p3
(lp4
(dp5
Vposition
p6
I0
sVwidth
p7
I83
sa(dp8
g6
I79
sg7
I87
sa(dp9
g6
I217
sg7
I97
sa(dp10
g6
I394
sg7
I89
sa(dp11
g6
I569
sg7
I88
sa(dp12
g6
I622
sg7
I81
sa(dp13
g6
I738
sg7
I80
sa(dp14
g6
I1003
sg7
I20
sasVvhints
p15
(lp16
(dp17
g6
I3
sg7
I86
sa(dp18
g6
I127
sg7
I90
sa(dp19
g6
I194
sg7
I93
sa(dp20
g6
I617
sg7
I113
sa(dp21
g6
I664
sg7
I66
sa(dp22
g6
I857
sg7
I74
sa(dp23
g6
I904
sg7
I78
sass."
Ligature2: "akhnAkhandinBengali2lookup2 subtable" u099c u09cd u099e
EndChar

StartChar: u0995_u09cd_u09b7.akhn
Encoding: 17 -1 17
GlifName: u0995_u09cd_u09b7.akhn
Width: 1153
VWidth: 0
GlyphClass: 3
Flags: W
HStem: 68 98<734 774.5 734 786> 104 106<431.5 483 431.5 486> 160 72<107 126.5 107 147> 226 68<896 931.5 896 943.5> 368 68<182.5 187> 442 72<193 212.5 193 231> 444 81<866.5 867.5> 612 106<185.5 256> 738 79<58 61 63 91 58 61 63 256> 763 21<983 1014.5> 1003 20<1061 1084.5>
VStem: 10 60<268.5 290.5 268.5 315.5> 96 60<550.5 572.5 550.5 597.5> 152 76<267.5 290 244.5 292.5> 236 76<549.5 574 526.5 574.5> 249 102<256 287> 378 112<537.5 567> 611 78<269 671> 753 72<354 386 352.5 417.5> 1055 83<442.5 481.5> 1070 80<830.5 895.5>
AnchorPoint: "Anchor1" 770 54 basechar 0
AnchorPoint: "Anchor0" 527 843 basechar 0
AnchorPoint: "Anchor-0" 527 843 basechar 0
AnchorPoint: "Anchor-1" 770 54 basechar 0
LayerCount: 2
Fore
SplineSet
345 739 m 257
 424 708 490 629 490 535 c 256
 490 458 453 398 406 364 c 256
 385 349 360 325 351 297 c 256
 351 290 352 281 352 270 c 256
 352 265 351 261 351 256 c 256
 365 226 412 210 451 210 c 256
 515 210 568 239 611 269 c 257
 611 740 l 257
 572 739 522 739 458 739 c 258
 345 739 l 257
156 560 m 256
 156 541 184 514 202 514 c 256
 223 514 236 537 236 562 c 256
 236 587 219 612 196 612 c 256
 175 612 156 585 156 560 c 256
70 278 m 256
 70 259 98 232 116 232 c 256
 137 232 152 255 152 280 c 256
 152 305 133 330 110 330 c 256
 89 330 70 303 70 278 c 256
-14 742 m 257
 -14 742 16 756 35 775 c 256
 43 782 51 801 58 812 c 257
 58 817 l 257
 61 817 l 257
 62 818 62 819 63 819 c 257
 63 817 l 257
 448 817 l 258
 533 817 601 816 653 816 c 256
 784 816 1070 824 1070 884 c 256
 1070 907 1051 944 1032 960 c 258
 1015 974 l 257
 1035 997 l 258
 1046 1010 1059 1023 1063 1023 c 256
 1106 1023 1148 929 1148 882 c 256
 1148 869 1150 856 1150 844 c 256
 1150 817 1141 793 1081 774 c 256
 1054 765 1027 763 1002 763 c 256
 964 763 932 769 925 769 c 256
 922 769 921 768 921 767 c 256
 921 761 955 741 955 741 c 257
 955 741 1138 589 1138 463 c 256
 1138 422 1127 380 1106 340 c 256
 1086 302 1038 257 1000 239 c 256
 974 227 965 226 922 226 c 256
 866 226 839 235 804 267 c 256
 771 297 753 334 753 374 c 256
 753 461 831 525 902 525 c 256
 949 525 988 491 988 452 c 256
 988 414 960 388 928 388 c 256
 906 388 885 400 876 423 c 256
 872 433 869 442 868 443 c 258
 868 443 868 444 867 444 c 256
 860 444 836 420 830 407 c 256
 827 400 825 391 825 381 c 256
 825 324 869 294 923 294 c 256
 940 294 957 298 972 305 c 256
 1023 330 1055 399 1055 467 c 256
 1055 496 1049 525 1037 550 c 256
 1016 592 977 629 929 652 c 258
 889 671 l 257
 822 671 756 671 689 671 c 257
 689 247 l 258
 689 206 714 166 754 166 c 256
 795 166 825 200 845 230 c 257
 897 174 l 257
 865 128 818 68 754 68 c 256
 698 68 649 111 628 161 c 257
 585 128 521 104 451 104 c 256
 395 104 340 124 302 159 c 257
 256 178 l 257
 270 196 l 258
 270 197 271 196 271 197 c 256
 257 220 249 246 249 275 c 256
 249 299 254 320 261 338 c 257
 247 350 230 358 214 362 c 256
 199 366 190 368 184 368 c 256
 181 368 178 368 178 366 c 256
 178 363 184 358 192 350 c 256
 216 327 228 304 228 276 c 256
 228 213 174 160 120 160 c 256
 65 160 10 217 10 288 c 256
 10 343 43 396 100 424 c 256
 123 435 135 436 176 436 c 256
 219 436 229 435 256 422 c 256
 271 415 285 405 298 394 c 257
 318 415 340 433 361 452 c 257
 342 460 l 257
 354 478 l 257
 370 500 378 525 378 550 c 256
 378 584 370 603 348 618 c 256
 326 632 296 638 269 640 c 257
 293 616 312 590 312 558 c 256
 312 495 258 442 204 442 c 256
 149 442 96 499 96 570 c 256
 96 625 129 678 186 706 c 256
 208 716 219 718 256 718 c 257
 256 738 l 257
 190 738 124 738 58 738 c 256
 53 738 49 741 44 741 c 256
 25 741 6 741 -14 742 c 257
EndSplineSet
PickledDataWithLists: "(dp0
Vcom.fontlab.hintData
p1
(dp2
Vhhints
p3
(lp4
(dp5
Vposition
p6
I68
sVwidth
p7
I98
sa(dp8
g6
I104
sg7
I106
sa(dp9
g6
I160
sg7
I72
sa(dp10
g6
I226
sg7
I68
sa(dp11
g6
I368
sg7
I68
sa(dp12
g6
I442
sg7
I72
sa(dp13
g6
I444
sg7
I81
sa(dp14
g6
I612
sg7
I106
sa(dp15
g6
I738
sg7
I79
sa(dp16
g6
I763
sg7
I21
sa(dp17
g6
I1003
sg7
I20
sasVvhints
p18
(lp19
(dp20
g6
I10
sg7
I60
sa(dp21
g6
I96
sg7
I60
sa(dp22
g6
I152
sg7
I76
sa(dp23
g6
I236
sg7
I76
sa(dp24
g6
I249
sg7
I102
sa(dp25
g6
I378
sg7
I112
sa(dp26
g6
I611
sg7
I78
sa(dp27
g6
I753
sg7
I72
sa(dp28
g6
I1055
sg7
I83
sa(dp29
g6
I1070
sg7
I80
sass."
Ligature2: "akhnAkhandinBengali2lookup2 subtable" u0995 u09cd u09b7
EndChar

StartChar: u09b9_u09cd_u09ae.cjct
Encoding: 18 -1 18
GlifName: u09b9_u09cd_u09ae.cjct
Width: 693
VWidth: 0
GlyphClass: 3
Flags: W
HStem: 0 78<183 209 183 222> 396 49<149 157 149 164> 492 42<132.5 153.5> 615 21<130 130> 665 47<226.5 259> 737 78<-61 306 0 306 306 316>
VStem: 36 54<457 474 457 487.5> 65 91<117.5 145 117.5 150.5> 292 55<583.5 606> 546 78<195 246> 585 65<607 616.5> 615 78<860.5 893.5>
AnchorPoint: "Anchor1" 494 -6 basechar 0
AnchorPoint: "Anchor0" 326 834 basechar 0
AnchorPoint: "Anchor-0" 326 834 basechar 0
AnchorPoint: "Anchor-1" 494 -6 basechar 0
LayerCount: 2
Fore
SplineSet
304 465 m 257
 304 463 308 456 314 448 c 256
 326 432 335 408 338 388 c 257
 335 424 328 456 318 486 c 257
 312 480 304 465 304 465 c 257
156 130 m 256
 156 105 171 78 195 78 c 256
 223 78 248 98 270 138 c 256
 292 178 307 227 312 286 c 257
 265 269 228 246 199 218 c 256
 170 190 156 160 156 130 c 256
90 465 m 256
 90 449 124 445 149 445 c 258
 157 445 l 257
 181 447 223 462 223 469 c 256
 223 485 165 492 142 492 c 256
 123 492 90 483 90 465 c 256
-61 737 m 257
 0 815 l 257
 306 815 l 258
 383 815 441 814 484 814 c 256
 608 814 615 822 615 882 c 256
 615 905 596 942 577 958 c 258
 560 972 l 257
 580 995 l 258
 591 1008 604 1020 608 1020 c 256
 651 1020 693 927 693 880 c 256
 693 841 677 806 648 777 c 256
 625 755 617 745 561 741 c 257
 582 723 610 694 620 684 c 256
 640 664 650 640 650 611 c 256
 650 540 609 486 566 449 c 257
 599 379 624 302 624 208 c 256
 624 107 559 38 494 0 c 257
 442 65 l 257
 474 84 499 106 518 131 c 256
 537 156 546 182 546 208 c 256
 546 284 538 354 514 403 c 257
 475 371 435 339 390 319 c 257
 390 231 371 156 333 94 c 256
 295 32 249 0 195 0 c 256
 123 0 65 58 65 130 c 256
 65 171 88 213 133 255 c 256
 178 297 265 334 339 361 c 257
 290 361 l 257
 284 387 l 258
 280 404 271 435 265 435 c 256
 264 435 256 431 246 425 c 256
 214 405 180 396 148 396 c 256
 98 396 36 424 36 464 c 256
 36 511 100 534 150 534 c 256
 181 534 214 527 244 512 c 258
 265 501 l 257
 282 521 292 545 292 586 c 256
 292 626 279 665 239 665 c 256
 214 665 182 638 176 622 c 257
 130 615 l 257
 159 680 l 257
 159 680 205 712 242 712 c 256
 311 712 347 650 347 587 c 256
 347 580 347 573 346 566 c 256
 367 513 384 452 384 384 c 257
 425 401 459 426 488 455 c 257
 488 456 l 258
 488 467 556 544 572 570 c 256
 574 574 576 577 575 578 c 256
 582 592 585 603 585 611 c 256
 585 622 582 630 574 638 c 256
 572 640 486 710 453 738 c 257
 416 738 372 737 316 737 c 258
 -61 737 l 257
EndSplineSet
PickledDataWithLists: "(dp0
Vcom.fontlab.hintData
p1
(dp2
Vhhints
p3
(lp4
(dp5
Vposition
p6
I0
sVwidth
p7
I78
sa(dp8
g6
I396
sg7
I49
sa(dp9
g6
I492
sg7
I42
sa(dp10
g6
I615
sg7
I21
sa(dp11
g6
I665
sg7
I47
sa(dp12
g6
I737
sg7
I78
sasVvhints
p13
(lp14
(dp15
g6
I36
sg7
I54
sa(dp16
g6
I65
sg7
I91
sa(dp17
g6
I292
sg7
I55
sa(dp18
g6
I546
sg7
I78
sa(dp19
g6
I585
sg7
I65
sa(dp20
g6
I615
sg7
I78
sass."
Ligature2: "cjctConjunctFormsinBengali2lookup13 subtable" u09b9 u09cd u09ae
EndChar

StartChar: u09a4_u09cd_u09a4.cjct
Encoding: 19 -1 19
GlifName: u09a4_u09cd_u09a4.cjct
Width: 784
VWidth: 0
GlyphClass: 3
Flags: W
HStem: 38 48<320 323 323 334 320 340> 223 22<165 184 165 206> 316 80 365 49<320 323 323 334 320 340> 551 51<165 184 165 206> 665 58<462 494> 672 51<162 181.5> 740 78<-79 -69 -67 426 426 439 -79 -69> 1003 20<676 703.5>
VStem: 50 75<182.5 225 182 282 531 553> 205 74<271.5 322.5 637 642> 339 80<309 318 300.5 320 636 645> 545 73<233 270 534 598> 685 98<862.5 896.5>
AnchorPoint: "Anchor1" 338 26 basechar 0
AnchorPoint: "Anchor0" 302 830 basechar 0
AnchorPoint: "Anchor-0" 302 830 basechar 0
AnchorPoint: "Anchor-1" 338 26 basechar 0
LayerCount: 2
Fore
SplineSet
136 637 m 256
 136 617 156 602 174 602 c 256
 194 602 205 620 205 635 c 256
 205 649 192 672 171 672 c 256
 153 672 136 656 136 637 c 256
136 281 m 256
 136 261 156 245 174 245 c 256
 194 245 205 264 205 279 c 256
 205 293 192 316 171 316 c 256
 153 316 136 300 136 281 c 256
125 223 m 256
 125 141 226 86 320 86 c 258
 334 86 l 257
 465 93 545 152 545 246 c 256
 545 294 514 337 474 337 c 256
 450 337 419 328 419 308 c 256
 419 293 452 279 471 256 c 258
 481 244 l 257
 464 245 447 245 430 245 c 256
 415 245 399 246 384 246 c 257
 370 256 l 258
 352 269 340 293 339 309 c 256
 339 331 352 352 373 367 c 257
 362 366 351 365 340 365 c 258
 323 365 l 258
 297 365 272 367 249 371 c 257
 268 356 279 335 279 310 c 256
 278 260 238 223 174 223 c 256
 156 223 140 228 128 228 c 256
 126 228 125 227 125 223 c 256
50 242 m 256
 50 322 85 392 169 396 c 257
 94 431 50 493 50 569 c 256
 50 651 87 723 176 723 c 256
 231 723 279 687 279 637 c 256
 278 587 238 551 174 551 c 256
 156 551 140 556 128 556 c 256
 126 556 125 555 125 551 c 256
 125 469 226 414 320 414 c 258
 334 414 l 257
 465 421 545 480 545 574 c 256
 545 622 514 665 474 665 c 256
 450 665 419 655 419 635 c 256
 419 620 452 607 471 584 c 257
 481 571 l 257
 449 572 416 572 384 573 c 257
 370 583 l 258
 352 596 340 620 339 636 c 256
 339 684 398 723 468 723 c 256
 572 723 618 650 618 573 c 256
 618 495 567 431 484 395 c 257
 568 388 618 332 618 246 c 256
 618 220 612 196 602 174 c 256
 565 96 468 43 340 38 c 257
 323 38 l 258
 159 38 50 123 50 242 c 256
-164 742 m 257
 -164 742 -126 756 -102 775 c 256
 -94 781 -87 794 -79 805 c 257
 -79 818 l 257
 -69 818 l 257
 -67 819 l 257
 -67 818 l 257
 426 818 l 258
 522 818 467 817 521 817 c 256
 676 817 685 825 685 885 c 256
 685 908 662 945 638 961 c 258
 616 975 l 257
 641 998 l 258
 656 1012 671 1022 676 1023 c 256
 731 1023 783 929 783 882 c 256
 783 843 764 808 726 780 c 256
 676 741 810 742 439 740 c 257
 -79 740 l 257
 -79 741 l 257
 -83 741 -87 741 -91 741 c 256
 -115 741 -139 741 -164 742 c 257
EndSplineSet
PickledDataWithLists: "(dp0
Vcom.fontlab.hintData
p1
(dp2
Vhhints
p3
(lp4
(dp5
Vposition
p6
I38
sVwidth
p7
I48
sa(dp8
g6
I223
sg7
I22
sa(dp9
g6
I316
sg7
I80
sa(dp10
g6
I365
sg7
I49
sa(dp11
g6
I551
sg7
I51
sa(dp12
g6
I665
sg7
I58
sa(dp13
g6
I672
sg7
I51
sa(dp14
g6
I740
sg7
I78
sa(dp15
g6
I1003
sg7
I20
sasVvhints
p16
(lp17
(dp18
g6
I50
sg7
I75
sa(dp19
g6
I205
sg7
I74
sa(dp20
g6
I339
sg7
I80
sa(dp21
g6
I545
sg7
I73
sa(dp22
g6
I685
sg7
I98
sass."
LCarets2: 2 -77 -77
Ligature2: "cjctConjunctFormsinBengali2lookup13 subtable" u09a4 u09cd u09a4
EndChar

StartChar: u0995_u09cd.haln
Encoding: 20 -1 20
GlifName: u0995_u09cd.haln
Width: 1089
VWidth: 0
GlyphClass: 3
Flags: W
HStem: 49 75<682.5 720.5 682.5 730.5> 86 74<305.5 393> 193 62<841 905 841 923.5> 389 74<815 816> 536 101<308.5 405 288 409> 594 67<654 777 654 835 651 777> 741 84<0 84.5 0 563 658 658 948 948>
VStem: 78 82<285.5 346 346 361 285.5 435.5> 550 101<343 405 357 405 405 406.5> 563 88<548 594> 713 65<307 345 307 366> 984 75<373.5 453.5> 1005 79<846 863.5 800 868>
AnchorPoint: "Anchor1" 706 22 basechar 0
AnchorPoint: "Anchor0" 512 846 basechar 0
AnchorPoint: "Anchor-0" 512 846 basechar 0
AnchorPoint: "Anchor-1" 706 22 basechar 0
LayerCount: 2
Fore
SplineSet
902 -115 m 257
 965 -82 l 257
 965 -82 1013 -106 1033 -132 c 256
 1050 -154 1057 -200 1057 -200 c 257
 989 -222 l 257
 989 -222 978 -184 963 -165 c 256
 944 -141 902 -115 902 -115 c 257
160 346 m 258
 160 225 259 160 352 160 c 256
 444 160 547 222 550 343 c 257
 550 355 l 258
 550 458 463 536 355 536 c 256
 262 536 160 473 160 361 c 258
 160 346 l 258
-69 742 m 257
 -69 742 -39 756 -20 775 c 256
 -13 781 -6 796 0 807 c 257
 0 825 l 257
 945 825 l 258
 978 825 1005 827 1005 865 c 256
 1005 871 1002 876 1002 876 c 257
 1002 890 l 257
 995 891 l 257
 995 893 992 898 979 911 c 258
 965 925 l 257
 983 946 l 258
 993 958 1004 968 1008 968 c 256
 1047 968 1084 885 1084 842 c 256
 1084 758 1056 749 948 741 c 257
 948 741 834 742 748 742 c 256
 705 742 669 742 658 741 c 257
 658 741 655 698 654 661 c 257
 900 661 1059 602 1059 407 c 256
 1059 295 982 193 865 193 c 256
 781 193 713 249 713 326 c 256
 713 406 783 463 847 463 c 256
 890 463 924 431 924 396 c 256
 924 362 899 339 871 339 c 256
 833 339 836 369 816 389 c 257
 800 389 778 357 778 333 c 256
 778 281 817 255 865 255 c 256
 945 255 984 336 984 411 c 256
 984 496 933 547 871 577 c 258
 835 594 l 257
 651 594 l 257
 651 405 l 258
 651 309 650 248 650 210 c 256
 650 136 658 124 707 124 c 256
 734 124 775 164 791 164 c 256
 797 164 839 127 839 123 c 256
 839 88 757 49 704 49 c 256
 604 49 595 109 565 169 c 256
 562 169 549 163 537 151 c 256
 487 107 424 86 362 86 c 256
 226 86 78 185 78 362 c 256
 78 509 204 637 372 637 c 256
 438 637 512 594 537 572 c 258
 563 548 l 257
 563 741 l 257
 372 741 180 741 -11 741 c 256
 -30 741 -49 741 -69 742 c 257
EndSplineSet
PickledDataWithLists: "(dp0
Vcom.fontlab.hintData
p1
(dp2
Vhhints
p3
(lp4
(dp5
Vposition
p6
I49
sVwidth
p7
I75
sa(dp8
g6
I86
sg7
I74
sa(dp9
g6
I193
sg7
I62
sa(dp10
g6
I389
sg7
I74
sa(dp11
g6
I536
sg7
I101
sa(dp12
g6
I594
sg7
I67
sa(dp13
g6
I741
sg7
I84
sasVvhints
p14
(lp15
(dp16
g6
I78
sg7
I82
sa(dp17
g6
I550
sg7
I101
sa(dp18
g6
I563
sg7
I88
sa(dp19
g6
I713
sg7
I65
sa(dp20
g6
I984
sg7
I75
sa(dp21
g6
I1005
sg7
I79
sass."
Ligature2: "halnHalantFormsinBengalilookup12 subtable" u0995 u09cd
EndChar

StartChar: u0996_u09cd.hln
Encoding: 21 -1 21
GlifName: u0996_u09cd.hln
Width: 993
VWidth: 0
GlyphClass: 3
Flags: W
HStem: 62 93<260.5 390.5 780.5 826.5> 653 52<153.5 159 133 183> 746 71<805 832> 791 74<140 167.5> 1003 20<897 920.5>
VStem: 22 109<225.5 283 225.5 309.5 626 641> 23 83<729 755 729 758.5> 197 64<746.5 769.5> 495 34 636 91<608 746> 913 78<881 896.5>
AnchorPoint: "Anchor1" 702 18 basechar 0
AnchorPoint: "Anchor0" 332 866 basechar 0
AnchorPoint: "Anchor-0" 332 866 basechar 0
AnchorPoint: "Anchor-1" 702 18 basechar 0
LayerCount: 2
Fore
SplineSet
761 -42 m 257
 824 -9 l 257
 824 -9 872 -33 892 -59 c 256
 909 -81 916 -127 916 -127 c 257
 848 -149 l 257
 848 -149 837 -111 822 -92 c 256
 803 -68 761 -42 761 -42 c 257
106 739 m 256
 106 719 121 705 145 705 c 256
 173 705 197 734 197 759 c 256
 197 780 179 791 156 791 c 256
 124 791 106 771 106 739 c 256
22 264 m 256
 22 355 232 516 303 541 c 257
 232 566 22 548 22 639 c 256
 22 655 27 671 27 686 c 256
 27 698 23 710 23 722 c 256
 23 795 75 865 160 865 c 256
 222 865 261 822 261 760 c 256
 261 694 210 653 156 653 c 256
 151 653 138 652 132 650 c 256
 132 646 131 643 131 639 c 256
 131 613 219 608 221 608 c 257
 221 608 484 698 495 819 c 257
 529 709 l 257
 529 700 227 376 182 363 c 256
 140 350 131 302 131 264 c 256
 131 187 218 155 303 155 c 256
 508 155 636 395 636 608 c 258
 636 818 l 257
 719 818 784 817 826 817 c 256
 861 817 880 818 880 820 c 256
 880 824 903 845 903 845 c 257
 903 849 906 848 908 853 c 256
 911 861 913 877 913 885 c 256
 913 908 894 945 875 961 c 258
 858 975 l 257
 878 998 l 258
 889 1011 895 1023 899 1023 c 256
 942 1023 991 930 991 883 c 256
 991 844 977 767 973 765 c 256
 966 762 864 749 864 749 c 257
 864 746 832 746 832 746 c 257
 727 746 l 257
 727 233 l 258
 727 190 759 155 802 155 c 256
 851 155 885 187 911 218 c 257
 974 155 l 257
 935 108 878 62 802 62 c 256
 708 62 631 139 631 233 c 258
 631 296 l 257
 585 173 470 62 311 62 c 256
 161 62 22 124 22 264 c 256
EndSplineSet
PickledDataWithLists: "(dp0
Vcom.fontlab.hintData
p1
(dp2
Vhhints
p3
(lp4
(dp5
Vposition
p6
I62
sVwidth
p7
I93
sa(dp8
g6
I653
sg7
I52
sa(dp9
g6
I746
sg7
I71
sa(dp10
g6
I791
sg7
I74
sa(dp11
g6
I1003
sg7
I20
sasVvhints
p12
(lp13
(dp14
g6
I22
sg7
I109
sa(dp15
g6
I23
sg7
I83
sa(dp16
g6
I197
sg7
I64
sa(dp17
g6
I495
sg7
I34
sa(dp18
g6
I636
sg7
I91
sa(dp19
g6
I913
sg7
I78
sass."
Ligature2: "halnHalantFormsinBengalilookup12 subtable" u0996 u09cd
EndChar

StartChar: u0996_u09cd.haln
Encoding: 22 -1 22
GlifName: u0996_u09cd.haln
Width: 867
VWidth: 0
GlyphClass: 3
Flags: W
HStem: 42 78<658.5 691.5 652 701.5> 232 78<226 304 226 327> 739 80<199 752 221 534> 1003 20<776 799.5>
VStem: 39 91<620.5 694.5 598.5 717> 403 91<372 428.5> 534 83<452 462 462 739 739 739> 785 78<879 896.5>
AnchorPoint: "Anchor1" 590 -4 basechar 0
AnchorPoint: "Anchor0" 396 840 basechar 0
AnchorPoint: "Anchor-0" 396 840 basechar 0
AnchorPoint: "Anchor-1" 590 -4 basechar 0
LayerCount: 2
Fore
SplineSet
683 -22 m 257
 746 11 l 257
 746 11 794 -13 814 -39 c 256
 831 -61 838 -107 838 -107 c 257
 770 -129 l 257
 770 -129 759 -91 744 -72 c 256
 725 -48 683 -22 683 -22 c 257
0 395 m 257
 65 440 l 257
 110 377 179 310 273 310 c 256
 335 310 403 343 403 401 c 256
 403 456 335 487 279 492 c 256
 170 502 39 567 39 674 c 256
 39 760 131 819 221 819 c 258
 752 819 l 257
 752 823 772 839 775 845 c 256
 780 855 785 873 785 885 c 256
 785 908 766 944 747 960 c 258
 730 974 l 257
 750 998 l 258
 761 1011 774 1023 778 1023 c 256
 821 1023 863 930 863 883 c 256
 863 844 848 808 818 780 c 256
 778 741 769 741 617 740 c 257
 617 462 l 258
 617 374 615 308 615 259 c 256
 615 144 624 120 680 120 c 256
 703 120 740 139 756 158 c 258
 770 175 l 257
 794 155 l 258
 807 144 818 131 818 127 c 256
 818 84 725 42 678 42 c 256
 639 42 603 57 575 87 c 256
 536 127 536 155 534 452 c 257
 534 739 l 257
 221 739 l 258
 177 739 130 715 130 674 c 256
 130 523 494 599 494 401 c 256
 494 298 381 232 273 232 c 256
 150 232 57 314 0 395 c 257
EndSplineSet
PickledDataWithLists: "(dp0
Vcom.fontlab.hintData
p1
(dp2
Vhhints
p3
(lp4
(dp5
Vposition
p6
I42
sVwidth
p7
I78
sa(dp8
g6
I232
sg7
I78
sa(dp9
g6
I739
sg7
I80
sa(dp10
g6
I1003
sg7
I20
sasVvhints
p11
(lp12
(dp13
g6
I39
sg7
I91
sa(dp14
g6
I403
sg7
I91
sa(dp15
g6
I534
sg7
I83
sa(dp16
g6
I785
sg7
I78
sass."
Ligature2: "halnHalantFormsinBengalilookup12 subtable" u0997 u09cd
EndChar

StartChar: u0998_u09cd.haln
Encoding: 23 -1 23
GlifName: u0998_u09cd.haln
Width: 1058
VWidth: 0
GlyphClass: 3
Flags: W
HStem: 35 94<343.5 473 863.5 909> 430 67 729 76<62 97 91 97 99 183> 729 1
VStem: 105 109<199.5 283.5 567.5 619.5> 714 92<207 269 269 269> 721 85<581 728 728 728> 976 78<867.5 883.5>
AnchorPoint: "Anchor1" 730 -12 basechar 0
AnchorPoint: "Anchor0" 510 822 basechar 0
AnchorPoint: "Anchor-0" 510 822 basechar 0
AnchorPoint: "Anchor-1" 730 -12 basechar 0
LayerCount: 2
Fore
SplineSet
812 -42 m 257
 875 -9 l 257
 875 -9 923 -33 943 -59 c 256
 960 -81 967 -127 967 -127 c 257
 899 -149 l 257
 899 -149 888 -111 873 -92 c 256
 854 -68 812 -42 812 -42 c 257
214 238 m 256
 214 161 301 129 386 129 c 256
 590 129 714 370 721 581 c 257
 721 728 l 257
 297 728 l 257
 267 677 214 626 214 613 c 256
 214 522 274 497 393 497 c 256
 459 497 531 502 556 502 c 257
 574 430 l 257
 461 430 214 357 214 238 c 256
22 730 m 257
 22 730 52 744 71 763 c 256
 78 769 85 784 91 795 c 257
 91 805 l 257
 93 805 95 805 97 805 c 256
 98 806 98 807 99 807 c 257
 99 805 l 257
 385 805 950 805 968 839 c 256
 973 848 976 863 976 872 c 256
 976 895 957 932 938 948 c 258
 921 962 l 257
 941 985 l 258
 952 998 965 1010 969 1010 c 256
 1012 1010 1054 917 1054 870 c 256
 1054 831 1038 796 1009 767 c 256
 1003 761 981 752 981 752 c 257
 981 752 921 738 921 735 c 256
 921 729 904 730 806 729 c 257
 806 207 l 258
 806 164 842 129 885 129 c 256
 933 129 968 161 994 191 c 257
 1057 129 l 257
 1018 82 960 35 885 35 c 256
 792 35 714 114 714 207 c 258
 714 269 l 257
 669 147 552 35 394 35 c 256
 245 35 105 99 105 238 c 256
 105 329 167 400 238 425 c 257
 167 450 105 522 105 613 c 256
 105 626 155 676 183 729 c 257
 70 729 l 258
 54 729 38 730 22 730 c 257
EndSplineSet
PickledDataWithLists: "(dp0
Vcom.fontlab.hintData
p1
(dp2
Vhhints
p3
(lp4
(dp5
Vposition
p6
I35
sVwidth
p7
I94
sa(dp8
g6
I430
sg7
I67
sa(dp9
g6
I729
sg7
I76
sa(dp10
g6
I729
sg7
I1
sasVvhints
p11
(lp12
(dp13
g6
I105
sg7
I109
sa(dp14
g6
I714
sg7
I92
sa(dp15
g6
I721
sg7
I85
sa(dp16
g6
I976
sg7
I78
sass."
Ligature2: "halnHalantFormsinBengalilookup12 subtable" u0998 u09cd
EndChar

StartChar: u0999_u09cd.haln
Encoding: 24 -1 24
GlifName: u0999_u09cd.haln
Width: 700
VWidth: 0
GlyphClass: 3
Flags: W
HStem: 24 20<512 512> 49 69<272.5 362.5 272.5 380.5> 235 69<120 130 120 120> 370 72<251 293.5 251 305.5> 511 72<540 580> 611 63<280.5 333> 753 59<275 295>
VStem: 0 85<189 211.5 189 236> 51 58<702 735 702 743> 124 90<488 501 488 508> 175 75<707.5 722.5 703 744.5> 190 93<180.5 202.5> 332 56<705.5 723.5> 614 86<376 464.5>
AnchorPoint: "Anchor1" 334 30 basechar 0
AnchorPoint: "Anchor0" 354 838 basechar 0
AnchorPoint: "Anchor-0" 354 838 basechar 0
AnchorPoint: "Anchor-1" 334 30 basechar 0
LayerCount: 2
Fore
SplineSet
449 11 m 257
 512 44 l 257
 512 44 560 20 580 -6 c 256
 597 -28 604 -74 604 -74 c 257
 536 -96 l 257
 536 -96 525 -58 510 -39 c 256
 491 -15 449 11 449 11 c 257
250 713 m 256
 250 693 269 674 292 674 c 256
 313 674 332 695 332 716 c 256
 332 731 304 753 286 753 c 256
 264 753 250 732 250 713 c 256
85 202 m 256
 85 176 116 157 147 157 c 256
 150 157 152 158 155 158 c 256
 175 160 190 171 190 190 c 256
 190 215 162 235 130 235 c 258
 120 235 l 257
 100 233 85 221 85 202 c 256
0 207 m 256
 0 265 64 304 134 304 c 256
 218 304 283 245 283 180 c 256
 283 157 272 137 251 120 c 257
 260 119 268 118 277 118 c 256
 448 118 614 304 614 448 c 256
 614 481 599 511 561 511 c 256
 519 511 491 486 466 463 c 256
 414 413 351 370 260 370 c 256
 173 370 124 425 124 494 c 256
 124 522 136 574 166 593 c 257
 103 611 51 651 51 723 c 256
 51 763 58 785 77 804 c 257
 89 817 l 257
 108 811 127 804 146 798 c 257
 133 784 l 258
 117 766 109 745 109 725 c 256
 109 679 162 644 219 644 c 256
 222 644 224 644 224 646 c 256
 224 648 219 652 211 658 c 256
 187 677 175 696 175 719 c 256
 175 770 229 812 283 812 c 256
 327 812 388 775 388 726 c 256
 388 677 334 611 332 611 c 256
 327 611 326 608 326 604 c 256
 326 599 328 592 328 589 c 256
 328 587 328 587 327 587 c 256
 297 587 214 546 214 501 c 258
 214 488 l 257
 215 460 234 442 268 442 c 256
 319 442 359 472 388 500 c 256
 434 545 487 583 569 583 c 256
 660 583 700 517 700 440 c 256
 700 246 493 49 268 49 c 256
 153 49 0 107 0 207 c 256
EndSplineSet
PickledDataWithLists: "(dp0
Vcom.fontlab.hintData
p1
(dp2
Vhhints
p3
(lp4
(dp5
Vposition
p6
I24
sVwidth
p7
I20
sa(dp8
g6
I49
sg7
I69
sa(dp9
g6
I235
sg7
I69
sa(dp10
g6
I370
sg7
I72
sa(dp11
g6
I511
sg7
I72
sa(dp12
g6
I611
sg7
I63
sa(dp13
g6
I753
sg7
I59
sasVvhints
p14
(lp15
(dp16
g6
I0
sg7
I85
sa(dp17
g6
I51
sg7
I58
sa(dp18
g6
I124
sg7
I90
sa(dp19
g6
I175
sg7
I75
sa(dp20
g6
I190
sg7
I93
sa(dp21
g6
I332
sg7
I56
sa(dp22
g6
I614
sg7
I86
sass."
Ligature2: "halnHalantFormsinBengalilookup12 subtable" u0999 u09cd
EndChar

StartChar: u099a_u09cd.haln
Encoding: 25 -1 25
GlifName: u099a_u09cd.haln
Width: 888
VWidth: 0
GlyphClass: 3
Flags: W
HStem: 46 83<131.5 173 131.5 202> 65 106<496.5 583.5 480 607.5> 588 89<482.5 582.5> 735 84<-60 25 0 25 25 98.5 0 207> 737 74<498 638 638 717.5>
VStem: 207 97<579 735 735 735> 748 96<311 445.5> 807 78<849.5 893.5>
AnchorPoint: "Anchor1" 526 32 basechar 0
AnchorPoint: "Anchor0" 454 828 basechar 0
AnchorPoint: "Anchor-0" 454 828 basechar 0
AnchorPoint: "Anchor-1" 526 32 basechar 0
LayerCount: 2
Fore
SplineSet
689 27 m 257
 752 60 l 257
 752 60 800 36 820 10 c 256
 837 -12 844 -58 844 -58 c 257
 776 -80 l 257
 776 -80 765 -42 750 -23 c 256
 731 1 689 27 689 27 c 257
310 372 m 257
 313 238 429 171 531 171 c 256
 636 171 748 243 748 379 c 256
 748 512 638 588 527 588 c 256
 407 588 310 500 310 384 c 258
 310 372 l 257
-60 735 m 257
 -60 763 0 791 0 819 c 257
 25 819 l 258
 172 819 498 811 498 811 c 257
 638 811 l 258
 797 811 807 817 807 882 c 256
 807 905 788 941 769 957 c 258
 752 971 l 257
 773 995 l 258
 784 1008 797 1019 801 1019 c 256
 844 1019 885 928 885 881 c 256
 885 809 836 737 752 737 c 258
 304 737 l 257
 304 579 l 257
 336 604 l 257
 364 629 446 677 519 677 c 256
 707 677 844 534 844 371 c 256
 844 173 684 65 531 65 c 256
 462 65 392 88 336 137 c 256
 322 149 310 158 306 158 c 256
 305 158 305 157 305 157 c 257
 281 86 254 46 150 46 c 256
 91 46 0 89 0 128 c 256
 0 132 47 174 54 174 c 256
 72 174 117 129 146 129 c 256
 200 129 207 142 207 219 c 258
 207 735 l 257
 -60 735 l 257
EndSplineSet
PickledDataWithLists: "(dp0
Vcom.fontlab.hintData
p1
(dp2
Vhhints
p3
(lp4
(dp5
Vposition
p6
I46
sVwidth
p7
I83
sa(dp8
g6
I65
sg7
I106
sa(dp9
g6
I588
sg7
I89
sa(dp10
g6
I735
sg7
I84
sa(dp11
g6
I737
sg7
I74
sasVvhints
p12
(lp13
(dp14
g6
I207
sg7
I97
sa(dp15
g6
I748
sg7
I96
sa(dp16
g6
I807
sg7
I78
sass."
Ligature2: "halnHalantFormsinBengalilookup12 subtable" u099a u09cd
EndChar

StartChar: u099b_u09cd.haln
Encoding: 26 -1 26
GlifName: u099b_u09cd.haln
Width: 905
VWidth: 0
GlyphClass: 3
Flags: W
HStem: -3 90<833 867 833 867> 232 58<95.5 123> 260 74<351 408.5 336 413> 392 86<660 693> 626 63<341.5 409> 741 78<0 14.5 0 23 23 96.5 0 142> 741 69<579 685 579 771>
VStem: 142 68<686.5 741> 147 71<325 424> 524 71<468 477 468 526.5> 633 78<148.5 183.5 148.5 203> 775 98<324.5 359> 826 78<850 893.5>
AnchorPoint: "Anchor1" 654 32 basechar 0
AnchorPoint: "Anchor0" 370 840 basechar 0
AnchorPoint: "Anchor-0" 370 840 basechar 0
AnchorPoint: "Anchor-1" 654 32 basechar 0
LayerCount: 2
Fore
SplineSet
743 -63 m 257
 806 -30 l 257
 806 -30 854 -54 874 -80 c 256
 891 -102 898 -148 898 -148 c 257
 830 -170 l 257
 830 -170 819 -132 804 -113 c 256
 785 -89 743 -63 743 -63 c 257
218 476 m 257
 221 382 300 334 372 334 c 256
 445 334 524 386 524 480 c 256
 524 573 448 626 370 626 c 256
 285 626 218 565 218 483 c 258
 218 476 l 257
-69 742 m 257
 -69 742 -39 756 -20 775 c 256
 -13 781 -6 796 0 807 c 257
 0 819 l 257
 23 819 l 258
 170 819 424 811 424 811 c 257
 495 811 554 810 604 810 c 256
 766 810 826 818 826 882 c 256
 826 905 807 941 788 957 c 258
 771 971 l 257
 792 995 l 258
 803 1008 816 1019 820 1019 c 256
 863 1019 904 928 904 881 c 256
 904 808 857 741 771 741 c 258
 210 741 l 257
 210 622 l 257
 238 638 l 257
 258 655 316 689 367 689 c 256
 495 689 595 588 595 477 c 258
 595 468 l 257
 620 473 649 478 671 478 c 256
 767 478 873 429 873 340 c 256
 873 246 778 260 729 211 c 256
 716 198 711 188 711 179 c 256
 711 118 799 87 867 87 c 257
 867 -3 l 257
 754 -3 633 64 633 171 c 256
 633 235 673 244 717 270 c 256
 741 285 775 309 775 340 c 256
 775 378 715 392 671 392 c 256
 647 392 610 380 589 380 c 256
 583 378 585 378 569 368 c 257
 569 369 l 257
 528 300 451 260 375 260 c 256
 327 260 278 276 239 311 c 256
 229 320 221 325 218 325 c 257
 218 325 180 254 163 244 c 256
 145 233 138 232 108 232 c 256
 66 232 3 262 3 289 c 256
 3 291 35 321 40 321 c 256
 53 321 85 290 106 290 c 256
 143 290 147 316 147 370 c 258
 147 424 l 258
 147 512 142 632 142 741 c 257
 91 741 40 741 -11 741 c 256
 -30 741 -49 741 -69 742 c 257
EndSplineSet
PickledDataWithLists: "(dp0
Vcom.fontlab.hintData
p1
(dp2
Vhhints
p3
(lp4
(dp5
Vposition
p6
I-3
sVwidth
p7
I90
sa(dp8
g6
I232
sg7
I58
sa(dp9
g6
I260
sg7
I74
sa(dp10
g6
I392
sg7
I86
sa(dp11
g6
I626
sg7
I63
sa(dp12
g6
I741
sg7
I78
sa(dp13
g6
I741
sg7
I69
sasVvhints
p14
(lp15
(dp16
g6
I142
sg7
I68
sa(dp17
g6
I147
sg7
I71
sa(dp18
g6
I524
sg7
I71
sa(dp19
g6
I633
sg7
I78
sa(dp20
g6
I775
sg7
I98
sa(dp21
g6
I826
sg7
I78
sass."
Ligature2: "halnHalantFormsinBengalilookup12 subtable" u099b u09cd
EndChar

StartChar: u099c_u09cd.haln
Encoding: 27 -1 27
GlifName: u099c_u09cd.haln
Width: 1207
VWidth: 0
GlyphClass: 3
Flags: W
HStem: 6 84<349.5 439.5 349.5 456.5> 133 68<942.5 1014 942.5 1033.5> 217 104<205.5 223> 351 81<913 913.5> 401 89<326 369.5 326 382.5> 576 89<618.5 657 605.5 657.5> 578 69<707 935 707 762> 742 79<-69 802 433 433 433 802 802 811> 1003 20<1102 1125.5>
VStem: 76 86<161.5 188 161.5 234.5> 201 90<533.5 593.5 533.5 594> 267 93<153.5 176.5> 691 86<408.5 506 367.5 517.5> 799 73<261 302.5 261 325> 1101 82<331.5 420.5> 1111 78<865.5 898.5>
AnchorPoint: "Anchor1" 794 36 basechar 0
AnchorPoint: "Anchor0" 502 832 basechar 0
AnchorPoint: "Anchor-0" 502 832 basechar 0
AnchorPoint: "Anchor-1" 794 36 basechar 0
LayerCount: 2
Fore
SplineSet
937 70 m 257
 1000 103 l 257
 1000 103 1048 81 1068 55 c 256
 1085 33 1092 -15 1092 -15 c 257
 1024 -37 l 257
 1024 -37 1013 1 998 20 c 256
 979 44 937 70 937 70 c 257
162 177 m 256
 162 146 191 121 222 121 c 256
 225 121 229 122 232 122 c 256
 252 125 267 138 267 161 c 256
 267 192 239 217 207 217 c 256
 204 217 200 216 197 216 c 256
 178 213 162 199 162 177 c 256
-69 742 m 257
 -69 742 -39 756 -20 775 c 256
 -15 780 -10 789 -5 798 c 257
 -5 821 l 257
 802 821 l 258
 876 821 933 820 976 820 c 256
 1103 820 1111 828 1111 887 c 256
 1111 910 1092 947 1073 963 c 258
 1056 977 l 257
 1076 1001 l 258
 1087 1014 1100 1023 1104 1023 c 256
 1147 1023 1189 932 1189 885 c 256
 1189 846 1174 810 1144 782 c 256
 1104 743 1108 743 811 742 c 257
 433 742 l 257
 375 716 291 635 291 552 c 256
 291 515 308 490 344 490 c 256
 395 490 435 527 464 562 c 256
 509 616 566 665 645 665 c 256
 669 665 691 657 707 647 c 257
 743 647 l 257
 780 653 809 661 834 661 c 256
 1038 661 1183 531 1183 370 c 256
 1183 244 1099 133 968 133 c 256
 875 133 799 195 799 281 c 256
 799 369 877 432 949 432 c 256
 996 432 1034 398 1034 359 c 256
 1034 322 1006 295 975 295 c 256
 935 295 936 328 914 350 c 258
 914 350 914 351 913 351 c 256
 898 351 872 315 872 290 c 256
 872 232 915 201 970 201 c 256
 1058 201 1101 290 1101 373 c 256
 1101 468 1045 526 975 559 c 258
 935 578 l 257
 762 578 l 257
 773 553 777 524 777 488 c 256
 777 247 570 6 343 6 c 256
 230 6 76 76 76 198 c 256
 76 271 139 321 209 321 c 256
 293 321 360 248 360 168 c 256
 360 139 349 113 328 92 c 257
 337 91 345 90 354 90 c 256
 525 90 691 320 691 497 c 256
 691 538 676 576 639 576 c 256
 598 576 567 545 543 517 c 256
 491 456 428 401 337 401 c 256
 250 401 201 469 201 555 c 256
 201 633 250 698 293 741 c 257
 192 741 90 741 -11 741 c 256
 -30 741 -49 741 -69 742 c 257
EndSplineSet
PickledDataWithLists: "(dp0
Vcom.fontlab.hintData
p1
(dp2
Vhhints
p3
(lp4
(dp5
Vposition
p6
I6
sVwidth
p7
I84
sa(dp8
g6
I133
sg7
I68
sa(dp9
g6
I217
sg7
I104
sa(dp10
g6
I351
sg7
I81
sa(dp11
g6
I401
sg7
I89
sa(dp12
g6
I576
sg7
I89
sa(dp13
g6
I578
sg7
I69
sa(dp14
g6
I742
sg7
I79
sa(dp15
g6
I1003
sg7
I20
sasVvhints
p16
(lp17
(dp18
g6
I76
sg7
I86
sa(dp19
g6
I201
sg7
I90
sa(dp20
g6
I267
sg7
I93
sa(dp21
g6
I691
sg7
I86
sa(dp22
g6
I799
sg7
I73
sa(dp23
g6
I1101
sg7
I82
sa(dp24
g6
I1111
sg7
I78
sass."
Ligature2: "halnHalantFormsinBengalilookup12 subtable" u099c u09cd
EndChar

StartChar: u099d_u09cd.haln
Encoding: 28 -1 28
GlifName: u099d_u09cd.haln
Width: 1143
VWidth: 0
GlyphClass: 3
Flags: W
HStem: 41 83<698.5 746.5 698.5 758> 82 99<296.5 382.5> 224 78<850 948 845.5 972> 598 97<353.5 396.5 353.5 413> 741 76<-20.5 425 3 11> 742 66
VStem: 34 98<321 455 321 477.5> 573 86<596 741> 1003 78<855 895.5> 1039 91<542 650 519 651>
AnchorPoint: "Anchor1" 734 10 basechar 0
AnchorPoint: "Anchor0" 556 846 basechar 0
AnchorPoint: "Anchor-0" 556 846 basechar 0
AnchorPoint: "Anchor-1" 734 10 basechar 0
LayerCount: 2
Fore
SplineSet
889 29 m 257
 952 62 l 257
 952 62 1000 38 1020 12 c 256
 1037 -10 1044 -56 1044 -56 c 257
 976 -78 l 257
 976 -78 965 -40 950 -21 c 256
 931 3 889 29 889 29 c 257
659 564 m 257
 686 474 796 302 895 302 c 256
 1001 302 1039 487 1039 597 c 256
 1039 705 964 722 859 722 c 257
 859 741 l 257
 659 741 l 257
 659 564 l 257
132 389 m 256
 132 253 244 181 349 181 c 256
 451 181 567 249 570 382 c 257
 570 394 l 258
 570 510 473 598 353 598 c 256
 242 598 132 521 132 389 c 256
-69 742 m 257
 -69 742 -39 756 -20 775 c 256
 -12 782 -4 801 3 812 c 257
 3 817 l 257
 425 817 l 258
 510 817 634 808 745 808 c 256
 884 808 1003 822 1003 884 c 256
 1003 907 984 944 965 960 c 258
 948 974 l 257
 968 997 l 258
 978 1008 989 1009 995 1009 c 256
 1049 1009 1081 934 1081 882 c 256
 1081 828 1048 776 1001 756 c 257
 1077 705 1130 703 1130 597 c 256
 1130 441 1049 224 895 224 c 256
 805 224 687 365 658 435 c 257
 658 364 657 308 657 266 c 256
 657 134 665 124 732 124 c 256
 761 124 807 169 825 169 c 256
 832 169 879 127 879 123 c 256
 879 86 787 41 729 41 c 256
 625 41 598 104 574 175 c 257
 574 175 574 176 573 176 c 256
 569 176 556 166 542 154 c 256
 486 105 417 82 348 82 c 256
 196 82 34 193 34 388 c 256
 34 567 155 645 323 690 c 256
 335 693 347 695 360 695 c 256
 433 695 515 647 543 622 c 258
 573 596 l 257
 573 742 l 257
 11 742 l 257
 11 741 l 257
 -11 741 l 258
 -30 741 -49 741 -69 742 c 257
EndSplineSet
PickledDataWithLists: "(dp0
Vcom.fontlab.hintData
p1
(dp2
Vhhints
p3
(lp4
(dp5
Vposition
p6
I41
sVwidth
p7
I83
sa(dp8
g6
I82
sg7
I99
sa(dp9
g6
I224
sg7
I78
sa(dp10
g6
I598
sg7
I97
sa(dp11
g6
I741
sg7
I76
sa(dp12
g6
I742
sg7
I66
sasVvhints
p13
(lp14
(dp15
g6
I34
sg7
I98
sa(dp16
g6
I573
sg7
I86
sa(dp17
g6
I1003
sg7
I78
sa(dp18
g6
I1039
sg7
I91
sass."
Ligature2: "halnHalantFormsinBengalilookup12 subtable" u099d u09cd
EndChar

StartChar: u099e_u09cd.haln
Encoding: 29 -1 29
GlifName: u099e_u09cd.haln
Width: 961
VWidth: 0
GlyphClass: 3
Flags: W
HStem: 44 92<295.5 391.5> 161 87<773 802 773 823.5> 174 80<192 205.5 177.5 228> 358 76<176.5 206.5> 551 124<559 565.5> 704 81<766.5 797.5> 733 78<554 593.5 533 594.5>
VStem: 62 78<291 321.5 291 329.5> 244 78<292.5 320.5> 429 78<661 686 661 707> 650 78<508 508 508 642 642 665> 856 74<302 352 588.5 641.5>
AnchorPoint: "Anchor1" 632 50 basechar 0
AnchorPoint: "Anchor0" 612 834 basechar 0
AnchorPoint: "Anchor-0" 612 834 basechar 0
AnchorPoint: "Anchor-1" 632 50 basechar 0
LayerCount: 2
Fore
SplineSet
728 508 m 257
 789 514 856 558 856 619 c 256
 856 664 820 704 775 704 c 256
 758 704 745 699 728 690 c 257
 728 508 l 257
719 68 m 257
 782 101 l 257
 782 101 830 77 850 51 c 256
 867 29 874 -17 874 -17 c 257
 806 -39 l 257
 806 -39 795 -1 780 18 c 256
 761 42 719 68 719 68 c 257
712 279 m 257
 741 258 764 248 782 248 c 256
 822 248 856 282 856 322 c 256
 856 382 790 426 729 432 c 257
 729 294 l 257
 712 279 l 257
140 306 m 256
 140 276 163 254 192 254 c 256
 219 254 244 279 244 306 c 256
 244 335 221 358 192 358 c 256
 161 358 140 337 140 306 c 256
62 292 m 256
 62 367 118 434 192 434 c 256
 264 434 322 376 322 304 c 256
 322 232 264 174 192 174 c 257
 221 149 269 136 322 136 c 256
 475 136 592 261 650 376 c 257
 650 642 l 258
 650 688 617 733 572 733 c 256
 536 733 507 704 507 668 c 256
 507 654 510 638 520 636 c 257
 524 658 546 675 572 675 c 256
 603 675 624 647 624 616 c 256
 624 578 585 551 546 551 c 256
 483 551 429 606 429 668 c 256
 429 746 494 811 572 811 c 256
 615 811 652 795 682 762 c 257
 682 759 l 257
 713 759 741 785 775 785 c 256
 862 785 930 707 930 619 c 256
 930 543 878 491 820 470 c 257
 878 449 930 396 930 322 c 256
 930 237 865 161 782 161 c 256
 754 161 704 202 674 218 c 257
 674 218 672 233 672 245 c 257
 650 226 l 257
 590 131 461 44 322 44 c 256
 183 44 62 154 62 292 c 256
EndSplineSet
PickledDataWithLists: "(dp0
Vcom.fontlab.hintData
p1
(dp2
Vhhints
p3
(lp4
(dp5
Vposition
p6
I44
sVwidth
p7
I92
sa(dp8
g6
I161
sg7
I87
sa(dp9
g6
I174
sg7
I80
sa(dp10
g6
I358
sg7
I76
sa(dp11
g6
I551
sg7
I124
sa(dp12
g6
I704
sg7
I81
sa(dp13
g6
I733
sg7
I78
sasVvhints
p14
(lp15
(dp16
g6
I62
sg7
I78
sa(dp17
g6
I244
sg7
I78
sa(dp18
g6
I429
sg7
I78
sa(dp19
g6
I650
sg7
I78
sa(dp20
g6
I856
sg7
I74
sass."
Ligature2: "halnHalantFormsinBengalilookup12 subtable" u099e u09cd
EndChar

StartChar: u099f_u09cd.haln
Encoding: 30 -1 30
GlifName: u099f_u09cd.haln
Width: 897
VWidth: 0
GlyphClass: 3
Flags: W
HStem: 34 83<135.5 176.5 135.5 205> 74 106<499.5 601 484 610> 258 75<543 577 543 592.5> 437 95<563.5 591.5> 611 69<656 674 656 656> 736 74<511 567 511 755> 974 57<481.5 506.5 481.5 513> 1113 78<481.5 503.5>
VStem: 209 98<382 733 733 733> 348 83<469.5 523.5> 384 60<1056 1076 1056 1109.5> 591 69<996.5 1019.5> 620 96<378 412> 775 73<373.5 445 283 496> 810 78<876.5 892.5>
AnchorPoint: "Anchor1" 554 36 basechar 0
AnchorPoint: "Anchor0" 192 854 basechar 0
AnchorPoint: "Anchor-0" 192 854 basechar 0
AnchorPoint: "Anchor-1" 554 36 basechar 0
LayerCount: 2
Fore
SplineSet
673 36 m 257
 736 69 l 257
 736 69 784 45 804 19 c 256
 821 -3 828 -49 828 -49 c 257
 760 -71 l 257
 760 -71 749 -33 734 -14 c 256
 715 10 673 36 673 36 c 257
512 375 m 256
 512 350 529 333 557 333 c 256
 597 333 620 357 620 399 c 256
 620 425 603 437 580 437 c 256
 547 437 512 414 512 375 c 256
444 1067 m 256
 444 1045 469 1031 494 1031 c 256
 519 1031 543 1050 543 1073 c 256
 543 1094 516 1113 491 1113 c 256
 472 1113 444 1085 444 1067 c 256
-69 742 m 257
 -69 742 -39 756 -20 775 c 256
 -17 777 -15 782 -12 786 c 257
 -12 820 l 257
 -12 820 233 815 367 812 c 257
 367 818 495 901 528 915 c 256
 559 928 591 975 591 1018 c 256
 591 1021 591 1023 589 1023 c 256
 586 1023 581 1018 573 1009 c 256
 551 985 527 974 499 974 c 256
 436 974 384 1027 384 1082 c 256
 384 1137 440 1191 510 1191 c 256
 589 1191 660 1125 660 1023 c 256
 660 937 621 892 563 862 c 256
 555 858 516 822 511 810 c 257
 567 810 l 257
 815 829 784 816 801 849 c 256
 806 858 810 872 810 881 c 256
 810 904 791 941 772 957 c 258
 755 971 l 257
 775 995 l 258
 786 1008 799 1019 803 1019 c 256
 846 1019 888 927 888 880 c 256
 888 809 839 736 755 736 c 258
 307 736 l 257
 307 382 l 257
 310 253 434 180 534 180 c 256
 668 180 775 295 775 452 c 256
 775 540 683 605 674 611 c 257
 656 611 l 257
 649 612 649 614 642 614 c 256
 616 614 576 605 576 605 c 258
 495 593 431 577 431 481 c 256
 431 458 446 408 452 408 c 256
 455 408 459 416 462 432 c 256
 475 488 513 532 583 532 c 256
 649 532 716 489 716 414 c 256
 716 325 634 258 551 258 c 256
 445 258 355 350 349 456 c 256
 349 460 348 465 348 470 c 256
 348 577 439 680 548 680 c 258
 675 680 l 258
 714 680 848 509 848 381 c 256
 848 185 686 74 534 74 c 256
 465 74 396 97 340 146 c 256
 326 159 313 168 309 168 c 257
 309 167 l 257
 285 96 257 34 153 34 c 256
 94 34 3 78 3 115 c 256
 3 119 50 161 57 161 c 256
 75 161 121 117 150 117 c 256
 203 117 209 130 209 206 c 258
 209 733 l 257
 -12 733 l 257
 -12 741 l 257
 -31 741 -50 741 -69 742 c 257
EndSplineSet
PickledDataWithLists: "(dp0
Vcom.fontlab.hintData
p1
(dp2
Vhhints
p3
(lp4
(dp5
Vposition
p6
I34
sVwidth
p7
I83
sa(dp8
g6
I74
sg7
I106
sa(dp9
g6
I258
sg7
I75
sa(dp10
g6
I437
sg7
I95
sa(dp11
g6
I611
sg7
I69
sa(dp12
g6
I736
sg7
I74
sa(dp13
g6
I974
sg7
I57
sa(dp14
g6
I1113
sg7
I78
sasVvhints
p15
(lp16
(dp17
g6
I209
sg7
I98
sa(dp18
g6
I348
sg7
I83
sa(dp19
g6
I384
sg7
I60
sa(dp20
g6
I591
sg7
I69
sa(dp21
g6
I620
sg7
I96
sa(dp22
g6
I775
sg7
I73
sa(dp23
g6
I810
sg7
I78
sass."
Ligature2: "halnHalantFormsinBengalilookup12 subtable" u099f u09cd zwnj
EndChar

StartChar: u09a0_u09cd.haln
Encoding: 31 -1 31
GlifName: u09a0_u09cd.haln
Width: 539
VWidth: 0
GlyphClass: 3
Flags: W
HStem: 42 136<235.5 325 235.5 358.5> 421 126<193 300 224 290> 741 78<-20.5 185 0 11 446 452> 978 49<272 290.5 272 303.5> 1092 50<271.5 290.5>
VStem: 91 57<283.5 343 283.5 373.5> 117 57<964 978 978 996 957 1022> 199 50<1050 1060> 314 48<1049.5 1068.5> 432 76<400.5 479> 481 56<909 912 911.5 912>
AnchorPoint: "Anchor1" 310 2 basechar 0
AnchorPoint: "Anchor0" 358 852 basechar 0
AnchorPoint: "Anchor-0" 358 852 basechar 0
AnchorPoint: "Anchor-1" 310 2 basechar 0
LayerCount: 2
Fore
SplineSet
358 -28 m 257
 421 5 l 257
 421 5 469 -19 489 -45 c 256
 506 -67 513 -113 513 -113 c 257
 445 -135 l 257
 445 -135 434 -97 419 -78 c 256
 400 -54 358 -28 358 -28 c 257
249 1059 m 256
 249 1041 263 1027 281 1027 c 256
 300 1027 314 1040 314 1059 c 256
 314 1078 300 1092 281 1092 c 256
 262 1092 249 1078 249 1059 c 256
148 320 m 256
 148 247 200 178 271 178 c 256
 379 178 432 340 432 461 c 256
 432 497 427 529 422 562 c 257
 404 496 363 421 290 421 c 258
 214 421 l 258
 172 421 148 366 148 320 c 256
-69 742 m 257
 -69 742 -39 756 -20 775 c 256
 -13 781 -6 796 0 807 c 257
 0 819 l 257
 185 819 l 257
 158 861 117 901 117 964 c 258
 117 978 l 258
 117 1066 185 1142 272 1142 c 256
 320 1142 362 1107 362 1060 c 256
 362 1015 326 978 281 978 c 256
 236 978 199 1015 199 1060 c 257
 183 1040 174 1014 174 978 c 256
 174 936 188 897 218 858 c 256
 233 838 262 837 296 819 c 257
 441 819 l 258
 463 819 481 879 481 909 c 256
 481 910 481 911 481 912 c 256
 480 930 482 925 462 956 c 257
 500 1023 l 257
 532 975 537 987 537 912 c 256
 537 849 492 741 446 741 c 257
 487 699 508 575 508 466 c 256
 508 290 436 42 281 42 c 256
 160 42 91 194 91 325 c 256
 91 422 136 547 224 547 c 258
 300 547 l 258
 380 547 369 652 394 689 c 257
 388 689 380 706 362 729 c 256
 353 741 259 744 169 744 c 256
 102 744 36 742 11 741 c 257
 -11 741 l 258
 -30 741 -49 741 -69 742 c 257
EndSplineSet
PickledDataWithLists: "(dp0
Vcom.fontlab.hintData
p1
(dp2
Vhhints
p3
(lp4
(dp5
Vposition
p6
I42
sVwidth
p7
I136
sa(dp8
g6
I421
sg7
I126
sa(dp9
g6
I741
sg7
I78
sa(dp10
g6
I978
sg7
I49
sa(dp11
g6
I1092
sg7
I50
sasVvhints
p12
(lp13
(dp14
g6
I91
sg7
I57
sa(dp15
g6
I117
sg7
I57
sa(dp16
g6
I199
sg7
I50
sa(dp17
g6
I314
sg7
I48
sa(dp18
g6
I432
sg7
I76
sa(dp19
g6
I481
sg7
I56
sass."
Ligature2: "halnHalantFormsinBengalilookup12 subtable" u09a0 u09cd
EndChar

StartChar: u09a1_u09cd.haln
Encoding: 32 -1 32
GlifName: u09a1_u09cd.haln
Width: 728
VWidth: 0
GlyphClass: 3
Flags: W
HStem: 46 72<276.5 366.5 276.5 383.5> 233 83<132.5 150> 385 76<253 296.5 253 309> 535 75<545.5 584> 738 80<0 7 8 221 0 7> 1003 20<641 664.5>
VStem: 3 86<185.5 208.5 185.5 243> 127 90<497 550> 194 93<175 198.5> 617 86<391 459 459 463 355.5 484> 650 78<862.5 895.5>
AnchorPoint: "Anchor1" 360 38 basechar 0
AnchorPoint: "Anchor0" 314 850 basechar 0
AnchorPoint: "Anchor-0" 314 850 basechar 0
AnchorPoint: "Anchor-1" 360 38 basechar 0
LayerCount: 2
Fore
SplineSet
487 27 m 257
 550 60 l 257
 550 60 598 36 618 10 c 256
 635 -12 642 -58 642 -58 c 257
 574 -80 l 257
 574 -80 563 -42 548 -23 c 256
 529 1 487 27 487 27 c 257
89 199 m 256
 89 172 118 151 149 151 c 258
 159 151 l 257
 179 154 194 165 194 185 c 256
 194 212 166 233 134 233 c 256
 131 233 127 232 124 232 c 256
 105 229 89 218 89 199 c 256
-69 742 m 257
 -69 742 -39 756 -20 775 c 256
 -13 782 -7 798 0 809 c 257
 0 818 l 257
 7 818 l 257
 8 819 l 257
 8 818 l 257
 341 818 l 258
 415 818 472 817 515 817 c 256
 642 817 650 825 650 884 c 256
 650 907 631 944 612 960 c 258
 595 974 l 257
 615 998 l 258
 626 1011 639 1023 643 1023 c 256
 686 1023 728 929 728 882 c 256
 728 843 713 807 683 779 c 256
 644 741 646 757 378 739 c 256
 303 734 217 591 217 513 c 256
 217 481 235 461 271 461 c 256
 322 461 362 493 391 523 c 256
 437 570 492 610 573 610 c 256
 663 610 702 542 703 463 c 257
 703 459 l 258
 703 252 497 46 270 46 c 256
 155 46 3 106 3 212 c 256
 3 274 67 316 136 316 c 256
 221 316 287 252 287 183 c 256
 287 158 276 138 255 120 c 257
 264 119 272 118 281 118 c 256
 452 118 617 315 617 467 c 256
 617 501 602 535 566 535 c 256
 525 535 494 508 470 484 c 256
 418 431 355 385 263 385 c 256
 176 385 127 443 127 516 c 256
 127 584 179 694 221 738 c 257
 0 738 l 257
 0 741 l 257
 -4 741 -7 741 -11 741 c 256
 -30 741 -49 741 -69 742 c 257
EndSplineSet
PickledDataWithLists: "(dp0
Vcom.fontlab.hintData
p1
(dp2
Vhhints
p3
(lp4
(dp5
Vposition
p6
I46
sVwidth
p7
I72
sa(dp8
g6
I233
sg7
I83
sa(dp9
g6
I385
sg7
I76
sa(dp10
g6
I535
sg7
I75
sa(dp11
g6
I738
sg7
I80
sa(dp12
g6
I1003
sg7
I20
sasVvhints
p13
(lp14
(dp15
g6
I3
sg7
I86
sa(dp16
g6
I127
sg7
I90
sa(dp17
g6
I194
sg7
I93
sa(dp18
g6
I617
sg7
I86
sa(dp19
g6
I650
sg7
I78
sass."
Ligature2: "halnHalantFormsinBengalilookup12 subtable" u09a1 u09cd
EndChar

StartChar: u09a2_u09cd.haln
Encoding: 33 -1 33
GlifName: u09a2_u09cd.haln
Width: 906
VWidth: 0
GlyphClass: 3
Flags: W
HStem: 27 20<710 710> 55 84<130.5 172 130.5 201> 97 106<494.5 596.5 479.5 605> 280 61<554.5 568 554.5 589> 444 110<576.5 603> 632 71 749 70<304 636 636 715.5 304 304> 1008 20<796 819>
VStem: 208 96<405 741 741 741> 344 82<479 552 493.5 547> 632 79<392 420> 771 73<396 468.5 306 518.5> 805 78<857.5 901.5>
AnchorPoint: "Anchor1" 556 62 basechar 0
AnchorPoint: "Anchor0" 438 860 basechar 0
AnchorPoint: "Anchor-0" 438 860 basechar 0
AnchorPoint: "Anchor-1" 556 62 basechar 0
LayerCount: 2
Fore
SplineSet
647 14 m 257
 710 47 l 257
 710 47 758 23 778 -3 c 256
 795 -25 802 -71 802 -71 c 257
 734 -93 l 257
 734 -93 723 -55 708 -36 c 256
 689 -12 647 14 647 14 c 257
524 383 m 256
 524 358 541 341 568 341 c 256
 609 345 632 363 632 407 c 256
 632 433 614 444 592 444 c 256
 561 444 524 422 524 383 c 256
-69 742 m 257
 -69 742 -39 756 -20 775 c 256
 -15 780 -9 790 -4 800 c 257
 -4 819 l 257
 209 819 423 819 636 819 c 256
 795 819 805 825 805 890 c 256
 805 913 786 949 767 965 c 258
 750 980 l 257
 771 1003 l 258
 782 1016 794 1028 798 1028 c 256
 840 1028 883 936 883 889 c 256
 883 814 836 749 750 749 c 258
 304 749 l 257
 304 405 l 257
 307 275 429 203 530 203 c 256
 663 203 771 318 771 474 c 256
 771 563 679 625 670 632 c 257
 652 632 l 257
 645 633 645 635 638 636 c 256
 612 636 571 627 571 627 c 258
 491 616 426 599 426 505 c 256
 426 482 441 430 448 430 c 256
 451 430 453 439 457 454 c 256
 470 510 509 554 579 554 c 256
 645 554 711 511 711 437 c 256
 711 347 631 280 547 280 c 256
 441 280 350 372 344 479 c 257
 344 493 l 258
 344 601 435 703 544 703 c 256
 551 703 663 697 670 696 c 256
 711 696 844 533 844 404 c 256
 844 208 681 97 529 97 c 256
 460 97 391 120 335 169 c 256
 321 181 308 191 305 191 c 257
 305 190 l 257
 281 119 253 55 149 55 c 256
 89 55 0 99 0 138 c 256
 0 142 46 184 53 184 c 256
 71 184 116 139 145 139 c 256
 199 139 208 149 208 230 c 258
 208 741 l 257
 135 741 62 741 -11 741 c 256
 -30 741 -49 741 -69 742 c 257
EndSplineSet
PickledDataWithLists: "(dp0
Vcom.fontlab.hintData
p1
(dp2
Vhhints
p3
(lp4
(dp5
Vposition
p6
I27
sVwidth
p7
I20
sa(dp8
g6
I55
sg7
I84
sa(dp9
g6
I97
sg7
I106
sa(dp10
g6
I280
sg7
I61
sa(dp11
g6
I444
sg7
I110
sa(dp12
g6
I632
sg7
I71
sa(dp13
g6
I749
sg7
I70
sa(dp14
g6
I1008
sg7
I20
sasVvhints
p15
(lp16
(dp17
g6
I208
sg7
I96
sa(dp18
g6
I344
sg7
I82
sa(dp19
g6
I632
sg7
I79
sa(dp20
g6
I771
sg7
I73
sa(dp21
g6
I805
sg7
I78
sass."
Ligature2: "halnHalantFormsinBengalilookup12 subtable" u09a2 u09cd
EndChar

StartChar: u09a3_u09cd.haln
Encoding: 34 -1 34
GlifName: u09a3_u09cd.haln
Width: 704
VWidth: 0
GlyphClass: 3
Flags: W
HStem: 49 78<533.5 566.5 525.5 576.5> 299 68<177 248 177 268> 517 81<218.5 286> 741 78<256 465> 1003 20<617 640.5>
VStem: 7 82<498.5 587.5 498.5 611> 319 72<425.5 466.5> 401 88<458 468 468 741 741 741> 626 78<857 895.5>
AnchorPoint: "Anchor1" 486 18 basechar 0
AnchorPoint: "Anchor0" 284 856 basechar 0
AnchorPoint: "Anchor-0" 284 856 basechar 0
AnchorPoint: "Anchor-1" 486 18 basechar 0
LayerCount: 2
Fore
SplineSet
533 -35 m 257
 596 0 l 257
 596 0 644 -26 664 -52 c 256
 681 -74 688 -120 688 -120 c 257
 620 -142 l 257
 620 -142 609 -104 594 -85 c 256
 575 -61 533 -35 533 -35 c 257
7 536 m 256
 7 686 131 812 321 817 c 256
 350 818 391 819 448 819 c 258
 465 819 l 257
 557 822 626 830 626 884 c 256
 626 907 607 944 588 960 c 258
 571 974 l 257
 591 997 l 258
 602 1010 615 1023 619 1023 c 256
 662 1023 704 929 704 882 c 256
 704 794 599 746 489 742 c 257
 489 468 l 258
 489 389 488 327 488 280 c 256
 488 151 496 127 555 127 c 256
 578 127 615 146 631 165 c 258
 645 182 l 257
 669 162 l 258
 682 151 693 138 693 134 c 256
 693 91 600 49 553 49 c 256
 514 49 478 64 450 94 c 256
 411 134 410 161 401 458 c 257
 401 741 l 257
 256 741 l 257
 216 725 l 257
 146 692 89 635 89 540 c 256
 89 457 133 367 221 367 c 256
 275 367 319 397 319 454 c 256
 319 479 294 517 278 517 c 256
 277 517 277 516 277 516 c 258
 255 494 257 461 216 461 c 256
 184 461 156 487 156 525 c 256
 156 564 195 598 242 598 c 256
 313 598 391 534 391 447 c 256
 391 361 314 299 222 299 c 256
 91 299 7 411 7 536 c 256
EndSplineSet
PickledDataWithLists: "(dp0
Vcom.fontlab.hintData
p1
(dp2
Vhhints
p3
(lp4
(dp5
Vposition
p6
I49
sVwidth
p7
I78
sa(dp8
g6
I299
sg7
I68
sa(dp9
g6
I517
sg7
I81
sa(dp10
g6
I741
sg7
I78
sa(dp11
g6
I1003
sg7
I20
sasVvhints
p12
(lp13
(dp14
g6
I7
sg7
I82
sa(dp15
g6
I319
sg7
I72
sa(dp16
g6
I401
sg7
I88
sa(dp17
g6
I626
sg7
I78
sass."
Ligature2: "halnHalantFormsinBengalilookup12 subtable" u09a3 u09cd
EndChar

StartChar: u09a4_u09cd.haln
Encoding: 35 -1 35
GlifName: u09a4_u09cd.haln
Width: 790
VWidth: 0
GlyphClass: 3
Flags: W
HStem: 41 90<297.5 363 297.5 368> 384 95<154.5 178 153 208.5> 597 107<550.5 592.5> 610 95<151 177.5> 740 78<0 7 8 403 403 413 0 7> 1003 20<705 727>
VStem: 0 100<310 388.5 309.5 496> 208 98<544 554.5> 385 107<543 560.5 527.5 587.5> 661 97<341.5 472> 712 78<862.5 896.5>
AnchorPoint: "Anchor1" 402 -29 basechar 0
AnchorPoint: "Anchor0" 390 829 basechar 0
AnchorPoint: "Anchor-0" 390 829 basechar 0
AnchorPoint: "Anchor-1" 402 -29 basechar 0
LayerCount: 2
Fore
SplineSet
543 -19 m 257
 606 14 l 257
 606 14 654 -10 674 -36 c 256
 691 -58 698 -104 698 -104 c 257
 630 -126 l 257
 630 -126 619 -88 604 -69 c 256
 585 -45 543 -19 543 -19 c 257
116 544 m 256
 116 507 141 479 165 479 c 256
 191 479 208 512 208 541 c 256
 208 568 192 610 163 610 c 256
 139 610 116 579 116 544 c 256
0 420 m 256
 0 572 51 705 169 705 c 256
 243 705 306 635 306 544 c 256
 304 451 251 384 166 384 c 256
 143 384 120 394 104 394 c 256
 101 394 100 392 100 385 c 256
 100 234 235 131 360 131 c 256
 366 131 373 132 379 132 c 256
 554 145 661 255 661 428 c 256
 661 516 619 597 566 597 c 256
 535 597 492 579 492 542 c 256
 492 513 537 490 562 446 c 258
 575 423 l 257
 532 424 488 426 445 427 c 257
 428 444 l 258
 405 468 386 513 385 543 c 256
 385 632 463 704 557 704 c 256
 695 704 758 571 758 427 c 256
 758 210 607 53 388 42 c 256
 380 42 372 41 364 41 c 256
 145 41 0 200 0 420 c 256
-69 742 m 257
 -69 742 -39 756 -20 775 c 256
 -14 781 -6 794 0 805 c 257
 0 818 l 257
 7 818 l 257
 8 819 l 257
 8 818 l 257
 403 818 l 258
 480 818 538 817 581 817 c 256
 705 817 712 825 712 885 c 256
 712 908 693 945 674 961 c 258
 657 975 l 257
 677 998 l 258
 689 1012 701 1022 705 1023 c 256
 749 1023 790 929 790 882 c 256
 790 843 775 808 745 780 c 256
 705 741 710 742 413 740 c 257
 0 740 l 257
 0 741 l 257
 -11 741 l 258
 -30 741 -49 741 -69 742 c 257
EndSplineSet
PickledDataWithLists: "(dp0
Vcom.fontlab.hintData
p1
(dp2
Vhhints
p3
(lp4
(dp5
Vposition
p6
I41
sVwidth
p7
I90
sa(dp8
g6
I384
sg7
I95
sa(dp9
g6
I597
sg7
I107
sa(dp10
g6
I610
sg7
I95
sa(dp11
g6
I740
sg7
I78
sa(dp12
g6
I1003
sg7
I20
sasVvhints
p13
(lp14
(dp15
g6
I0
sg7
I100
sa(dp16
g6
I208
sg7
I98
sa(dp17
g6
I385
sg7
I107
sa(dp18
g6
I661
sg7
I97
sa(dp19
g6
I712
sg7
I78
sass."
Ligature2: "halnHalantFormsinBengalilookup12 subtable" u09a4 u09cd
EndChar

StartChar: u09a5_u09cd.haln
Encoding: 36 -1 36
GlifName: u09a5_u09cd.haln
Width: 951
VWidth: 0
GlyphClass: 3
Flags: W
HStem: 30 111<249.5 358.5 249.5 374.5> 58 94<785 802.5 785 819> 452 85<147.5 169.5 147.5 181.5> 619 51<144.5 169.5> 733 61<130 176> 741 78<710 762 615 809 615 710> 1003 20<848 872>
VStem: 0 63<610.5 654 610.5 690.5> 9 110<227 282 227 339> 207 66<574 589.5 534.5 594> 428 103<590.5 610> 615 95<355 485 485 741> 856 79<879.5 897>
AnchorPoint: "Anchor1" 654 19 basechar 0
AnchorPoint: "Anchor0" 360 859 basechar 0
AnchorPoint: "Anchor-0" 360 859 basechar 0
AnchorPoint: "Anchor-1" 654 19 basechar 0
LayerCount: 2
Fore
SplineSet
769 -56 m 257
 832 -23 l 257
 832 -23 880 -47 900 -73 c 256
 917 -95 924 -141 924 -141 c 257
 856 -163 l 257
 856 -163 845 -125 830 -106 c 256
 811 -82 769 -56 769 -56 c 257
108 577 m 256
 108 555 135 537 160 537 c 256
 179 537 207 565 207 583 c 256
 207 605 182 619 157 619 c 256
 132 619 108 600 108 577 c 256
0 641 m 258
 0 654 l 258
 0 727 74 794 164 794 c 256
 207 794 291 791 291 791 c 258
 317 791 480 724 498 713 c 256
 523 698 531 662 531 622 c 256
 531 461 426 388 269 349 c 256
 205 333 119 311 119 253 c 256
 119 201 204 141 295 141 c 256
 422 141 533 196 589 311 c 257
 615 355 l 257
 615 819 l 257
 710 819 l 258
 814 819 823 822 823 823 c 258
 846 846 l 257
 846 846 856 874 856 885 c 256
 856 909 838 945 818 961 c 258
 801 975 l 257
 822 999 l 258
 833 1012 846 1023 850 1023 c 256
 894 1023 935 931 935 884 c 256
 935 845 890 781 890 781 c 257
 890 778 882 769 881 765 c 256
 879 759 867 744 864 742 c 256
 863 741 863 741 809 741 c 258
 710 741 l 257
 710 485 l 258
 710 188 711 184 752 163 c 256
 763 157 780 152 790 152 c 256
 815 152 862 175 882 197 c 257
 899 214 l 257
 925 189 l 258
 939 175 951 158 951 152 c 256
 951 116 851 58 787 58 c 256
 712 58 621 115 621 170 c 256
 621 180 620 186 616 186 c 256
 611 186 602 176 588 157 c 256
 540 88 434 30 315 30 c 256
 166 30 9 102 9 248 c 256
 9 430 283 444 386 530 c 257
 386 530 428 574 428 607 c 256
 428 613 426 617 423 622 c 256
 384 683 318 695 262 710 c 257
 250 715 l 257
 250 717 196 733 156 733 c 256
 104 733 66 677 66 626 c 256
 66 624 63 614 63 611 c 256
 63 610 64 610 64 610 c 257
 67 610 76 623 84 632 c 256
 106 657 130 670 158 670 c 256
 221 670 273 617 273 562 c 256
 273 507 216 452 147 452 c 256
 54 452 0 523 0 641 c 258
EndSplineSet
PickledDataWithLists: "(dp0
Vcom.fontlab.hintData
p1
(dp2
Vhhints
p3
(lp4
(dp5
Vposition
p6
I30
sVwidth
p7
I111
sa(dp8
g6
I58
sg7
I94
sa(dp9
g6
I452
sg7
I85
sa(dp10
g6
I619
sg7
I51
sa(dp11
g6
I733
sg7
I61
sa(dp12
g6
I741
sg7
I78
sa(dp13
g6
I1003
sg7
I20
sasVvhints
p14
(lp15
(dp16
g6
I0
sg7
I63
sa(dp17
g6
I9
sg7
I110
sa(dp18
g6
I207
sg7
I66
sa(dp19
g6
I428
sg7
I103
sa(dp20
g6
I615
sg7
I95
sa(dp21
g6
I856
sg7
I79
sass."
Ligature2: "halnHalantFormsinBengalilookup12 subtable" u09a5 u09cd
EndChar

StartChar: u09a6_u09cd.haln
Encoding: 37 -1 37
GlifName: u09a6_u09cd.haln
Width: 562
VWidth: 0
GlyphClass: 3
Flags: W
HStem: 58 84<305.5 358 305.5 372> 739 78<0 6 8 132 0 6 207 419 207 207> 1003 20<477 477>
VStem: 124 98<176.5 210 176.5 240.5> 132 75<568 739 568 739 568 739> 288 78<391.5 426> 484 78<864 901>
AnchorPoint: "Anchor1" 348 1 basechar 0
AnchorPoint: "Anchor0" 204 865 basechar 0
AnchorPoint: "Anchor-0" 204 865 basechar 0
AnchorPoint: "Anchor-1" 348 1 basechar 0
LayerCount: 2
Fore
SplineSet
401 -47 m 257
 464 -14 l 257
 464 -14 512 -38 532 -64 c 256
 549 -86 556 -132 556 -132 c 257
 488 -154 l 257
 488 -154 477 -116 462 -97 c 256
 443 -73 401 -47 401 -47 c 257
-69 742 m 257
 -69 742 -39 756 -20 775 c 256
 -13 781 -6 796 0 807 c 257
 0 817 l 257
 6 817 l 257
 7 818 7 819 8 819 c 257
 8 817 l 257
 419 817 l 258
 455 817 484 846 484 882 c 256
 484 920 457 952 432 973 c 257
 477 1023 l 257
 517 989 562 944 562 882 c 256
 562 804 497 739 419 739 c 258
 207 739 l 257
 207 568 l 257
 286 548 366 485 366 402 c 256
 366 340 325 291 282 266 c 256
 258 251 222 226 222 194 c 256
 222 159 285 142 326 142 c 256
 390 142 450 167 496 194 c 257
 542 130 l 257
 490 87 418 58 326 58 c 256
 233 58 124 108 124 194 c 256
 124 287 220 314 268 362 c 256
 281 375 288 387 288 396 c 256
 288 456 200 486 132 486 c 257
 132 739 l 257
 0 739 l 257
 0 741 l 257
 -11 741 l 258
 -30 741 -49 741 -69 742 c 257
EndSplineSet
PickledDataWithLists: "(dp0
Vcom.fontlab.hintData
p1
(dp2
Vhhints
p3
(lp4
(dp5
Vposition
p6
I58
sVwidth
p7
I84
sa(dp8
g6
I739
sg7
I78
sa(dp9
g6
I1003
sg7
I20
sasVvhints
p10
(lp11
(dp12
g6
I124
sg7
I98
sa(dp13
g6
I132
sg7
I75
sa(dp14
g6
I288
sg7
I78
sa(dp15
g6
I484
sg7
I78
sass."
Ligature2: "halnHalantFormsinBengalilookup12 subtable" u09a6 u09cd
EndChar

StartChar: u09a7_u09cd.haln
Encoding: 38 -1 38
GlifName: u09a7_u09cd.haln
Width: 694
VWidth: 0
GlyphClass: 3
Flags: W
HStem: 58 93<240.5 315.5 240.5 322.5 565.5 603.5> 400 95<448 448> 557 78<241 252 241 272.5> 728 110<195 232> 778 39 1003 20<562 587>
VStem: 56 86<224.5 303 592 658> 278 74<670.5 696> 448 74<257 400 400 400 495 767> 571 79<866 895.5>
AnchorPoint: "Anchor1" 372 7 basechar 0
AnchorPoint: "Anchor0" 240 877 basechar 0
AnchorPoint: "Anchor-0" 240 877 basechar 0
AnchorPoint: "Anchor-1" 372 7 basechar 0
LayerCount: 2
Fore
SplineSet
529 -18 m 257
 592 15 l 257
 592 15 640 -9 660 -35 c 256
 677 -57 684 -103 684 -103 c 257
 616 -125 l 257
 616 -125 605 -87 590 -68 c 256
 571 -44 529 -18 529 -18 c 257
142 260 m 256
 142 189 203 151 278 151 c 256
 353 151 407 207 448 257 c 257
 448 400 l 257
 307 395 142 398 142 260 c 256
56 260 m 256
 56 346 101 421 161 448 c 257
 101 475 56 549 56 635 c 256
 56 734 116 838 211 838 c 256
 292 838 352 764 352 682 c 256
 352 617 304 557 241 557 c 257
 241 635 l 257
 263 635 278 659 278 682 c 256
 278 710 247 728 217 728 c 256
 173 728 142 681 142 635 c 256
 142 497 307 500 448 495 c 257
 448 817 l 257
 490 819 571 823 571 884 c 256
 571 907 552 944 533 960 c 258
 516 974 l 257
 536 997 l 258
 547 1010 560 1023 564 1023 c 256
 610 1023 650 924 650 875 c 256
 650 857 629 768 590 768 c 256
 587 768 590 778 571 778 c 256
 561 778 546 775 522 767 c 257
 522 229 l 258
 522 190 547 151 584 151 c 256
 623 151 652 185 671 214 c 257
 720 151 l 257
 690 106 646 58 584 58 c 256
 532 58 490 96 467 142 c 257
 424 99 360 58 285 58 c 256
 154 58 56 132 56 260 c 256
EndSplineSet
PickledDataWithLists: "(dp0
Vcom.fontlab.hintData
p1
(dp2
Vhhints
p3
(lp4
(dp5
Vposition
p6
I58
sVwidth
p7
I93
sa(dp8
g6
I400
sg7
I95
sa(dp9
g6
I557
sg7
I78
sa(dp10
g6
I728
sg7
I110
sa(dp11
g6
I778
sg7
I39
sa(dp12
g6
I1003
sg7
I20
sasVvhints
p13
(lp14
(dp15
g6
I56
sg7
I86
sa(dp16
g6
I278
sg7
I74
sa(dp17
g6
I448
sg7
I74
sa(dp18
g6
I571
sg7
I79
sass."
Ligature2: "halnHalantFormsinBengalilookup12 subtable" u09a7 u09cd
EndChar

StartChar: u09a8_u09cd.haln
Encoding: 39 -1 39
GlifName: u09a8_u09cd.haln
Width: 653
VWidth: 0
GlyphClass: 3
Flags: W
HStem: 83 98<426.5 476.5 426.5 530.5> 432 98<146.5 176> 734 85<0 245>
VStem: 3 98<272.5 342 272.5 364.5> 554 99<356 420.5> 564 84<858 901>
AnchorPoint: "Anchor1" 402 43 basechar 0
AnchorPoint: "Anchor0" 288 847 basechar 0
AnchorPoint: "Anchor-0" 288 847 basechar 0
AnchorPoint: "Anchor-1" 402 43 basechar 0
LayerCount: 2
Fore
SplineSet
491 -47 m 257
 554 -14 l 257
 554 -14 602 -38 622 -64 c 256
 639 -86 646 -132 646 -132 c 257
 578 -154 l 257
 578 -154 567 -116 552 -97 c 256
 533 -73 491 -47 491 -47 c 257
-69 742 m 257
 -69 742 -39 756 -20 775 c 256
 -13 782 -7 800 0 811 c 257
 0 819 l 257
 245 819 l 258
 307 819 356 818 397 818 c 256
 538 818 564 826 564 890 c 256
 564 912 544 954 524 973 c 258
 509 987 l 257
 532 1011 l 258
 545 1024 559 1034 565 1034 c 256
 597 1034 648 945 648 888 c 256
 648 821 576 740 526 740 c 256
 521 740 519 738 519 735 c 256
 519 725 543 703 566 686 c 256
 612 652 653 489 653 386 c 256
 653 244 604 83 457 83 c 256
 271 83 313 345 205 418 c 256
 192 427 181 432 171 432 c 256
 122 432 101 368 101 316 c 256
 101 229 132 144 183 93 c 257
 209 68 l 257
 173 41 l 258
 153 26 135 15 132 15 c 256
 75 15 3 233 3 309 c 256
 3 420 58 530 170 530 c 256
 255 530 334 448 367 314 c 256
 382 256 400 181 453 181 c 256
 500 181 548 256 553 338 c 256
 553 345 554 352 554 360 c 256
 554 481 497 664 401 711 c 257
 361 730 l 257
 241 731 120 733 0 734 c 257
 0 741 l 257
 -11 741 l 258
 -30 741 -49 741 -69 742 c 257
EndSplineSet
PickledDataWithLists: "(dp0
Vcom.fontlab.hintData
p1
(dp2
Vhhints
p3
(lp4
(dp5
Vposition
p6
I83
sVwidth
p7
I98
sa(dp8
g6
I432
sg7
I98
sa(dp9
g6
I734
sg7
I85
sasVvhints
p10
(lp11
(dp12
g6
I3
sg7
I98
sa(dp13
g6
I554
sg7
I99
sa(dp14
g6
I564
sg7
I84
sass."
Ligature2: "halnHalantFormsinBengalilookup12 subtable" u09a8 u09cd
EndChar

StartChar: u09aa_u09cd.haln
Encoding: 40 -1 40
GlifName: u09aa_u09cd.haln
Width: 826
VWidth: 0
GlyphClass: 3
Flags: W
HStem: 45 78<671 705.5 671 720.5> 161 91<244 338> 448 78<232 266> 720 91<233.5 321.5 204.5 336> 738 77<612 653> 1003 20<685 708.5>
VStem: 28 94<313.5 376 313.5 379 599.5 661.5> 534 78<231 291 693 738> 694 78<881 894.5>
AnchorPoint: "Anchor1" 576 7 basechar 0
AnchorPoint: "Anchor0" 312 859 basechar 0
AnchorPoint: "Anchor-0" 312 859 basechar 0
AnchorPoint: "Anchor-1" 576 7 basechar 0
LayerCount: 2
Fore
SplineSet
648 -27 m 257
 711 6 l 257
 711 6 759 -18 779 -44 c 256
 796 -66 803 -112 803 -112 c 257
 735 -134 l 257
 735 -134 724 -96 709 -77 c 256
 690 -53 648 -27 648 -27 c 257
122 344 m 256
 122 283 210 252 278 252 c 256
 414 252 538 353 538 486 c 256
 538 622 406 720 266 720 c 256
 201 720 122 691 122 632 c 256
 122 567 197 526 266 526 c 257
 266 448 l 257
 198 448 122 408 122 344 c 256
28 343 m 256
 28 415 84 469 144 485 c 257
 83 501 28 556 28 629 c 256
 28 739 147 811 262 811 c 256
 381 811 477 761 534 693 c 257
 534 816 l 257
 559 816 l 258
 588 816 611 815 630 815 c 256
 676 815 694 823 694 883 c 256
 694 906 675 943 656 959 c 258
 639 973 l 257
 659 996 l 258
 670 1009 683 1023 687 1023 c 256
 730 1023 772 928 772 881 c 256
 771 776 718 739 612 738 c 257
 612 189 l 258
 612 152 652 123 690 123 c 256
 721 123 750 153 768 175 c 257
 820 137 l 257
 795 93 751 45 690 45 c 256
 563 45 534 171 534 291 c 257
 473 218 402 161 274 161 c 256
 155 161 28 231 28 343 c 256
EndSplineSet
PickledDataWithLists: "(dp0
Vcom.fontlab.hintData
p1
(dp2
Vhhints
p3
(lp4
(dp5
Vposition
p6
I45
sVwidth
p7
I78
sa(dp8
g6
I161
sg7
I91
sa(dp9
g6
I448
sg7
I78
sa(dp10
g6
I720
sg7
I91
sa(dp11
g6
I738
sg7
I77
sa(dp12
g6
I1003
sg7
I20
sasVvhints
p13
(lp14
(dp15
g6
I28
sg7
I94
sa(dp16
g6
I534
sg7
I78
sa(dp17
g6
I694
sg7
I78
sass."
Ligature2: "halnHalantFormsinBengalilookup12 subtable" u09aa u09cd
EndChar

StartChar: u09ab_u09cd.haln
Encoding: 41 -1 41
GlifName: u09ab_u09cd.haln
Width: 1140
VWidth: 0
GlyphClass: 3
Flags: W
HStem: 23 20<738 738> 61 98<548 588.5 548 600> 97 106<241.5 297 241.5 300> 141 68<867 938 867 955> 359 81<837.5 838.5> 586 75<508 860 508 508> 742 75<-69 6 159 159 159 262 262 403.5> 1003 20<1048 1071.5>
VStem: 63 98<247 286.5 247 324> 226 78<513 554.5> 427 81<262 586> 724 72<267.5 308.5 267.5 332.5> 1026 80<340.5 427.5 304.5 429> 1057 78<879.5 895.5>
AnchorPoint: "Anchor1" 552 19 basechar 0
AnchorPoint: "Anchor0" 576 877 basechar 0
AnchorPoint: "Anchor-0" 576 877 basechar 0
AnchorPoint: "Anchor-1" 552 19 basechar 0
LayerCount: 2
Fore
SplineSet
675 10 m 257
 738 43 l 257
 738 43 786 19 806 -7 c 256
 823 -29 830 -75 830 -75 c 257
 762 -97 l 257
 762 -97 751 -59 736 -40 c 256
 717 -16 675 10 675 10 c 257
-69 742 m 257
 -69 742 -39 756 -20 775 c 256
 -12 782 -4 801 3 812 c 257
 3 817 l 257
 6 817 l 257
 7 818 7 819 8 819 c 257
 8 817 l 257
 262 817 l 258
 545 817 1031 817 1049 851 c 256
 1054 860 1057 875 1057 884 c 256
 1057 907 1038 944 1019 960 c 258
 1002 974 l 257
 1022 997 l 258
 1033 1010 1046 1023 1050 1023 c 256
 1093 1023 1135 929 1135 882 c 256
 1135 743 970 742 814 742 c 258
 159 742 l 257
 237 711 304 621 304 528 c 256
 304 451 267 391 220 357 c 256
 194 338 161 305 161 268 c 256
 161 226 218 203 265 203 c 256
 329 203 384 232 427 262 c 257
 427 661 l 257
 866 661 l 257
 994 614 1106 491 1106 364 c 256
 1106 245 1017 141 893 141 c 256
 800 141 724 203 724 289 c 256
 724 376 802 440 873 440 c 256
 920 440 959 406 959 367 c 256
 959 329 931 303 899 303 c 256
 857 303 861 336 839 358 c 258
 839 358 839 359 838 359 c 256
 822 359 796 321 796 296 c 256
 796 239 840 209 894 209 c 256
 982 209 1026 299 1026 382 c 256
 1026 476 969 534 900 567 c 258
 860 586 l 257
 508 586 l 257
 508 240 l 258
 508 199 528 159 568 159 c 256
 609 159 639 193 659 223 c 257
 711 167 l 257
 679 121 632 61 568 61 c 256
 512 61 463 104 442 154 c 257
 399 121 335 97 265 97 c 256
 161 97 63 167 63 268 c 256
 63 380 157 416 207 478 c 256
 220 494 226 507 226 519 c 256
 226 590 145 632 70 632 c 257
 70 738 l 257
 3 738 l 257
 3 741 l 257
 -11 741 l 258
 -30 741 -49 741 -69 742 c 257
EndSplineSet
PickledDataWithLists: "(dp0
Vcom.fontlab.hintData
p1
(dp2
Vhhints
p3
(lp4
(dp5
Vposition
p6
I23
sVwidth
p7
I20
sa(dp8
g6
I61
sg7
I98
sa(dp9
g6
I97
sg7
I106
sa(dp10
g6
I141
sg7
I68
sa(dp11
g6
I359
sg7
I81
sa(dp12
g6
I586
sg7
I75
sa(dp13
g6
I742
sg7
I75
sa(dp14
g6
I1003
sg7
I20
sasVvhints
p15
(lp16
(dp17
g6
I63
sg7
I98
sa(dp18
g6
I226
sg7
I78
sa(dp19
g6
I427
sg7
I81
sa(dp20
g6
I724
sg7
I72
sa(dp21
g6
I1026
sg7
I80
sa(dp22
g6
I1057
sg7
I78
sass."
Ligature2: "halnHalantFormsinBengalilookup12 subtable" u09ab u09cd
EndChar

StartChar: u09ac_u09cd.haln
Encoding: 42 -1 42
GlifName: u09ac_u09cd.haln
Width: 870
VWidth: 0
GlyphClass: 3
Flags: W
HStem: 47 83<713 746.5 713 758> 88 99<296.5 382.5> 604 97<353.5 396.5 353.5 413> 739 78<3 6 8 425 425 463.5 3 6> 1003 20<780 803.5>
VStem: 34 98<327 461 327 483.5> 573 106<602 739 739 739> 789 78<854 895.5>
AnchorPoint: "Anchor1" 522 49 basechar 0
AnchorPoint: "Anchor0" 432 829 basechar 0
AnchorPoint: "Anchor-0" 432 829 basechar 0
AnchorPoint: "Anchor-1" 522 49 basechar 0
LayerCount: 2
Fore
SplineSet
720 -23 m 257
 783 10 l 257
 783 10 831 -14 851 -40 c 256
 868 -62 875 -108 875 -108 c 257
 807 -130 l 257
 807 -130 796 -92 781 -73 c 256
 762 -49 720 -23 720 -23 c 257
132 395 m 256
 132 259 244 187 349 187 c 256
 451 187 567 255 570 388 c 257
 570 400 l 258
 570 516 473 604 353 604 c 256
 242 604 132 527 132 395 c 256
-69 742 m 257
 -69 742 -39 756 -20 775 c 256
 -12 782 -4 801 3 812 c 257
 3 817 l 257
 6 817 l 257
 7 818 7 819 8 819 c 257
 8 817 l 257
 425 817 l 258
 502 817 563 816 612 816 c 256
 751 816 789 824 789 884 c 256
 789 907 770 944 751 960 c 258
 734 974 l 257
 754 997 l 258
 765 1010 778 1023 782 1023 c 256
 825 1023 867 929 867 882 c 256
 867 823 866 769 797 747 c 256
 778 741 697 742 679 741 c 257
 679 186 l 258
 679 143 694 130 732 130 c 256
 761 130 807 175 825 175 c 256
 832 175 879 133 879 129 c 256
 879 92 787 47 729 47 c 256
 625 47 598 110 574 181 c 257
 574 181 574 182 573 182 c 256
 569 182 556 172 542 160 c 256
 486 111 417 88 348 88 c 256
 196 88 34 199 34 394 c 256
 34 573 155 651 323 696 c 256
 335 699 347 701 360 701 c 256
 433 701 515 653 543 628 c 258
 573 602 l 257
 573 739 l 257
 3 739 l 257
 3 741 l 257
 -11 741 l 258
 -30 741 -49 741 -69 742 c 257
EndSplineSet
PickledDataWithLists: "(dp0
Vcom.fontlab.hintData
p1
(dp2
Vhhints
p3
(lp4
(dp5
Vposition
p6
I47
sVwidth
p7
I83
sa(dp8
g6
I88
sg7
I99
sa(dp9
g6
I604
sg7
I97
sa(dp10
g6
I739
sg7
I78
sa(dp11
g6
I1003
sg7
I20
sasVvhints
p12
(lp13
(dp14
g6
I34
sg7
I98
sa(dp15
g6
I573
sg7
I106
sa(dp16
g6
I789
sg7
I78
sass."
Ligature2: "halnHalantFormsinBengalilookup12 subtable" u09ac u09cd
EndChar

StartChar: u09ad_u09cd.haln
Encoding: 43 -1 43
GlifName: u09ad_u09cd.haln
Width: 711
VWidth: 0
GlyphClass: 3
Flags: W
HStem: 55 78<275.5 355 275.5 372.5> 269 72<153.5 168.5> 414 80<255.5 294 255.5 306> 541 75<284.5 295 273 326> 571 80<517 552.5> 739 78<0 6 8 293 0 6 316 320 320 330 316 316> 1003 20<620 643.5>
VStem: 30 84<219 243.5 219 264> 142 81<545 550.5 545 596.5> 209 76<208 231.5> 328 74<643.5 662 614 664> 582 78<418 516.5> 629 78<862.5 895.5>
AnchorPoint: "Anchor1" 348 43 basechar 0
AnchorPoint: "Anchor0" 318 853 basechar 0
AnchorPoint: "Anchor-0" 318 853 basechar 0
AnchorPoint: "Anchor-1" 348 43 basechar 0
LayerCount: 2
Fore
SplineSet
457 28 m 257
 520 61 l 257
 520 61 568 37 588 11 c 256
 605 -11 612 -57 612 -57 c 257
 544 -79 l 257
 544 -79 533 -41 518 -22 c 256
 499 2 457 28 457 28 c 257
240 648 m 256
 240 629 262 616 284 616 c 256
 306 616 328 633 328 654 c 256
 328 674 305 690 281 690 c 256
 264 690 240 665 240 648 c 256
114 234 m 256
 114 204 140 181 170 181 c 256
 173 181 175 182 177 182 c 256
 194 185 209 198 209 218 c 256
 209 245 182 269 155 269 c 256
 152 269 149 268 146 268 c 256
 130 265 114 253 114 234 c 256
-69 742 m 257
 -69 742 -39 756 -20 775 c 256
 -13 781 -6 796 0 807 c 257
 0 817 l 257
 6 817 l 257
 7 818 7 819 8 819 c 257
 8 817 l 257
 320 817 l 258
 397 817 455 816 498 816 c 256
 622 816 629 824 629 884 c 256
 629 907 610 944 591 960 c 258
 574 974 l 257
 594 997 l 258
 605 1010 618 1023 622 1023 c 256
 665 1023 707 929 707 882 c 256
 707 843 692 807 662 779 c 256
 622 740 627 741 330 739 c 257
 316 739 l 257
 365 730 402 685 402 639 c 256
 402 589 355 541 297 541 c 256
 272 541 250 551 231 572 c 256
 232 573 230 576 227 579 c 257
 224 568 223 556 223 545 c 256
 224 514 240 494 271 494 c 256
 317 494 352 526 379 558 c 256
 419 607 472 651 543 651 c 256
 625 651 660 577 660 491 c 256
 660 275 474 55 271 55 c 256
 169 55 30 121 30 232 c 256
 30 296 86 341 149 341 c 256
 226 341 285 274 285 202 c 256
 285 176 276 154 257 135 c 257
 264 134 272 133 279 133 c 256
 431 133 582 338 582 498 c 256
 582 535 570 571 535 571 c 256
 499 571 472 542 450 517 c 256
 404 462 347 414 265 414 c 256
 187 414 142 474 142 552 c 256
 142 641 217 730 293 739 c 257
 0 739 l 257
 0 741 l 257
 -11 741 l 258
 -30 741 -49 741 -69 742 c 257
EndSplineSet
PickledDataWithLists: "(dp0
Vcom.fontlab.hintData
p1
(dp2
Vhhints
p3
(lp4
(dp5
Vposition
p6
I55
sVwidth
p7
I78
sa(dp8
g6
I269
sg7
I72
sa(dp9
g6
I414
sg7
I80
sa(dp10
g6
I541
sg7
I75
sa(dp11
g6
I571
sg7
I80
sa(dp12
g6
I739
sg7
I78
sa(dp13
g6
I1003
sg7
I20
sasVvhints
p14
(lp15
(dp16
g6
I30
sg7
I84
sa(dp17
g6
I142
sg7
I81
sa(dp18
g6
I209
sg7
I76
sa(dp19
g6
I328
sg7
I74
sa(dp20
g6
I582
sg7
I78
sa(dp21
g6
I629
sg7
I78
sass."
Ligature2: "halnHalantFormsinBengalilookup12 subtable" u09ad u09cd
EndChar

StartChar: u09ae_u09cd.haln
Encoding: 44 -1 44
GlifName: u09ae_u09cd.haln
Width: 715
VWidth: 0
GlyphClass: 3
Flags: W
HStem: 25 78<183 231.5 183 259> 737 80<0 6 8 108 0 6> 1003 20<627 650.5>
VStem: 65 91<142.5 194.5 142.5 211.5> 312 72<409 482.5 409 485.5> 546 78<200 271> 585 65<632 653> 636 78<854 895.5>
AnchorPoint: "Anchor1" 456 -53 basechar 0
AnchorPoint: "Anchor0" 336 841 basechar 0
AnchorPoint: "Anchor-0" 336 841 basechar 0
AnchorPoint: "Anchor-1" 456 -53 basechar 0
LayerCount: 2
Fore
SplineSet
536 -30 m 257
 599 3 l 257
 599 3 647 -21 667 -47 c 256
 684 -69 691 -115 691 -115 c 257
 623 -137 l 257
 623 -137 612 -99 597 -80 c 256
 578 -56 536 -30 536 -30 c 257
248 739 m 257
 325 662 384 556 384 409 c 257
 425 426 459 451 488 480 c 257
 488 481 l 257
 488 481 575 594 575 603 c 257
 582 617 585 628 585 636 c 256
 585 670 500 701 452 740 c 257
 420 740 382 739 337 739 c 258
 248 739 l 257
156 155 m 256
 156 130 171 103 195 103 c 256
 268 103 305 230 312 311 c 257
 244 286 156 234 156 155 c 256
-69 742 m 257
 -69 742 -39 756 -20 775 c 256
 -13 781 -6 796 0 807 c 257
 0 817 l 257
 6 817 l 257
 7 818 7 819 8 819 c 257
 8 817 l 257
 327 817 l 258
 404 817 462 816 505 816 c 256
 629 816 636 824 636 884 c 256
 636 907 617 944 598 960 c 258
 581 974 l 257
 601 997 l 258
 612 1010 625 1023 629 1023 c 256
 672 1023 714 929 714 882 c 256
 714 797 665 747 561 742 c 257
 603 708 650 696 650 636 c 256
 650 565 609 511 566 474 c 257
 599 404 624 327 624 233 c 256
 624 136 561 64 494 25 c 257
 442 90 l 257
 490 119 546 167 546 233 c 256
 546 309 538 379 514 428 c 257
 475 396 435 364 390 344 c 257
 390 203 323 25 195 25 c 256
 123 25 65 83 65 155 c 256
 65 268 211 346 312 383 c 257
 312 588 238 631 108 737 c 257
 0 737 l 257
 0 741 l 257
 -11 741 l 258
 -30 741 -49 741 -69 742 c 257
EndSplineSet
PickledDataWithLists: "(dp0
Vcom.fontlab.hintData
p1
(dp2
Vhhints
p3
(lp4
(dp5
Vposition
p6
I25
sVwidth
p7
I78
sa(dp8
g6
I737
sg7
I80
sa(dp9
g6
I1003
sg7
I20
sasVvhints
p10
(lp11
(dp12
g6
I65
sg7
I91
sa(dp13
g6
I312
sg7
I72
sa(dp14
g6
I546
sg7
I78
sa(dp15
g6
I585
sg7
I65
sa(dp16
g6
I636
sg7
I78
sass."
Ligature2: "halnHalantFormsinBengalilookup12 subtable" u09ae u09cd
EndChar

StartChar: u09af_u09cd.haln
Encoding: 45 -1 45
GlifName: u09af_u09cd.haln
Width: 721
VWidth: 0
GlyphClass: 3
Flags: W
HStem: 22 20<628 628> 68 98<548 588.5 548 600> 104 106<241.5 297 241.5 300> 739 78<159 159 159 262 262 272> 1003 20<628 651.5>
VStem: 63 98<254 293.5 254 331> 226 78<520 561.5> 425 78<269 740 740 740> 637 78<854 895.5>
AnchorPoint: "Anchor1" 408 55 basechar 0
AnchorPoint: "Anchor0" 360 859 basechar 0
AnchorPoint: "Anchor-0" 360 859 basechar 0
AnchorPoint: "Anchor-1" 408 55 basechar 0
LayerCount: 2
Fore
SplineSet
565 9 m 257
 628 42 l 257
 628 42 676 18 696 -8 c 256
 713 -30 720 -76 720 -76 c 257
 652 -98 l 257
 652 -98 641 -60 626 -41 c 256
 607 -17 565 9 565 9 c 257
159 739 m 257
 238 708 304 629 304 535 c 256
 304 458 267 398 220 364 c 256
 194 345 161 312 161 275 c 256
 161 233 218 210 265 210 c 256
 329 210 382 239 425 269 c 257
 425 740 l 257
 386 739 336 739 272 739 c 258
 159 739 l 257
-69 742 m 257
 -69 742 -39 756 -20 775 c 256
 -12 782 -4 801 3 812 c 257
 3 817 l 257
 6 817 l 257
 7 818 7 819 8 819 c 257
 8 817 l 257
 262 817 l 258
 347 817 415 816 467 816 c 256
 598 816 637 824 637 884 c 256
 637 907 618 944 599 960 c 258
 582 974 l 257
 602 997 l 258
 613 1010 626 1023 630 1023 c 256
 673 1023 715 929 715 882 c 256
 715 769 630 749 503 742 c 257
 503 247 l 258
 503 206 528 166 568 166 c 256
 609 166 639 200 659 230 c 257
 711 174 l 257
 679 128 632 68 568 68 c 256
 512 68 463 111 442 161 c 257
 399 128 335 104 265 104 c 256
 161 104 63 174 63 275 c 256
 63 387 157 423 207 485 c 256
 220 501 226 514 226 526 c 256
 226 597 145 640 70 640 c 257
 70 738 l 257
 3 738 l 257
 3 741 l 257
 -11 741 l 258
 -30 741 -49 741 -69 742 c 257
EndSplineSet
PickledDataWithLists: "(dp0
Vcom.fontlab.hintData
p1
(dp2
Vhhints
p3
(lp4
(dp5
Vposition
p6
I22
sVwidth
p7
I20
sa(dp8
g6
I68
sg7
I98
sa(dp9
g6
I104
sg7
I106
sa(dp10
g6
I739
sg7
I78
sa(dp11
g6
I1003
sg7
I20
sasVvhints
p12
(lp13
(dp14
g6
I63
sg7
I98
sa(dp15
g6
I226
sg7
I78
sa(dp16
g6
I425
sg7
I78
sa(dp17
g6
I637
sg7
I78
sass."
Ligature2: "halnHalantFormsinBengalilookup12 subtable" u09af u09cd
EndChar

StartChar: u09b0_u09cd.haln
Encoding: 46 -1 46
GlifName: u09b0_u09cd.haln
Width: 870
VWidth: 0
GlyphClass: 3
Flags: W
HStem: -23 119<69 73> 47 83<713 746.5 713 758> 88 99<296.5 382.5> 604 97<353.5 396.5 353.5 413> 739 78<3 6 8 425 425 463.5 3 6> 1003 20<780 803.5>
VStem: 17 125<21.5 38.5> 34 98<327 461 327 483.5> 573 106<602 739 739 739> 789 78<854 895.5>
AnchorPoint: "Anchor1" 612 -47 basechar 0
AnchorPoint: "Anchor0" 402 859 basechar 0
AnchorPoint: "Anchor-0" 402 859 basechar 0
AnchorPoint: "Anchor-1" 612 -47 basechar 0
LayerCount: 2
Fore
SplineSet
697 -30 m 257
 760 3 l 257
 760 3 808 -21 828 -47 c 256
 845 -69 852 -115 852 -115 c 257
 784 -137 l 257
 784 -137 773 -99 758 -80 c 256
 739 -56 697 -30 697 -30 c 257
132 395 m 256
 132 259 244 187 349 187 c 256
 451 187 567 255 570 388 c 257
 570 400 l 258
 570 516 473 604 353 604 c 256
 242 604 132 527 132 395 c 256
17 19 m 256
 17 58 50 96 88 96 c 256
 122 96 142 68 142 40 c 256
 142 3 108 -21 73 -23 c 256
 45 -23 17 -10 17 19 c 256
-69 742 m 257
 -69 742 -39 756 -20 775 c 256
 -12 782 -4 801 3 812 c 257
 3 817 l 257
 6 817 l 257
 7 818 7 819 8 819 c 257
 8 817 l 257
 425 817 l 258
 502 817 563 816 612 816 c 256
 751 816 789 824 789 884 c 256
 789 907 770 944 751 960 c 258
 734 974 l 257
 754 997 l 258
 765 1010 778 1023 782 1023 c 256
 825 1023 867 929 867 882 c 256
 867 823 866 769 797 747 c 256
 778 741 697 742 679 741 c 257
 679 186 l 258
 679 143 694 130 732 130 c 256
 761 130 807 175 825 175 c 256
 832 175 879 133 879 129 c 256
 879 92 787 47 729 47 c 256
 625 47 598 110 574 181 c 257
 574 181 574 182 573 182 c 256
 569 182 556 172 542 160 c 256
 486 111 417 88 348 88 c 256
 196 88 34 199 34 394 c 256
 34 573 155 651 323 696 c 256
 335 699 347 701 360 701 c 256
 433 701 515 653 543 628 c 258
 573 602 l 257
 573 739 l 257
 3 739 l 257
 3 741 l 257
 -11 741 l 258
 -30 741 -49 741 -69 742 c 257
EndSplineSet
PickledDataWithLists: "(dp0
Vcom.fontlab.hintData
p1
(dp2
Vhhints
p3
(lp4
(dp5
Vposition
p6
I-23
sVwidth
p7
I119
sa(dp8
g6
I47
sg7
I83
sa(dp9
g6
I88
sg7
I99
sa(dp10
g6
I604
sg7
I97
sa(dp11
g6
I739
sg7
I78
sa(dp12
g6
I1003
sg7
I20
sasVvhints
p13
(lp14
(dp15
g6
I17
sg7
I125
sa(dp16
g6
I34
sg7
I98
sa(dp17
g6
I573
sg7
I106
sa(dp18
g6
I789
sg7
I78
sass."
Ligature2: "halnHalantFormsinBengalilookup12 subtable" u09b0 u09cd
EndChar

StartChar: u09b2_u09cd.haln
Encoding: 47 -1 47
GlifName: u09b2_u09cd.haln
Width: 1140
VWidth: 0
GlyphClass: 2
Flags: W
HStem: 45 68<252 323 252 343> 70 98<900.5 950.5 900.5 1004.5> 263 81<293.5 361> 487 98<632 650> 492 73<331 572> 730 89<-60 719 0 719 719 750 0 835>
VStem: 82 82<244.5 333.5 244.5 388.5> 394 72<171.5 212.5> 477 98<327.5 387.5> 1028 99<411 475.5> 1056 84<858 901>
AnchorPoint: "Anchor1" 894 -5 basechar 0
AnchorPoint: "Anchor0" 582 847 basechar 0
AnchorPoint: "Anchor-0" 582 847 basechar 0
AnchorPoint: "Anchor-1" 894 -5 basechar 0
LayerCount: 2
Fore
SplineSet
973 6 m 257
 1036 39 l 257
 1036 39 1084 15 1104 -11 c 256
 1121 -33 1128 -79 1128 -79 c 257
 1060 -101 l 257
 1060 -101 1049 -63 1034 -44 c 256
 1015 -20 973 6 973 6 c 257
-60 730 m 257
 0 819 l 257
 719 819 l 258
 781 819 832 818 874 818 c 256
 1020 818 1056 826 1056 890 c 256
 1056 912 1036 954 1016 973 c 258
 1001 987 l 257
 1024 1011 l 258
 1037 1024 1051 1034 1057 1034 c 256
 1089 1034 1140 945 1140 888 c 256
 1140 821 1050 740 1000 740 c 256
 995 740 993 738 993 735 c 256
 993 725 1017 703 1040 686 c 256
 1086 652 1127 544 1127 441 c 256
 1127 299 1078 70 931 70 c 256
 745 70 787 400 679 473 c 256
 666 482 655 487 645 487 c 256
 596 487 575 423 575 371 c 256
 575 284 606 199 657 148 c 257
 683 123 l 257
 647 96 l 258
 627 81 609 70 606 70 c 256
 549 70 477 288 477 364 c 256
 477 411 487 456 505 492 c 257
 331 492 l 257
 291 471 l 257
 221 438 164 381 164 286 c 256
 164 203 208 113 296 113 c 256
 350 113 394 143 394 200 c 256
 394 225 369 263 353 263 c 256
 352 263 352 262 352 262 c 258
 330 240 332 207 291 207 c 256
 259 207 231 233 231 271 c 256
 231 310 270 344 317 344 c 256
 388 344 466 280 466 193 c 256
 466 107 389 45 297 45 c 256
 166 45 82 157 82 282 c 256
 82 495 250 565 523 565 c 258
 572 565 l 257
 596 579 620 585 644 585 c 256
 729 585 807 435 841 301 c 256
 856 243 874 168 927 168 c 256
 974 168 1022 243 1027 325 c 256
 1027 332 1028 407 1028 415 c 256
 1028 536 971 664 875 711 c 257
 835 730 l 257
 -60 730 l 257
EndSplineSet
PickledDataWithLists: "(dp0
Vcom.fontlab.hintData
p1
(dp2
Vhhints
p3
(lp4
(dp5
Vposition
p6
I45
sVwidth
p7
I68
sa(dp8
g6
I70
sg7
I98
sa(dp9
g6
I263
sg7
I81
sa(dp10
g6
I487
sg7
I98
sa(dp11
g6
I492
sg7
I73
sa(dp12
g6
I730
sg7
I89
sasVvhints
p13
(lp14
(dp15
g6
I82
sg7
I82
sa(dp16
g6
I394
sg7
I72
sa(dp17
g6
I477
sg7
I98
sa(dp18
g6
I1028
sg7
I99
sa(dp19
g6
I1056
sg7
I84
sass."
Ligature2: "halnHalantFormsinBengalilookup12 subtable" u09b2 u09cd
EndChar

StartChar: u09b6_u09cd.haln
Encoding: 48 -1 48
GlifName: u09b6_u09cd.haln
Width: 1052
VWidth: 0
GlyphClass: 3
Flags: W
HStem: 47 78<887 918.5 879 930.5> 225 91<189.5 246.5 189.5 252.5 489 545> 524 91<189 242 164.5 247 493 545.5> 732 83<504 908 515 761> 1003 20<972 972>
VStem: 23 91<391.5 449 391.5 473.5> 322 91<392 448.5 392 449> 335 65<563 599.5> 621 91<392 448.5> 761 83<434 732 732 732> 972 78<862 900.5>
AnchorPoint: "Anchor1" 792 1 basechar 0
AnchorPoint: "Anchor0" 534 811 basechar 0
AnchorPoint: "Anchor-0" 534 811 basechar 0
AnchorPoint: "Anchor-1" 792 1 basechar 0
LayerCount: 2
Fore
SplineSet
865 -24 m 257
 928 9 l 257
 928 9 976 -15 996 -41 c 256
 1013 -63 1020 -109 1020 -109 c 257
 952 -131 l 257
 952 -131 941 -93 926 -74 c 256
 907 -50 865 -24 865 -24 c 257
413 420 m 256
 413 364 461 316 517 316 c 256
 573 316 621 364 621 420 c 256
 621 477 574 524 517 524 c 256
 460 524 413 477 413 420 c 256
114 420 m 256
 114 363 161 316 218 316 c 256
 275 316 322 363 322 420 c 256
 322 478 276 524 218 524 c 256
 160 524 114 478 114 420 c 256
23 420 m 256
 23 527 111 615 218 615 c 256
 266 615 304 589 335 563 c 257
 335 636 359 699 400 732 c 257
 515 815 l 257
 646 815 777 815 908 815 c 256
 944 815 972 844 972 880 c 256
 972 921 956 951 933 971 c 257
 972 1023 l 257
 1011 991 1050 942 1050 880 c 256
 1050 804 989 737 914 737 c 256
 891 737 867 737 844 737 c 257
 844 434 l 257
 843 345 841 282 841 237 c 256
 841 133 851 125 907 125 c 256
 930 125 967 144 983 163 c 258
 997 180 l 257
 1021 159 l 258
 1034 148 1045 136 1045 132 c 256
 1045 88 954 47 907 47 c 256
 867 47 830 62 802 92 c 256
 763 132 762 127 761 424 c 257
 761 732 l 257
 504 732 l 257
 443 710 400 644 400 563 c 257
 431 589 469 615 517 615 c 256
 624 615 712 527 712 420 c 256
 712 313 624 225 517 225 c 256
 449 225 395 269 368 316 c 257
 341 268 287 225 218 225 c 256
 111 225 23 313 23 420 c 256
EndSplineSet
PickledDataWithLists: "(dp0
Vcom.fontlab.hintData
p1
(dp2
Vhhints
p3
(lp4
(dp5
Vposition
p6
I47
sVwidth
p7
I78
sa(dp8
g6
I225
sg7
I91
sa(dp9
g6
I524
sg7
I91
sa(dp10
g6
I732
sg7
I83
sa(dp11
g6
I1003
sg7
I20
sasVvhints
p12
(lp13
(dp14
g6
I23
sg7
I91
sa(dp15
g6
I322
sg7
I91
sa(dp16
g6
I335
sg7
I65
sa(dp17
g6
I621
sg7
I91
sa(dp18
g6
I761
sg7
I83
sa(dp19
g6
I972
sg7
I78
sass."
Ligature2: "halnHalantFormsinBengalilookup12 subtable" u09b6 u09cd
EndChar

StartChar: u09b7_u09cd.haln
Encoding: 49 -1 49
GlifName: u09b7_u09cd.haln
Width: 721
VWidth: 0
GlyphClass: 3
Flags: W
HStem: 23 20<610 610> 68 98<548 588.5 548 600> 104 106<241.5 297 241.5 300> 739 78<159 159 159 262 262 272> 1003 20<628 651.5>
VStem: 63 98<254 309 254 331> 226 78<531.5 561.5> 425 78<269 372 372 372 490 740 740 740> 637 78<854 895.5>
AnchorPoint: "Anchor1" 456 19 basechar 0
AnchorPoint: "Anchor0" 312 853 basechar 0
AnchorPoint: "Anchor-0" 312 853 basechar 0
AnchorPoint: "Anchor-1" 456 19 basechar 0
LayerCount: 2
Fore
SplineSet
547 10 m 257
 610 43 l 257
 610 43 658 19 678 -7 c 256
 695 -29 702 -75 702 -75 c 257
 634 -97 l 257
 634 -97 623 -59 608 -40 c 256
 589 -16 547 10 547 10 c 257
161 275 m 256
 161 233 218 210 265 210 c 256
 329 210 382 239 425 269 c 257
 425 372 l 257
 400 377 383 408 353 419 c 256
 326 429 300 427 277 430 c 257
 249 379 161 343 161 275 c 256
159 739 m 257
 238 708 304 629 304 535 c 256
 304 528 304 522 303 515 c 257
 339 515 397 502 425 490 c 257
 425 740 l 257
 386 739 336 739 272 739 c 258
 159 739 l 257
3 738 m 257
 3 817 l 257
 262 817 l 258
 347 817 415 816 467 816 c 256
 598 816 637 824 637 884 c 256
 637 907 618 944 599 960 c 258
 582 974 l 257
 602 997 l 258
 613 1010 626 1023 630 1023 c 256
 673 1023 715 929 715 882 c 256
 715 769 630 749 503 742 c 257
 503 247 l 258
 503 206 528 166 568 166 c 256
 609 166 639 200 659 230 c 257
 711 174 l 257
 679 128 632 68 568 68 c 256
 512 68 463 111 442 161 c 257
 399 128 335 104 265 104 c 256
 161 104 63 174 63 275 c 256
 63 387 157 423 207 485 c 256
 220 501 226 514 226 526 c 256
 226 597 145 640 70 640 c 257
 70 738 l 257
 3 738 l 257
EndSplineSet
PickledDataWithLists: "(dp0
Vcom.fontlab.hintData
p1
(dp2
Vhhints
p3
(lp4
(dp5
Vposition
p6
I23
sVwidth
p7
I20
sa(dp8
g6
I68
sg7
I98
sa(dp9
g6
I104
sg7
I106
sa(dp10
g6
I739
sg7
I78
sa(dp11
g6
I1003
sg7
I20
sasVvhints
p12
(lp13
(dp14
g6
I63
sg7
I98
sa(dp15
g6
I226
sg7
I78
sa(dp16
g6
I425
sg7
I78
sa(dp17
g6
I637
sg7
I78
sass."
Ligature2: "halnHalantFormsinBengalilookup12 subtable" u09b7 u09cd
EndChar

StartChar: u09b8_u09cd.haln
Encoding: 50 -1 50
GlifName: u09b8_u09cd.haln
Width: 776
VWidth: 0
GlyphClass: 3
Flags: W
HStem: 61 78<604.5 637.5 598 647.5> 157 78<227 303.5 227 319> 741 79<-79 633 0 119 214 214 481 481> 1008 20<698 698>
VStem: 39 91<567 619.5 567 633.5> 403 159<200.5 353.5> 481 82<405 448 448 740 681 740> 698 78<867 904.5>
AnchorPoint: "Anchor1" 570 31 basechar 0
AnchorPoint: "Anchor0" 348 871 basechar 0
AnchorPoint: "Anchor-0" 348 871 basechar 0
AnchorPoint: "Anchor-1" 570 31 basechar 0
LayerCount: 2
Fore
SplineSet
607 -7 m 257
 670 26 l 257
 670 26 718 2 738 -24 c 256
 755 -46 762 -92 762 -92 c 257
 694 -114 l 257
 694 -114 683 -76 668 -57 c 256
 649 -33 607 -7 607 -7 c 257
-79 741 m 257
 -51 764 -16 764 0 820 c 257
 633 820 l 258
 669 820 698 849 698 885 c 256
 698 924 671 955 646 976 c 257
 698 1028 l 257
 737 995 776 949 776 885 c 256
 776 807 711 742 633 742 c 258
 213 742 l 257
 214 741 l 257
 170 740 130 640 130 599 c 256
 130 535 224 501 292 495 c 256
 376 488 449 446 481 382 c 257
 481 502 481 621 481 741 c 257
 483 740 l 257
 563 740 l 257
 563 448 l 258
 563 362 562 300 562 255 c 256
 562 146 570 139 626 139 c 256
 649 139 686 158 702 177 c 258
 716 194 l 257
 740 174 l 258
 753 163 764 150 764 146 c 256
 764 103 671 61 624 61 c 256
 585 61 549 76 521 106 c 256
 492 137 485 141 483 271 c 257
 454 201 365 157 273 157 c 256
 150 157 57 239 0 320 c 257
 65 365 l 257
 109 303 181 235 273 235 c 256
 334 235 403 269 403 326 c 256
 403 381 335 412 279 417 c 256
 169 427 39 491 39 599 c 256
 39 668 59 724 119 741 c 257
 53 741 -13 741 -79 741 c 257
EndSplineSet
PickledDataWithLists: "(dp0
Vcom.fontlab.hintData
p1
(dp2
Vhhints
p3
(lp4
(dp5
Vposition
p6
I61
sVwidth
p7
I78
sa(dp8
g6
I157
sg7
I78
sa(dp9
g6
I741
sg7
I79
sa(dp10
g6
I1008
sg7
I20
sasVvhints
p11
(lp12
(dp13
g6
I39
sg7
I91
sa(dp14
g6
I403
sg7
I159
sa(dp15
g6
I481
sg7
I82
sa(dp16
g6
I698
sg7
I78
sass."
Ligature2: "halnHalantFormsinBengalilookup12 subtable" u09b8 u09cd
EndChar

StartChar: u09b9_u09cd.haln
Encoding: 51 -1 51
GlifName: u09b9_u09cd.haln
Width: 693
VWidth: 0
GlyphClass: 3
Flags: W
HStem: 55 21<507 605 507 507> 90 99<226 241 226 255.5> 282 85<192 234> 628 95<380 445.5> 737 78<-61 306 0 306 306 316>
VStem: 0 107<212.5 246 212.5 274> 495 110<55 72> 512 109<437.5 511> 615 78<860.5 893.5>
AnchorPoint: "Anchor1" 480 7 basechar 0
AnchorPoint: "Anchor0" 354 871 basechar 0
AnchorPoint: "Anchor-0" 354 871 basechar 0
AnchorPoint: "Anchor-1" 480 7 basechar 0
LayerCount: 2
Fore
SplineSet
513 -68 m 257
 576 -35 l 257
 576 -35 624 -59 644 -85 c 256
 661 -107 668 -153 668 -153 c 257
 600 -175 l 257
 600 -175 589 -137 574 -118 c 256
 555 -94 513 -68 513 -68 c 257
107 228 m 256
 107 197 176 189 226 189 c 258
 241 189 l 257
 290 193 373 222 373 236 c 256
 373 267 257 282 211 282 c 256
 173 282 107 264 107 228 c 256
0 227 m 256
 0 321 128 367 227 367 c 256
 289 367 355 352 415 322 c 258
 458 301 l 257
 469 315 l 257
 496 347 512 404 512 471 c 256
 512 551 486 628 405 628 c 256
 355 628 293 573 280 542 c 257
 188 528 l 257
 246 658 l 258
 247 659 337 723 411 723 c 256
 549 723 621 598 621 472 c 256
 621 399 601 321 560 265 c 256
 547 247 536 231 536 228 c 256
 536 225 544 210 555 195 c 256
 582 157 603 97 605 55 c 257
 507 55 l 257
 495 72 l 257
 487 106 469 168 458 168 c 256
 456 168 438 159 419 148 c 256
 354 109 288 90 223 90 c 256
 123 90 0 146 0 227 c 256
-61 737 m 257
 0 815 l 257
 306 815 l 258
 383 815 441 814 484 814 c 256
 608 814 615 822 615 882 c 256
 615 905 596 942 577 958 c 258
 560 972 l 257
 580 995 l 258
 591 1008 604 1020 608 1020 c 256
 651 1020 693 927 693 880 c 256
 693 841 677 806 648 777 c 256
 608 738 613 737 316 737 c 258
 -61 737 l 257
EndSplineSet
PickledDataWithLists: "(dp0
Vcom.fontlab.hintData
p1
(dp2
Vhhints
p3
(lp4
(dp5
Vposition
p6
I55
sVwidth
p7
I21
sa(dp8
g6
I90
sg7
I99
sa(dp9
g6
I282
sg7
I85
sa(dp10
g6
I628
sg7
I95
sa(dp11
g6
I737
sg7
I78
sasVvhints
p12
(lp13
(dp14
g6
I0
sg7
I107
sa(dp15
g6
I495
sg7
I110
sa(dp16
g6
I512
sg7
I109
sa(dp17
g6
I615
sg7
I78
sass."
Ligature2: "halnHalantFormsinBengalilookup12 subtable" u09b9 u09cd
EndChar

StartChar: u09dc_u09cd.haln
Encoding: 52 -1 52
GlifName: u09dc_u09cd.haln
Width: 718
VWidth: 0
GlyphClass: 3
Flags: W
HStem: -36 94<430.5 459.5> 46 72<276.5 366.5 276.5 383.5> 233 83<132.5 150> 385 76<253 296.5 253 309> 535 75<545.5 584> 738 80<0 341 0 221> 1003 20<641 664.5>
VStem: 3 86<185.5 208.5 185.5 243> 127 90<497 550> 194 93<175 198.5> 398 94<-3.5 25.5> 617 86<391 459 459 463 355.5 484> 650 78<862.5 895.5>
AnchorPoint: "Anchor1" 438 -71 basechar 0
AnchorPoint: "Anchor0" 384 835 basechar 0
AnchorPoint: "Anchor-0" 384 835 basechar 0
AnchorPoint: "Anchor-1" 438 -71 basechar 0
LayerCount: 2
Fore
SplineSet
463 -83 m 257
 526 -50 l 257
 526 -50 574 -74 594 -100 c 256
 611 -122 618 -168 618 -168 c 257
 550 -190 l 257
 550 -190 539 -152 524 -133 c 256
 505 -109 463 -83 463 -83 c 257
398 11 m 256
 398 40 416 58 445 58 c 256
 474 58 492 40 492 11 c 256
 492 -18 474 -36 445 -36 c 256
 416 -36 398 -18 398 11 c 256
89 199 m 256
 89 172 118 151 149 151 c 258
 159 151 l 257
 179 154 194 165 194 185 c 256
 194 212 166 233 134 233 c 256
 131 233 127 232 124 232 c 256
 105 229 89 218 89 199 c 256
0 738 m 257
 0 818 l 257
 341 818 l 258
 415 818 472 817 515 817 c 256
 642 817 650 825 650 884 c 256
 650 907 631 944 612 960 c 258
 595 974 l 257
 615 998 l 258
 626 1011 639 1023 643 1023 c 256
 686 1023 728 929 728 882 c 256
 728 843 713 807 683 779 c 256
 644 741 646 757 378 739 c 256
 303 734 217 591 217 513 c 256
 217 481 235 461 271 461 c 256
 322 461 362 493 391 523 c 256
 437 570 492 610 573 610 c 256
 663 610 702 542 703 463 c 257
 703 459 l 258
 703 252 497 46 270 46 c 256
 155 46 3 106 3 212 c 256
 3 274 67 316 136 316 c 256
 221 316 287 252 287 183 c 256
 287 158 276 138 255 120 c 257
 264 119 272 118 281 118 c 256
 452 118 617 315 617 467 c 256
 617 501 602 535 566 535 c 256
 525 535 494 508 470 484 c 256
 418 431 355 385 263 385 c 256
 176 385 127 443 127 516 c 256
 127 584 179 694 221 738 c 257
 0 738 l 257
EndSplineSet
PickledDataWithLists: "(dp0
Vcom.fontlab.hintData
p1
(dp2
Vhhints
p3
(lp4
(dp5
Vposition
p6
I-36
sVwidth
p7
I94
sa(dp8
g6
I46
sg7
I72
sa(dp9
g6
I233
sg7
I83
sa(dp10
g6
I385
sg7
I76
sa(dp11
g6
I535
sg7
I75
sa(dp12
g6
I738
sg7
I80
sa(dp13
g6
I1003
sg7
I20
sasVvhints
p14
(lp15
(dp16
g6
I3
sg7
I86
sa(dp17
g6
I127
sg7
I90
sa(dp18
g6
I194
sg7
I93
sa(dp19
g6
I398
sg7
I94
sa(dp20
g6
I617
sg7
I86
sa(dp21
g6
I650
sg7
I78
sass."
Ligature2: "halnHalantFormsinBengalilookup12 subtable" u09dc u09cd
EndChar

StartChar: u09dd_u09cd.haln
Encoding: 53 -1 53
GlifName: u09dd_u09cd.haln
Width: 883
VWidth: 0
GlyphClass: 3
Flags: W
HStem: -34 94<511.5 540.5> 55 84<130.5 172 130.5 201> 97 106<494.5 596.5 479.5 605> 280 61<554.5 568 554.5 589> 444 110<576.5 603> 637 59<583 690.5> 741 78<74 208 74 636> 749 70<304 636 636 715.5 304 304> 1008 20<796 819>
VStem: 208 96<405 741 741 741> 344 82<479 512 505 512 505 547> 479 94<-1.5 27.5> 632 79<392 420> 771 73<396 468.5 306 518.5> 805 78<857.5 901.5>
AnchorPoint: "Anchor1" 546 -65 basechar 0
AnchorPoint: "Anchor0" 498 847 basechar 0
AnchorPoint: "Anchor-0" 498 847 basechar 0
AnchorPoint: "Anchor-1" 546 -65 basechar 0
LayerCount: 2
Fore
SplineSet
651 -92 m 257
 714 -59 l 257
 714 -59 762 -83 782 -109 c 256
 799 -131 806 -177 806 -177 c 257
 738 -199 l 257
 738 -199 727 -161 712 -142 c 256
 693 -118 651 -92 651 -92 c 257
524 383 m 256
 524 358 541 341 568 341 c 256
 609 345 632 363 632 407 c 256
 632 433 614 444 592 444 c 256
 561 444 524 422 524 383 c 256
479 13 m 256
 479 42 497 60 526 60 c 256
 555 60 573 42 573 13 c 256
 573 -16 555 -34 526 -34 c 256
 497 -34 479 -16 479 13 c 256
0 138 m 256
 0 142 46 184 53 184 c 256
 71 184 116 139 145 139 c 256
 199 139 208 149 208 230 c 258
 208 741 l 257
 74 741 l 257
 74 819 l 257
 261 819 449 819 636 819 c 256
 795 819 805 825 805 890 c 256
 805 913 786 949 767 965 c 258
 750 980 l 257
 771 1003 l 258
 782 1016 794 1028 798 1028 c 256
 840 1028 883 936 883 889 c 256
 883 814 836 749 750 749 c 258
 304 749 l 257
 304 405 l 257
 307 275 429 203 530 203 c 256
 663 203 771 318 771 474 c 256
 771 563 679 625 670 632 c 257
 644 636 l 258
 637 637 630 637 623 637 c 256
 543 637 426 594 426 512 c 258
 426 505 l 257
 428 483 437 431 447 431 c 256
 450 431 454 437 457 454 c 256
 467 511 509 554 579 554 c 256
 645 554 711 511 711 437 c 256
 711 347 631 280 547 280 c 256
 441 280 350 372 344 479 c 257
 344 493 l 258
 344 601 435 703 544 703 c 256
 551 703 663 696 670 696 c 256
 711 696 844 533 844 404 c 256
 844 208 681 97 529 97 c 256
 460 97 391 120 335 169 c 256
 321 181 308 191 305 191 c 257
 305 190 l 257
 281 119 253 55 149 55 c 256
 89 55 0 99 0 138 c 256
EndSplineSet
PickledDataWithLists: "(dp0
Vcom.fontlab.hintData
p1
(dp2
Vhhints
p3
(lp4
(dp5
Vposition
p6
I-34
sVwidth
p7
I94
sa(dp8
g6
I55
sg7
I84
sa(dp9
g6
I97
sg7
I106
sa(dp10
g6
I280
sg7
I61
sa(dp11
g6
I444
sg7
I110
sa(dp12
g6
I637
sg7
I59
sa(dp13
g6
I741
sg7
I78
sa(dp14
g6
I749
sg7
I70
sa(dp15
g6
I1008
sg7
I20
sasVvhints
p16
(lp17
(dp18
g6
I208
sg7
I96
sa(dp19
g6
I344
sg7
I82
sa(dp20
g6
I479
sg7
I94
sa(dp21
g6
I632
sg7
I79
sa(dp22
g6
I771
sg7
I73
sa(dp23
g6
I805
sg7
I78
sass."
Ligature2: "halnHalantFormsinBengalilookup12 subtable" u09dd u09cd
EndChar

StartChar: u09df_u09cd.haln
Encoding: 54 -1 54
GlifName: glyph219
Width: 721
VWidth: 0
GlyphClass: 2
Flags: W
HStem: -35 94<177.5 206.5> 68 98<548.5 579.5> 104 106<241.5 297 241.5 300> 739 78<159 159 159 262 262 272> 1003 20<628 632>
VStem: 63 98<254 293.5 254 310.5> 145 94<-2.5 26.5> 226 78<520 561.5> 425 78<269 740 740 740> 637 78<879.5 889.5 862.5 895.5>
AnchorPoint: "Anchor1" 426 -17 basechar 0
AnchorPoint: "Anchor0" 408 835 basechar 0
AnchorPoint: "Anchor-0" 408 835 basechar 0
AnchorPoint: "Anchor-1" 426 -17 basechar 0
LayerCount: 2
Fore
SplineSet
519 -51 m 257
 582 -18 l 257
 582 -18 630 -42 650 -68 c 256
 667 -90 674 -136 674 -136 c 257
 606 -158 l 257
 606 -158 595 -120 580 -101 c 256
 561 -77 519 -51 519 -51 c 257
159 739 m 257
 187 728 213 712 236 690 c 256
 282 647 304 595 304 535 c 256
 304 458 267 398 220 364 c 256
 194 345 161 312 161 275 c 256
 161 233 218 210 265 210 c 256
 329 210 382 239 425 269 c 257
 425 740 l 257
 386 739 336 739 272 739 c 258
 159 739 l 257
145 12 m 256
 145 41 163 59 192 59 c 256
 221 59 239 41 239 12 c 256
 239 -17 221 -35 192 -35 c 256
 163 -35 145 -17 145 12 c 256
3 738 m 257
 3 817 l 257
 262 817 l 258
 545 817 611 817 629 851 c 256
 634 860 637 875 637 884 c 256
 637 907 618 944 599 960 c 258
 582 974 l 257
 602 997 l 258
 613 1010 626 1023 630 1023 c 256
 634 1023 651 1009 668 992 c 256
 692 968 701 954 708 928 c 256
 712 912 715 897 715 882 c 256
 715 843 700 807 670 779 c 256
 645 755 572 746 503 742 c 257
 503 247 l 258
 503 206 528 166 568 166 c 256
 609 166 639 200 659 230 c 257
 711 174 l 257
 688 141 665 115 640 96 c 256
 615 77 591 68 568 68 c 256
 529 68 495 85 467 120 c 256
 457 133 448 147 442 161 c 257
 399 128 335 104 265 104 c 256
 161 104 63 174 63 275 c 256
 63 346 109 405 155 438 c 256
 177 454 194 469 207 485 c 256
 220 501 226 514 226 526 c 256
 226 597 145 640 70 640 c 257
 70 738 l 257
 3 738 l 257
EndSplineSet
PickledDataWithLists: "(dp0
Vcom.fontlab.hintData
p1
(dp2
Vhhints
p3
(lp4
(dp5
Vposition
p6
I-35
sVwidth
p7
I94
sa(dp8
g6
I68
sg7
I98
sa(dp9
g6
I104
sg7
I106
sa(dp10
g6
I739
sg7
I78
sa(dp11
g6
I1003
sg7
I20
sasVvhints
p12
(lp13
(dp14
g6
I63
sg7
I98
sa(dp15
g6
I145
sg7
I94
sa(dp16
g6
I226
sg7
I78
sa(dp17
g6
I425
sg7
I78
sa(dp18
g6
I637
sg7
I78
sass."
Ligature2: "halnHalantFormsinBengalilookup12 subtable" u09df u09cd
EndChar

StartChar: u099c_u09cd_u099e_u09cd.haln
Encoding: 55 -1 55
GlifName: u099c_u09cd_u099e_u09cd.haln
Width: 995
VWidth: 0
GlyphClass: 3
Flags: W
HStem: 0 83<276.5 289.5> 79 87<774 803 774 824.5> 217 97<132.5 147.5 130 150> 394 89<253 273.5> 569 88<564 569.5> 622 81<767.5 798.5> 738 80<0 341 0 221> 1003 20<895 899>
VStem: 3 86<184.5 188 161.5 224.5> 127 90<525.5 555.5 525.5 566> 194 93<149.5 164.5 144.5 176.5> 617 113 664 66<212 212 212 313 283.5 313> 857 74<220 270 506.5 559.5> 904 78<879.5 889.5 862.5 895.5>
AnchorPoint: "Anchor1" 678 43 basechar 0
AnchorPoint: "Anchor0" 474 817 basechar 0
AnchorPoint: "Anchor-0" 474 817 basechar 0
AnchorPoint: "Anchor-1" 678 43 basechar 0
LayerCount: 2
Fore
SplineSet
772 -41 m 257
 835 -8 l 257
 835 -8 883 -32 903 -58 c 256
 920 -80 927 -126 927 -126 c 257
 859 -148 l 257
 859 -148 848 -110 833 -91 c 256
 814 -67 772 -41 772 -41 c 257
730 212 m 257
 759 191 765 166 783 166 c 256
 823 166 857 200 857 240 c 256
 857 300 791 344 730 350 c 257
 730 212 l 257
723 607 m 257
 727 592 729 576 729 560 c 258
 729 426 l 257
 790 432 857 476 857 537 c 256
 857 582 821 622 776 622 c 256
 759 622 742 617 725 608 c 256
 724 608 724 607 723 607 c 257
89 177 m 256
 89 146 118 121 149 121 c 256
 152 121 156 122 159 122 c 256
 179 125 194 138 194 161 c 256
 194 192 166 217 134 217 c 256
 131 217 127 216 124 216 c 256
 105 213 89 199 89 177 c 256
0 738 m 257
 0 818 l 257
 341 818 l 258
 624 818 877 818 895 852 c 256
 900 861 904 875 904 884 c 256
 904 907 885 944 866 960 c 258
 849 974 l 257
 869 998 l 258
 880 1011 893 1023 897 1023 c 256
 901 1023 918 1009 935 992 c 256
 959 968 968 954 975 928 c 256
 979 912 982 897 982 882 c 256
 982 843 967 807 937 779 c 256
 898 741 647 746 378 739 c 256
 360 739 344 728 331 719 c 256
 294 692 263 658 238 614 c 256
 225 590 217 567 217 544 c 256
 217 507 235 483 271 483 c 256
 283 483 297 487 312 493 c 256
 340 505 367 526 391 555 c 256
 428 599 469 630 514 646 c 256
 535 653 555 657 573 657 c 256
 594 657 613 652 630 642 c 256
 633 640 637 639 640 639 c 256
 664 639 692 680 692 680 c 257
 718 695 746 703 776 703 c 256
 863 703 931 625 931 537 c 256
 931 461 879 409 821 388 c 257
 879 367 931 314 931 240 c 256
 931 155 866 79 783 79 c 256
 764 79 739 91 709 114 c 256
 697 124 675 130 664 136 c 257
 664 195 664 254 664 313 c 257
 653 283 653 280 635 249 c 256
 568 133 486 57 388 21 c 256
 348 6 309 0 270 0 c 256
 212 0 155 15 98 48 c 256
 58 71 30 103 14 141 c 256
 6 159 3 176 3 193 c 256
 3 256 52 296 100 309 c 256
 112 312 124 314 136 314 c 256
 159 314 182 308 204 295 c 256
 246 271 271 238 282 194 c 256
 285 182 287 170 287 159 c 256
 287 130 276 106 255 85 c 257
 264 84 272 83 281 83 c 256
 322 83 366 99 411 130 c 256
 466 168 515 223 556 295 c 256
 590 354 609 409 615 462 c 256
 616 472 617 481 617 490 c 256
 617 527 606 552 584 564 c 256
 579 567 573 569 566 569 c 256
 556 569 545 566 532 560 c 256
 510 550 490 533 470 510 c 256
 428 460 381 425 330 407 c 256
 306 399 284 394 263 394 c 256
 176 394 127 462 127 547 c 256
 127 585 138 622 159 659 c 256
 177 690 198 714 221 738 c 257
 0 738 l 257
EndSplineSet
PickledDataWithLists: "(dp0
Vcom.fontlab.hintData
p1
(dp2
Vhhints
p3
(lp4
(dp5
Vposition
p6
I0
sVwidth
p7
I83
sa(dp8
g6
I79
sg7
I87
sa(dp9
g6
I217
sg7
I97
sa(dp10
g6
I394
sg7
I89
sa(dp11
g6
I569
sg7
I88
sa(dp12
g6
I622
sg7
I81
sa(dp13
g6
I738
sg7
I80
sa(dp14
g6
I1003
sg7
I20
sasVvhints
p15
(lp16
(dp17
g6
I3
sg7
I86
sa(dp18
g6
I127
sg7
I90
sa(dp19
g6
I194
sg7
I93
sa(dp20
g6
I617
sg7
I113
sa(dp21
g6
I664
sg7
I66
sa(dp22
g6
I857
sg7
I74
sa(dp23
g6
I904
sg7
I78
sass."
Ligature2: "halnHalantFormsinBengalilookup12 subtable" u099c_u09cd_u099e.akhn u09cd
Ligature2: "halfHalfFormsinBengali2lookup5 subtable" u099c_u09cd_u099e.akhn u09cd zwj
EndChar

StartChar: kassa_u09cd.half
Encoding: 56 -1 56
GlifName: kassa_u09cd.half
Width: 1165
VWidth: 0
GlyphClass: 3
Flags: W
HStem: 63 98<707 747.5 707 759> 99 106<404.5 456 404.5 459> 155 72<80 99.5 80 120> 221 68<869 904.5 869 916.5> 363 68<155.5 160> 437 72<166 185.5 166 204> 439 81<839.5 840.5> 607 106<158.5 229> 733 79<31 34 36 64 31 34 36 229> 758 21<956 987.5>
VStem: -17 60<263.5 285.5 263.5 310.5> 69 60<545.5 567.5 545.5 592.5> 125 76<262.5 285 239.5 287.5> 209 76<544.5 569 521.5 569.5> 222 102<251 282> 351 112<532.5 562> 584 78<264 666> 726 72<349 381 347.5 412.5> 1028 83<437.5 476.5> 1043 80<825.5 890.5>
AnchorPoint: "Anchor1" 774 61 basechar 0
AnchorPoint: "Anchor0" 574 829 basechar 0
AnchorPoint: "Anchor-1" 774 61 basechar 0
AnchorPoint: "Anchor-0" 574 829 basechar 0
LayerCount: 2
Fore
SplineSet
875 -63 m 257
 938 -30 l 257
 938 -30 986 -54 1006 -80 c 256
 1023 -102 1030 -148 1030 -148 c 257
 962 -170 l 257
 962 -170 951 -132 936 -113 c 256
 917 -89 875 -63 875 -63 c 257
318 734 m 257
 397 703 463 624 463 530 c 256
 463 453 426 393 379 359 c 256
 358 344 333 320 324 292 c 256
 324 285 325 276 325 265 c 256
 325 260 324 256 324 251 c 256
 338 221 385 205 424 205 c 256
 488 205 541 234 584 264 c 257
 584 735 l 257
 545 734 495 734 431 734 c 258
 318 734 l 257
129 555 m 256
 129 536 157 509 175 509 c 256
 196 509 209 532 209 557 c 256
 209 582 192 607 169 607 c 256
 148 607 129 580 129 555 c 256
43 273 m 256
 43 254 71 227 89 227 c 256
 110 227 125 250 125 275 c 256
 125 300 106 325 83 325 c 256
 62 325 43 298 43 273 c 256
-41 737 m 257
 -41 737 -11 751 8 770 c 256
 16 777 24 796 31 807 c 257
 31 812 l 257
 34 812 l 257
 35 813 35 814 36 814 c 257
 36 812 l 257
 421 812 l 258
 506 812 574 811 626 811 c 256
 757 811 1043 819 1043 879 c 256
 1043 902 1024 939 1005 955 c 258
 988 969 l 257
 1008 992 l 258
 1019 1005 1032 1017 1036 1017 c 256
 1079 1017 1121 924 1121 877 c 256
 1121 864 1123 851 1123 839 c 256
 1123 812 1114 788 1054 769 c 256
 1027 760 1000 758 975 758 c 256
 937 758 905 764 898 764 c 256
 895 764 894 763 894 762 c 256
 894 756 928 736 928 736 c 257
 928 736 1111 584 1111 458 c 256
 1111 417 1100 375 1079 335 c 256
 1059 297 1011 252 973 234 c 256
 947 222 938 221 895 221 c 256
 839 221 812 230 777 262 c 256
 744 292 726 329 726 369 c 256
 726 456 804 520 875 520 c 256
 922 520 961 486 961 447 c 256
 961 409 933 383 901 383 c 256
 879 383 858 395 849 418 c 256
 845 428 842 437 841 438 c 258
 841 438 841 439 840 439 c 256
 833 439 809 415 803 402 c 256
 800 395 798 386 798 376 c 256
 798 319 842 289 896 289 c 256
 913 289 930 293 945 300 c 256
 996 325 1028 394 1028 462 c 256
 1028 491 1022 520 1010 545 c 256
 989 587 950 624 902 647 c 258
 862 666 l 257
 795 666 729 666 662 666 c 257
 662 242 l 258
 662 201 687 161 727 161 c 256
 768 161 798 195 818 225 c 257
 870 169 l 257
 838 123 791 63 727 63 c 256
 671 63 622 106 601 156 c 257
 558 123 494 99 424 99 c 256
 368 99 313 119 275 154 c 257
 229 173 l 257
 243 191 l 258
 243 192 244 191 244 192 c 256
 230 215 222 241 222 270 c 256
 222 294 227 315 234 333 c 257
 220 345 203 353 187 357 c 256
 172 361 163 363 157 363 c 256
 154 363 151 363 151 361 c 256
 151 358 157 353 165 345 c 256
 189 322 201 299 201 271 c 256
 201 208 147 155 93 155 c 256
 38 155 -17 212 -17 283 c 256
 -17 338 16 391 73 419 c 256
 96 430 108 431 149 431 c 256
 192 431 202 430 229 417 c 256
 244 410 258 400 271 389 c 257
 291 410 313 428 334 447 c 257
 315 455 l 257
 327 473 l 257
 343 495 351 520 351 545 c 256
 351 579 343 598 321 613 c 256
 299 627 269 633 242 635 c 257
 266 611 285 585 285 553 c 256
 285 490 231 437 177 437 c 256
 122 437 69 494 69 565 c 256
 69 620 102 673 159 701 c 256
 181 711 192 713 229 713 c 257
 229 733 l 257
 163 733 97 733 31 733 c 256
 26 733 22 736 17 736 c 256
 -2 736 -21 736 -41 737 c 257
EndSplineSet
PickledDataWithLists: "(dp0
Vcom.fontlab.hintData
p1
(dp2
Vhhints
p3
(lp4
(dp5
Vposition
p6
I63
sVwidth
p7
I98
sa(dp8
g6
I99
sg7
I106
sa(dp9
g6
I155
sg7
I72
sa(dp10
g6
I221
sg7
I68
sa(dp11
g6
I363
sg7
I68
sa(dp12
g6
I437
sg7
I72
sa(dp13
g6
I439
sg7
I81
sa(dp14
g6
I607
sg7
I106
sa(dp15
g6
I733
sg7
I79
sa(dp16
g6
I758
sg7
I21
sasVvhints
p17
(lp18
(dp19
g6
I-17
sg7
I60
sa(dp20
g6
I69
sg7
I60
sa(dp21
g6
I125
sg7
I76
sa(dp22
g6
I209
sg7
I76
sa(dp23
g6
I222
sg7
I102
sa(dp24
g6
I351
sg7
I112
sa(dp25
g6
I584
sg7
I78
sa(dp26
g6
I726
sg7
I72
sa(dp27
g6
I1028
sg7
I83
sa(dp28
g6
I1043
sg7
I80
sass."
Ligature2: "halnHalantFormsinBengalilookup12 subtable" u0995_u09cd_u09b7.akhn u09cd
Ligature2: "halfHalfFormsinBengali2lookup5 subtable" u0995_u09cd_u09b7.akhn u09cd zwj
EndChar

StartChar: u09b0_u09cd.rphf
Encoding: 57 -1 57
GlifName: u09b0_u09cd.rphf
Width: 0
VWidth: 0
GlyphClass: 4
Flags: W
HStem: 981 78<-176 -9 -151 -9>
VStem: -333 91<877 913.5>
AnchorPoint: "Anchor0" -272 812 mark 0
AnchorPoint: "Anchor-0" -272 812 mark 0
LayerCount: 2
Fore
SplineSet
-333 890 m 256
 -333 937 -316 977 -280 1010 c 256
 -244 1043 -201 1059 -151 1059 c 258
 -9 1059 l 257
 -9 981 l 257
 -151 981 l 258
 -201 981 -242 940 -242 890 c 256
 -242 859 -228 834 -205 817 c 257
 -316 817 l 257
 -327 841 -333 864 -333 890 c 256
EndSplineSet
PickledDataWithLists: "(dp0
Vcom.fontlab.hintData
p1
(dp2
Vhhints
p3
(lp4
(dp5
Vposition
p6
I981
sVwidth
p7
I78
sasVvhints
p8
(lp9
(dp10
g6
I-333
sg7
I91
sass."
Ligature2: "rphfRephForminBengali2lookup3 subtable" u09b0 u09cd
Ligature2: "rphfRephForminBengali2lookup3 subtable" u09f0 u09cd
EndChar

StartChar: u09af_u09cd.pstf
Encoding: 58 -1 58
GlifName: u09af_u09cd.pstf
Width: 472
VWidth: 0
GlyphClass: 3
Flags: W
HStem: -12 98<94 126 94 157> 216 97<94 126> 741 78<-80 335 0 330> 1003 20<390 394>
VStem: -20 78<134.5 167.5 134.5 191.5> 162 78<151 167.5> 194 99<555 584.5 555 586> 302 89<258 269 229.5 285.5> 399 78<879.5 889.5 867 895.5>
LayerCount: 2
Fore
SplineSet
58 151 m 256
 58 118 78 86 110 86 c 256
 142 86 162 118 162 151 c 256
 162 184 142 216 110 216 c 256
 78 216 58 184 58 151 c 256
-80 741 m 257
 -80 768 0 792 0 819 c 257
 112 819 223 819 335 819 c 256
 374 819 384 835 391 851 c 256
 395 860 399 875 399 884 c 256
 399 907 380 944 361 960 c 258
 344 974 l 257
 364 997 l 258
 375 1010 388 1023 392 1023 c 256
 396 1023 413 1009 430 992 c 256
 454 968 463 954 470 928 c 256
 474 912 477 897 477 882 c 256
 477 852 472 846 459 819 c 258
 421 741 l 257
 416 734 l 257
 416 734 401 722 392 713 c 256
 366 688 362 674 326 648 c 256
 322 645 318 642 314 640 c 256
 300 631 293 603 293 566 c 256
 293 544 296 520 300 494 c 256
 311 424 337 349 370 313 c 256
 385 297 391 279 391 259 c 256
 391 200 334 130 298 83 c 256
 250 20 191 -12 123 -12 c 256
 41 -12 -20 67 -20 151 c 256
 -20 232 32 313 110 313 c 256
 188 313 240 232 240 151 c 257
 259 178 302 238 302 278 c 256
 302 293 295 306 279 313 c 256
 221 336 194 478 194 567 c 256
 194 605 198 633 208 639 c 256
 224 649 247 665 265 681 c 256
 287 702 330 730 330 741 c 257
 193 741 57 741 -80 741 c 257
EndSplineSet
PickledDataWithLists: "(dp0
Vcom.fontlab.hintData
p1
(dp2
Vhhints
p3
(lp4
(dp5
Vposition
p6
I-12
sVwidth
p7
I98
sa(dp8
g6
I216
sg7
I97
sa(dp9
g6
I741
sg7
I78
sa(dp10
g6
I1003
sg7
I20
sasVvhints
p11
(lp12
(dp13
g6
I-20
sg7
I78
sa(dp14
g6
I162
sg7
I78
sa(dp15
g6
I194
sg7
I99
sa(dp16
g6
I302
sg7
I89
sa(dp17
g6
I399
sg7
I78
sass."
Ligature2: "pstfPostBaseFormsinBengali2lookup6 subtable" u09cd u09af
EndChar

StartChar: u09b0_u09cd.blwf
Encoding: 59 -1 59
GlifName: u09b0_u09cd.blwf
Width: 0
VWidth: 0
GlyphClass: 4
Flags: W
HStem: -297 68<-406 -346>
AnchorPoint: "Anchor1" -75 45 basechar 0
AnchorPoint: "Anchor-1" -75 45 basechar 0
LayerCount: 2
Fore
SplineSet
-568 -264 m 257
 -548 -203 l 257
 -494 -221 -442 -229 -393 -229 c 256
 -275 -229 -227 -188 -178 -106 c 256
 -152 -62 -131 -28 -110 38 c 257
 -41 38 l 257
 -66 -38 -93 -102 -125 -153 c 256
 -157 -204 -190 -241 -226 -261 c 256
 -267 -285 -316 -297 -376 -297 c 256
 -436 -297 -500 -286 -568 -264 c 257
EndSplineSet
PickledDataWithLists: "(dp0
Vcom.fontlab.hintData
p1
(dp2
Vhhints
p3
(lp4
(dp5
Vposition
p6
I-297
sVwidth
p7
I68
sass."
LCarets2: 1 24
Ligature2: "blwfBelowBaseFormsinBengali2lookup4 subtable" u09cd u09b0
Ligature2: "blwfBelowBaseFormsinBengali2lookup4 subtable" u09cd u09f0
EndChar

StartChar: u09ac_u09cd.blwf
Encoding: 60 -1 60
GlifName: u09ac_u09cd.blwf
Width: 0
VWidth: 0
GlyphClass: 4
Flags: W
HStem: -96 33<-200 -173.5 -200 -165> -79 39<-534 -464.5> 127 39<-488 -454 -488 -440>
VStem: -744 79<16 69.5 16 79> -312 84<126 157>
AnchorPoint: "Anchor1" -264 175 mark 0
AnchorPoint: "Anchor-1" -264 175 mark 0
LayerCount: 2
Fore
SplineSet
-665 43 m 256
 -665 -11 -576 -40 -492 -40 c 256
 -410 -40 -317 -12 -315 41 c 257
 -315 45 l 258
 -315 91 -392 127 -488 127 c 256
 -577 127 -665 96 -665 43 c 256
-744 43 m 256
 -744 115 -646 146 -512 164 c 256
 -502 166 -493 166 -483 166 c 256
 -425 166 -358 147 -336 137 c 258
 -312 126 l 257
 -312 157 l 257
 -228 157 l 257
 -228 -40 l 258
 -228 -58 -215 -63 -185 -63 c 256
 -162 -63 -125 -45 -111 -45 c 256
 -105 -45 -68 -61 -68 -63 c 256
 -68 -77 -142 -96 -188 -96 c 256
 -271 -96 -293 -71 -312 -42 c 256
 -315 -42 -326 -46 -337 -51 c 256
 -382 -70 -437 -79 -492 -79 c 256
 -614 -79 -744 -35 -744 43 c 256
EndSplineSet
PickledDataWithLists: "(dp0
Vcom.fontlab.hintData
p1
(dp2
Vhhints
p3
(lp4
(dp5
Vposition
p6
I-96
sVwidth
p7
I33
sa(dp8
g6
I-79
sg7
I39
sa(dp9
g6
I127
sg7
I39
sasVvhints
p10
(lp11
(dp12
g6
I-744
sg7
I79
sa(dp13
g6
I-312
sg7
I84
sass."
Ligature2: "cjctConjunctFormsinBengali2lookup13 subtable" space u09cd u09f1
Ligature2: "cjctConjunctFormsinBengali2lookup13 subtable" space u09cd u09ac
EndChar

StartChar: u0995_u09b0_u09cd
Encoding: 61 -1 61
GlifName: u0995_u09b0_u09cd.blwf.vatu
Width: 1089
VWidth: 0
GlyphClass: 3
Flags: W
HStem: -263 68<476 536> 3 75<682.5 711> 40 74<305.5 393> 147 62<841 905 841 923.5> 343 74<815 816> 490 101<308.5 405 288 409> 548 67<654 777 654 835 651 777> 741 84<0 84.5 0 563 658 658 948 948>
VStem: 78 82<239.5 300 300 315 239.5 389.5> 550 101<297 359 311 359 359 360.5> 563 88<502 548> 713 65<261 299 261 320> 984 75<327.5 407.5> 1005 79<846 863.5 800 868>
AnchorPoint: "Anchor1" 858 1 basechar 0
AnchorPoint: "Anchor0" 528 823 basechar 0
AnchorPoint: "Anchor-0" 528 823 basechar 0
AnchorPoint: "Anchor-1" 858 1 basechar 0
LayerCount: 2
Fore
SplineSet
160 300 m 258
 160 179 259 114 352 114 c 256
 444 114 547 176 550 297 c 257
 550 309 l 258
 550 412 463 490 355 490 c 256
 262 490 160 427 160 315 c 258
 160 300 l 258
-69 742 m 257
 -69 742 -39 756 -20 775 c 256
 -13 781 -6 796 0 807 c 257
 0 825 l 257
 945 825 l 258
 978 825 1005 827 1005 865 c 256
 1005 871 1002 876 1002 876 c 257
 1002 890 l 257
 995 891 l 257
 995 893 992 898 979 911 c 258
 965 925 l 257
 983 946 l 258
 993 958 1004 968 1008 968 c 256
 1047 968 1084 885 1084 842 c 256
 1084 758 1056 749 948 741 c 257
 948 741 834 742 748 742 c 256
 705 742 669 742 658 741 c 257
 658 741 655 652 654 615 c 257
 900 615 1059 556 1059 361 c 256
 1059 249 982 147 865 147 c 256
 781 147 713 203 713 280 c 256
 713 360 783 417 847 417 c 256
 890 417 924 385 924 350 c 256
 924 316 899 293 871 293 c 256
 833 293 836 323 816 343 c 257
 800 343 778 311 778 287 c 256
 778 235 817 209 865 209 c 256
 945 209 984 290 984 365 c 256
 984 450 933 501 871 531 c 258
 835 548 l 257
 651 548 l 257
 651 359 l 258
 651 263 650 202 650 164 c 256
 650 90 658 78 707 78 c 256
 734 78 775 118 791 118 c 256
 797 118 839 81 839 77 c 256
 839 75 838 74 838 72 c 257
 841 72 l 257
 816 -4 789 -68 757 -119 c 256
 725 -170 692 -207 656 -227 c 256
 615 -251 566 -263 506 -263 c 256
 446 -263 382 -252 314 -230 c 257
 334 -169 l 257
 388 -187 440 -195 489 -195 c 256
 607 -195 655 -154 704 -72 c 256
 720 -44 735 -20 749 10 c 257
 733 6 718 3 704 3 c 256
 604 3 595 63 565 123 c 256
 562 123 549 117 537 105 c 256
 487 61 424 40 362 40 c 256
 226 40 78 139 78 316 c 256
 78 463 204 591 372 591 c 256
 438 591 512 548 537 526 c 258
 563 502 l 257
 563 741 l 257
 372 741 180 741 -11 741 c 256
 -30 741 -49 741 -69 742 c 257
EndSplineSet
PickledDataWithLists: "(dp0
Vcom.fontlab.hintData
p1
(dp2
Vhhints
p3
(lp4
(dp5
Vposition
p6
I-263
sVwidth
p7
I68
sa(dp8
g6
I3
sg7
I75
sa(dp9
g6
I40
sg7
I74
sa(dp10
g6
I147
sg7
I62
sa(dp11
g6
I343
sg7
I74
sa(dp12
g6
I490
sg7
I101
sa(dp13
g6
I548
sg7
I67
sa(dp14
g6
I741
sg7
I84
sasVvhints
p15
(lp16
(dp17
g6
I78
sg7
I82
sa(dp18
g6
I550
sg7
I101
sa(dp19
g6
I563
sg7
I88
sa(dp20
g6
I713
sg7
I65
sa(dp21
g6
I984
sg7
I75
sa(dp22
g6
I1005
sg7
I79
sass."
Ligature2: "vatuVattuVariantsinBengalilookup7 subtable" u0995 u09b0_u09cd.blwf
EndChar

StartChar: u0996_u09b0_u09cd.blwf.vatu
Encoding: 62 -1 62
GlifName: u0996_u09b0_u09cd.blwf.vatu
Width: 993
VWidth: 0
GlyphClass: 3
Flags: W
HStem: -179 68<606 666> 62 93<260.5 390.5 780.5 814> 653 52<153.5 159 133 183> 750 71<805 832> 791 74<140 167.5> 1007 20<897 920.5>
VStem: 22 109<225.5 283 225.5 309.5 626 641> 23 83<729 755 729 758.5> 197 64<746.5 769.5> 495 34 636 91<608 750> 913 78<885 900.5>
AnchorPoint: "Anchor1" 912 -89 basechar 0
AnchorPoint: "Anchor0" 288 889 basechar 0
AnchorPoint: "Anchor-0" 288 889 basechar 0
AnchorPoint: "Anchor-1" 912 -89 basechar 0
LayerCount: 2
Fore
SplineSet
106 739 m 256
 106 719 121 705 145 705 c 256
 173 705 197 734 197 759 c 256
 197 780 179 791 156 791 c 256
 124 791 106 771 106 739 c 256
22 264 m 256
 22 355 232 516 303 541 c 257
 232 566 22 548 22 639 c 256
 22 655 27 671 27 686 c 256
 27 698 23 710 23 722 c 256
 23 795 75 865 160 865 c 256
 222 865 261 822 261 760 c 256
 261 694 210 653 156 653 c 256
 151 653 138 652 132 650 c 256
 132 646 131 643 131 639 c 256
 131 613 219 608 221 608 c 257
 221 608 484 698 495 819 c 257
 529 709 l 257
 529 700 227 376 182 363 c 256
 140 350 131 302 131 264 c 256
 131 187 218 155 303 155 c 256
 508 155 636 395 636 608 c 258
 636 822 l 257
 719 822 784 821 826 821 c 256
 861 821 880 822 880 824 c 256
 880 828 903 849 903 849 c 257
 903 853 906 852 908 857 c 256
 911 865 913 881 913 889 c 256
 913 912 894 949 875 965 c 258
 858 979 l 257
 878 1002 l 258
 889 1015 895 1027 899 1027 c 256
 942 1027 991 934 991 887 c 256
 991 848 977 771 973 769 c 256
 966 766 864 753 864 753 c 257
 864 750 832 750 832 750 c 257
 727 750 l 257
 727 233 l 258
 727 190 759 155 802 155 c 256
 851 155 885 187 911 218 c 257
 974 155 l 257
 972 153 971 151 969 149 c 256
 945 76 918 14 887 -35 c 256
 855 -86 822 -123 786 -143 c 256
 745 -167 696 -179 636 -179 c 256
 576 -179 224 -168 156 -146 c 257
 176 -85 l 257
 230 -103 570 -111 619 -111 c 256
 737 -111 785 -70 834 12 c 256
 847 34 858 53 869 75 c 257
 848 67 826 62 802 62 c 256
 708 62 631 139 631 233 c 258
 631 296 l 257
 585 173 470 62 311 62 c 256
 161 62 22 124 22 264 c 256
EndSplineSet
PickledDataWithLists: "(dp0
Vcom.fontlab.hintData
p1
(dp2
Vhhints
p3
(lp4
(dp5
Vposition
p6
I-179
sVwidth
p7
I68
sa(dp8
g6
I62
sg7
I93
sa(dp9
g6
I653
sg7
I52
sa(dp10
g6
I750
sg7
I71
sa(dp11
g6
I791
sg7
I74
sa(dp12
g6
I1007
sg7
I20
sasVvhints
p13
(lp14
(dp15
g6
I22
sg7
I109
sa(dp16
g6
I23
sg7
I83
sa(dp17
g6
I197
sg7
I64
sa(dp18
g6
I495
sg7
I34
sa(dp19
g6
I636
sg7
I91
sa(dp20
g6
I913
sg7
I78
sass."
Ligature2: "vatuVattuVariantsinBengalilookup7 subtable" u0996 u09b0_u09cd.blwf
EndChar

StartChar: u0997_u09b0_u09cd.blwf.vatu
Encoding: 63 -1 63
GlifName: u0997_u09b0_u09cd.blwf.vatu
Width: 867
VWidth: 0
GlyphClass: 3
Flags: W
HStem: -47 68<235 295> 27 20<93 93> 42 78<658 691.5 658 701.5> 232 78<226 304 226 327> 739 80<199 752 221 534> 1003 20<776 799.5>
VStem: 39 91<620.5 694.5 598.5 717> 403 91<372 428.5> 516 99<260 281> 534 83<443 462 462 739 739 739> 785 78<879 896.5>
AnchorPoint: "Anchor1" 726 7 basechar 0
AnchorPoint: "Anchor0" 372 859 basechar 0
AnchorPoint: "Anchor-0" 372 859 basechar 0
AnchorPoint: "Anchor-1" 726 7 basechar 0
LayerCount: 2
Fore
SplineSet
0 395 m 257
 65 440 l 257
 110 377 179 310 273 310 c 256
 335 310 403 343 403 401 c 256
 403 456 335 487 279 492 c 256
 170 502 39 567 39 674 c 256
 39 760 131 819 221 819 c 258
 752 819 l 257
 752 823 772 839 775 845 c 256
 780 855 785 873 785 885 c 256
 785 908 766 944 747 960 c 258
 730 974 l 257
 750 998 l 258
 761 1011 774 1023 778 1023 c 256
 821 1023 863 930 863 883 c 256
 863 844 848 808 818 780 c 256
 778 741 769 741 617 740 c 257
 617 462 l 258
 617 374 615 308 615 259 c 256
 615 242 616 227 616 214 c 257
 623 214 l 257
 621 208 619 202 617 196 c 256
 621 134 636 120 680 120 c 256
 703 120 740 139 756 158 c 258
 770 175 l 257
 794 155 l 258
 807 144 818 131 818 127 c 256
 818 84 725 42 678 42 c 256
 638 42 580 133 551 162 c 257
 520 94 467 18 415 -11 c 256
 374 -35 325 -47 265 -47 c 256
 205 -47 141 -36 73 -14 c 257
 93 47 l 257
 147 29 199 21 248 21 c 256
 366 21 414 62 463 144 c 256
 483 179 500 206 517 249 c 256
 517 254 516 258 516 262 c 256
 516 300 534 320 534 443 c 258
 534 739 l 257
 221 739 l 258
 177 739 130 715 130 674 c 256
 130 523 494 599 494 401 c 256
 494 298 381 232 273 232 c 256
 150 232 57 314 0 395 c 257
EndSplineSet
PickledDataWithLists: "(dp0
Vcom.fontlab.hintData
p1
(dp2
Vhhints
p3
(lp4
(dp5
Vposition
p6
I-47
sVwidth
p7
I68
sa(dp8
g6
I27
sg7
I20
sa(dp9
g6
I42
sg7
I78
sa(dp10
g6
I232
sg7
I78
sa(dp11
g6
I739
sg7
I80
sa(dp12
g6
I1003
sg7
I20
sasVvhints
p13
(lp14
(dp15
g6
I39
sg7
I91
sa(dp16
g6
I403
sg7
I91
sa(dp17
g6
I516
sg7
I99
sa(dp18
g6
I534
sg7
I83
sa(dp19
g6
I785
sg7
I78
sass."
Ligature2: "vatuVattuVariantsinBengalilookup7 subtable" u0997 u09b0_u09cd.blwf
EndChar

StartChar: u0998_u09b0_u09cd.blwf.vatu
Encoding: 64 -1 64
GlifName: u0998_u09b0_u09cd.blwf.vatu
Width: 973
VWidth: 0
GlyphClass: 3
Flags: W
HStem: -189 68<404 464> 47 94<252.5 382 789.5 818> 442 67 741 76<-29 6 0 6 8 92> 741 1 1003 20<876 899.5>
VStem: 14 109<211.5 295.5 579.5 631.5> 623 92<219 281 281 281> 630 85<593 740 740 740> 885 78<879.5 895.5>
AnchorPoint: "Anchor1" 768 1 basechar 0
AnchorPoint: "Anchor0" 426 853 basechar 0
AnchorPoint: "Anchor-0" 426 853 basechar 0
AnchorPoint: "Anchor-1" 768 1 basechar 0
LayerCount: 2
Fore
SplineSet
123 250 m 256
 123 173 210 141 295 141 c 256
 499 141 623 382 630 593 c 257
 630 740 l 257
 206 740 l 257
 176 689 123 638 123 625 c 256
 123 534 183 509 302 509 c 256
 368 509 440 514 465 514 c 257
 483 442 l 257
 370 442 123 369 123 250 c 256
-69 742 m 257
 -69 742 -39 756 -20 775 c 256
 -13 781 -6 796 0 807 c 257
 0 817 l 257
 2 817 4 817 6 817 c 256
 7 818 7 819 8 819 c 257
 8 817 l 257
 294 817 859 817 877 851 c 256
 882 860 885 875 885 884 c 256
 885 907 866 944 847 960 c 258
 830 974 l 257
 850 997 l 258
 861 1010 874 1023 878 1023 c 256
 921 1023 963 929 963 882 c 256
 963 843 947 808 918 779 c 256
 912 773 890 764 890 764 c 257
 890 764 830 750 830 747 c 256
 830 741 813 742 715 741 c 257
 715 219 l 258
 715 186 736 157 766 146 c 257
 769 146 l 257
 769 145 l 257
 777 142 785 141 794 141 c 256
 842 141 877 173 903 203 c 257
 966 141 l 257
 927 94 869 47 794 47 c 256
 774 47 755 48 737 55 c 257
 703 -26 648 -118 584 -153 c 256
 543 -177 494 -189 434 -189 c 256
 374 -189 310 -178 242 -156 c 257
 262 -95 l 257
 316 -113 368 -121 417 -121 c 256
 535 -121 583 -82 632 0 c 256
 650 30 665 58 680 92 c 257
 645 124 623 169 623 219 c 258
 623 281 l 257
 578 159 461 47 303 47 c 256
 154 47 14 111 14 250 c 256
 14 341 76 412 147 437 c 257
 76 462 14 534 14 625 c 256
 14 638 64 688 92 741 c 257
 -21 741 l 258
 -37 741 -53 742 -69 742 c 257
EndSplineSet
PickledDataWithLists: "(dp0
Vcom.fontlab.hintData
p1
(dp2
Vhhints
p3
(lp4
(dp5
Vposition
p6
I-189
sVwidth
p7
I68
sa(dp8
g6
I47
sg7
I94
sa(dp9
g6
I442
sg7
I67
sa(dp10
g6
I741
sg7
I76
sa(dp11
g6
I741
sg7
I1
sa(dp12
g6
I1003
sg7
I20
sasVvhints
p13
(lp14
(dp15
g6
I14
sg7
I109
sa(dp16
g6
I623
sg7
I92
sa(dp17
g6
I630
sg7
I85
sa(dp18
g6
I885
sg7
I78
sass."
Ligature2: "vatuVattuVariantsinBengalilookup7 subtable" u0998 u09b0_u09cd.blwf
EndChar

StartChar: u0999_u09b0_u09cd.blwf.vatu
Encoding: 65 -1 65
GlifName: u0999_u09b0_u09cd.blwf.vatu
Width: 700
VWidth: 0
GlyphClass: 3
Flags: W
HStem: -143 68<236 296> 48 70<212.5 362.5> 235 69<120 130 120 120> 370 72<251 293.5 251 305.5> 511 72<540 580> 611 63<280.5 333> 753 59<275 295>
VStem: 0 85<206 207 207 207> 51 58<702 735 702 743> 124 90<488 501 488 508> 175 75<707.5 722.5 703 744.5> 190 93<180.5 202.5> 332 56<705.5 723.5> 614 86<393 464.5>
AnchorPoint: "Anchor1" 488 -56 basechar 0
AnchorPoint: "Anchor0" 294 877 basechar 0
AnchorPoint: "Anchor-0" 294 877 basechar 0
AnchorPoint: "Anchor-1" 488 -56 basechar 0
LayerCount: 2
Fore
SplineSet
250 713 m 256
 250 693 269 674 292 674 c 256
 313 674 332 695 332 716 c 256
 332 731 304 753 286 753 c 256
 264 753 250 732 250 713 c 256
85 202 m 256
 85 176 116 157 147 157 c 256
 150 157 152 158 155 158 c 256
 175 160 190 171 190 190 c 256
 190 215 162 235 130 235 c 258
 120 235 l 257
 100 233 85 221 85 202 c 256
-0 206 m 258
 0 207 l 257
 1 265 64 304 134 304 c 256
 218 304 283 245 283 180 c 256
 283 157 272 137 251 120 c 257
 260 119 268 118 277 118 c 256
 448 118 614 304 614 448 c 256
 614 481 599 511 561 511 c 256
 519 511 491 486 466 463 c 256
 414 413 351 370 260 370 c 256
 173 370 124 425 124 494 c 256
 124 522 136 574 166 593 c 257
 103 611 51 651 51 723 c 256
 51 763 58 785 77 804 c 257
 89 817 l 257
 108 811 127 804 146 798 c 257
 133 784 l 258
 117 766 109 745 109 725 c 256
 109 679 162 644 219 644 c 256
 222 644 224 644 224 646 c 256
 224 648 219 652 211 658 c 256
 187 677 175 696 175 719 c 256
 175 770 229 812 283 812 c 256
 327 812 388 775 388 726 c 256
 388 677 334 611 332 611 c 256
 327 611 326 608 326 604 c 256
 326 599 328 592 328 589 c 256
 328 587 328 587 327 587 c 256
 297 587 214 546 214 501 c 258
 214 488 l 257
 215 460 234 442 268 442 c 256
 319 442 359 472 388 500 c 256
 434 545 487 583 569 583 c 256
 660 583 700 517 700 440 c 256
 700 346 651 260 575 192 c 257
 550 116 549 51 517 0 c 256
 485 -51 452 -87 416 -107 c 256
 375 -131 326 -143 266 -143 c 256
 206 -143 142 -132 74 -110 c 257
 94 -49 l 257
 148 -67 200 -75 249 -75 c 256
 367 -75 415 -34 464 48 c 256
 483 80 499 108 515 146 c 257
 443 98 357 63 268 49 c 256
 263 48 258 48 252 48 c 256
 173 48 0 113 -0 206 c 258
EndSplineSet
PickledDataWithLists: "(dp0
Vcom.fontlab.hintData
p1
(dp2
Vhhints
p3
(lp4
(dp5
Vposition
p6
I-143
sVwidth
p7
I68
sa(dp8
g6
I48
sg7
I70
sa(dp9
g6
I235
sg7
I69
sa(dp10
g6
I370
sg7
I72
sa(dp11
g6
I511
sg7
I72
sa(dp12
g6
I611
sg7
I63
sa(dp13
g6
I753
sg7
I59
sasVvhints
p14
(lp15
(dp16
g6
I0
sg7
I85
sa(dp17
g6
I51
sg7
I58
sa(dp18
g6
I124
sg7
I90
sa(dp19
g6
I175
sg7
I75
sa(dp20
g6
I190
sg7
I93
sa(dp21
g6
I332
sg7
I56
sa(dp22
g6
I614
sg7
I86
sass."
Ligature2: "vatuVattuVariantsinBengalilookup7 subtable" u0999 u09b0_u09cd.blwf
EndChar

StartChar: u099a_u09b0_u09cd.blwf.vatu
Encoding: 66 -1 66
GlifName: u099a_u09b0_u09cd.blwf.vatu
Width: 888
VWidth: 0
GlyphClass: 3
Flags: W
HStem: -216 68<338 398> 46 83<131.5 173 131.5 202> 65 106<496.5 545.5> 588 89<482.5 582.5> 735 84<-60 25 0 25 25 98.5 0 207> 737 74<498 638 638 717.5>
VStem: 207 97<579 735 735 735> 748 96<311 445.5> 807 78<849.5 893.5>
AnchorPoint: "Anchor1" 750 61 basechar 0
AnchorPoint: "Anchor0" 474 871 basechar 0
AnchorPoint: "Anchor-0" 474 871 basechar 0
AnchorPoint: "Anchor-1" 750 61 basechar 0
LayerCount: 2
Fore
SplineSet
310 372 m 257
 313 238 429 171 531 171 c 256
 636 171 748 243 748 379 c 256
 748 512 638 588 527 588 c 256
 407 588 310 500 310 384 c 258
 310 372 l 257
-60 735 m 257
 -60 763 0 791 0 819 c 257
 25 819 l 258
 172 819 498 811 498 811 c 257
 638 811 l 258
 797 811 807 817 807 882 c 256
 807 905 788 941 769 957 c 258
 752 971 l 257
 773 995 l 258
 784 1008 797 1019 801 1019 c 256
 844 1019 885 928 885 881 c 256
 885 809 836 737 752 737 c 258
 304 737 l 257
 304 579 l 257
 336 604 l 257
 364 629 446 677 519 677 c 256
 707 677 844 534 844 371 c 256
 844 249 783 162 701 112 c 257
 677 39 650 -23 619 -72 c 256
 587 -123 554 -160 518 -180 c 256
 477 -204 428 -216 368 -216 c 256
 308 -216 244 -205 176 -183 c 257
 196 -122 l 257
 250 -140 302 -148 351 -148 c 256
 469 -148 517 -107 566 -25 c 256
 586 9 603 36 619 77 c 257
 590 69 560 65 531 65 c 256
 462 65 392 88 336 137 c 256
 322 149 310 158 306 158 c 256
 305 158 305 157 305 157 c 257
 281 86 254 46 150 46 c 256
 91 46 0 89 0 128 c 256
 0 132 47 174 54 174 c 256
 72 174 117 129 146 129 c 256
 200 129 207 142 207 219 c 258
 207 735 l 257
 -60 735 l 257
EndSplineSet
PickledDataWithLists: "(dp0
Vcom.fontlab.hintData
p1
(dp2
Vhhints
p3
(lp4
(dp5
Vposition
p6
I-216
sVwidth
p7
I68
sa(dp8
g6
I46
sg7
I83
sa(dp9
g6
I65
sg7
I106
sa(dp10
g6
I588
sg7
I89
sa(dp11
g6
I735
sg7
I84
sa(dp12
g6
I737
sg7
I74
sasVvhints
p13
(lp14
(dp15
g6
I207
sg7
I97
sa(dp16
g6
I748
sg7
I96
sa(dp17
g6
I807
sg7
I78
sass."
Ligature2: "vatuVattuVariantsinBengalilookup7 subtable" u099a u09b0_u09cd.blwf
EndChar

StartChar: u099b_u09b0_u09cd.blwf.vatu
Encoding: 67 -1 67
GlifName: u099b_u09b0_u09cd.blwf.vatu
Width: 905
VWidth: 0
GlyphClass: 3
Flags: W
HStem: -240 68<503 563> 232 58<95.5 123> 260 74<351 408.5 336 413> 392 86<660 693> 626 63<341.5 409> 741 78<0 14.5 0 23 23 96.5 0 142> 741 69<579 685 579 771>
VStem: 142 68<686.5 741> 147 71<325 424> 524 71<468 477 468 526.5> 633 78<157.5 183.5 157.5 203> 775 98<324.5 359> 826 78<850 893.5>
AnchorPoint: "Anchor1" 774 -227 basechar 0
AnchorPoint: "Anchor0" 438 841 basechar 0
AnchorPoint: "Anchor-0" 438 841 basechar 0
AnchorPoint: "Anchor-1" 774 -227 basechar 0
LayerCount: 2
Fore
SplineSet
218 476 m 257
 221 382 300 334 372 334 c 256
 445 334 524 386 524 480 c 256
 524 573 448 626 370 626 c 256
 285 626 218 565 218 483 c 258
 218 476 l 257
-69 742 m 257
 -69 742 -39 756 -20 775 c 256
 -13 781 -6 796 0 807 c 257
 0 819 l 257
 23 819 l 258
 170 819 424 811 424 811 c 257
 495 811 554 810 604 810 c 256
 766 810 826 818 826 882 c 256
 826 905 807 941 788 957 c 258
 771 971 l 257
 792 995 l 258
 803 1008 816 1019 820 1019 c 256
 863 1019 904 928 904 881 c 256
 904 808 857 741 771 741 c 258
 210 741 l 257
 210 622 l 257
 238 638 l 257
 258 655 316 689 367 689 c 256
 495 689 595 588 595 477 c 258
 595 468 l 257
 620 473 649 478 671 478 c 256
 767 478 873 429 873 340 c 256
 873 246 778 260 729 211 c 256
 716 198 711 188 711 179 c 256
 711 136 753 95 805 95 c 258
 868 95 l 257
 867 92 866 90 865 87 c 257
 867 87 l 257
 867 -3 l 257
 856 -3 844 -1 832 0 c 257
 798 -79 745 -170 683 -204 c 256
 642 -228 593 -240 533 -240 c 256
 473 -240 81 -177 13 -155 c 257
 33 -94 l 257
 87 -112 467 -172 516 -172 c 256
 634 -172 682 -131 731 -49 c 256
 744 -27 756 -8 767 14 c 257
 693 40 633 96 633 171 c 256
 633 235 673 244 717 270 c 256
 741 285 775 309 775 340 c 256
 775 378 715 392 671 392 c 256
 647 392 610 380 589 380 c 256
 583 378 585 378 569 368 c 257
 569 369 l 257
 528 300 451 260 375 260 c 256
 327 260 278 276 239 311 c 256
 229 320 221 325 218 325 c 257
 218 325 180 254 163 244 c 256
 145 233 138 232 108 232 c 256
 66 232 3 262 3 289 c 256
 3 291 35 321 40 321 c 256
 53 321 85 290 106 290 c 256
 143 290 147 316 147 370 c 258
 147 424 l 258
 147 512 142 632 142 741 c 257
 91 741 40 741 -11 741 c 256
 -30 741 -49 741 -69 742 c 257
EndSplineSet
PickledDataWithLists: "(dp0
Vcom.fontlab.hintData
p1
(dp2
Vhhints
p3
(lp4
(dp5
Vposition
p6
I-240
sVwidth
p7
I68
sa(dp8
g6
I232
sg7
I58
sa(dp9
g6
I260
sg7
I74
sa(dp10
g6
I392
sg7
I86
sa(dp11
g6
I626
sg7
I63
sa(dp12
g6
I741
sg7
I78
sa(dp13
g6
I741
sg7
I69
sasVvhints
p14
(lp15
(dp16
g6
I142
sg7
I68
sa(dp17
g6
I147
sg7
I71
sa(dp18
g6
I524
sg7
I71
sa(dp19
g6
I633
sg7
I78
sa(dp20
g6
I775
sg7
I98
sa(dp21
g6
I826
sg7
I78
sass."
Ligature2: "vatuVattuVariantsinBengalilookup7 subtable" u099b u09b0_u09cd.blwf
EndChar

StartChar: u099c_u09b0_u09cd.blwf.vatu
Encoding: 68 -1 68
GlifName: u099c_u09b0_u09cd.blwf.vatu
Width: 1207
VWidth: 0
GlyphClass: 3
Flags: W
HStem: -198 68<665 725> 6 84<349.5 439.5 349.5 456.5> 401 89<326 369.5 326 382.5> 576 89<618.5 657 605.5 657.5> 578 69<707 935 707 762> 742 79<-69 802 433 433 433 802 802 811> 1003 20<1102 1125.5>
VStem: 76 284<153.5 208 153.5 234.5> 201 90<533.5 593.5 533.5 594> 691 86<408.5 506 367.5 517.5> 1104 79<242.5 450.5> 1111 78<865.5 898.5>
AnchorPoint: "Anchor1" 1002 -71 basechar 0
AnchorPoint: "Anchor0" 504 853 basechar 0
AnchorPoint: "Anchor-0" 504 853 basechar 0
AnchorPoint: "Anchor-1" 1002 -71 basechar 0
LayerCount: 2
Fore
SplineSet
-69 742 m 257
 -69 742 -39 756 -20 775 c 256
 -15 780 -10 789 -5 798 c 257
 -5 821 l 257
 802 821 l 258
 876 821 933 820 976 820 c 256
 1103 820 1111 828 1111 887 c 256
 1111 910 1092 947 1073 963 c 258
 1056 977 l 257
 1076 1001 l 258
 1087 1014 1100 1023 1104 1023 c 256
 1147 1023 1189 932 1189 885 c 256
 1189 846 1174 810 1144 782 c 256
 1104 743 1108 743 811 742 c 257
 433 742 l 257
 375 716 291 635 291 552 c 256
 291 515 308 490 344 490 c 256
 395 490 435 527 464 562 c 256
 509 616 566 665 645 665 c 256
 669 665 691 657 707 647 c 257
 743 647 l 257
 780 653 809 661 834 661 c 256
 1038 661 1183 531 1183 370 c 256
 1183 244 1142 91 1118 91 c 257
 1076 55 l 257
 1051 -21 978 -3 946 -54 c 256
 914 -105 881 -142 845 -162 c 256
 804 -186 755 -198 695 -198 c 256
 635 -198 191 -160 123 -138 c 257
 143 -77 l 257
 197 -95 629 -130 678 -130 c 256
 796 -130 844 -89 893 -7 c 256
 919 37 980 25 1001 91 c 257
 1052 139 l 257
 1096 150 1104 211 1104 274 c 256
 1104 310 1101 346 1101 373 c 256
 1101 468 1045 526 975 559 c 258
 935 578 l 257
 762 578 l 257
 773 553 777 524 777 488 c 256
 777 247 570 6 343 6 c 256
 230 6 76 76 76 198 c 256
 76 271 139 321 209 321 c 256
 293 321 360 248 360 168 c 256
 360 139 349 113 328 92 c 257
 337 91 345 90 354 90 c 256
 525 90 691 320 691 497 c 256
 691 538 676 576 639 576 c 256
 598 576 567 545 543 517 c 256
 491 456 428 401 337 401 c 256
 250 401 201 469 201 555 c 256
 201 633 250 698 293 741 c 257
 192 741 90 741 -11 741 c 256
 -30 741 -49 741 -69 742 c 257
EndSplineSet
PickledDataWithLists: "(dp0
Vcom.fontlab.hintData
p1
(dp2
Vhhints
p3
(lp4
(dp5
Vposition
p6
I-198
sVwidth
p7
I68
sa(dp8
g6
I6
sg7
I84
sa(dp9
g6
I401
sg7
I89
sa(dp10
g6
I576
sg7
I89
sa(dp11
g6
I578
sg7
I69
sa(dp12
g6
I742
sg7
I79
sa(dp13
g6
I1003
sg7
I20
sasVvhints
p14
(lp15
(dp16
g6
I76
sg7
I284
sa(dp17
g6
I201
sg7
I90
sa(dp18
g6
I691
sg7
I86
sa(dp19
g6
I1104
sg7
I79
sa(dp20
g6
I1111
sg7
I78
sass."
Ligature2: "vatuVattuVariantsinBengalilookup7 subtable" u099c u09b0_u09cd.blwf
EndChar

StartChar: u099d_u09b0_u09cd.blwf.vatu
Encoding: 69 -1 69
GlifName: u099d_u09b0_u09cd.blwf.vatu
Width: 1143
VWidth: 0
GlyphClass: 3
Flags: W
HStem: -210 68<518 578> 41 83<698.5 737.5> 82 99<296.5 382.5> 224 78<850 948 845.5 972> 598 97<353.5 396.5 353.5 413> 741 76<-20.5 425 3 11> 742 66
VStem: 34 98<321 455 321 477.5> 573 86<596 741> 1003 78<855 895.5> 1039 91<542 650 519 651>
AnchorPoint: "Anchor1" 882 -5 basechar 0
AnchorPoint: "Anchor0" 528 835 basechar 0
AnchorPoint: "Anchor-0" 528 835 basechar 0
AnchorPoint: "Anchor-1" 882 -5 basechar 0
LayerCount: 2
Fore
SplineSet
659 564 m 257
 686 474 796 302 895 302 c 256
 1001 302 1039 487 1039 597 c 256
 1039 705 964 722 859 722 c 257
 859 741 l 257
 659 741 l 257
 659 564 l 257
132 389 m 256
 132 253 244 181 349 181 c 256
 451 181 567 249 570 382 c 257
 570 394 l 258
 570 510 473 598 353 598 c 256
 242 598 132 521 132 389 c 256
-69 742 m 257
 -69 742 -39 756 -20 775 c 256
 -12 782 -4 801 3 812 c 257
 3 817 l 257
 425 817 l 258
 510 817 634 808 745 808 c 256
 884 808 1003 822 1003 884 c 256
 1003 907 984 944 965 960 c 258
 948 974 l 257
 968 997 l 258
 978 1008 989 1009 995 1009 c 256
 1049 1009 1081 934 1081 882 c 256
 1081 828 1048 776 1001 756 c 257
 1077 705 1130 703 1130 597 c 256
 1130 441 1049 224 895 224 c 256
 805 224 687 365 658 435 c 257
 658 364 657 308 657 266 c 256
 657 134 665 124 732 124 c 256
 761 124 807 169 825 169 c 256
 831 169 871 134 878 125 c 257
 883 125 l 257
 858 49 831 -15 799 -66 c 256
 767 -117 734 -154 698 -174 c 256
 657 -198 608 -210 548 -210 c 256
 488 -210 424 -199 356 -177 c 257
 376 -116 l 257
 430 -134 482 -142 531 -142 c 256
 649 -142 697 -101 746 -19 c 256
 760 5 773 26 785 51 c 257
 765 45 746 41 729 41 c 256
 625 41 598 104 574 175 c 257
 574 175 574 176 573 176 c 256
 569 176 556 166 542 154 c 256
 486 105 417 82 348 82 c 256
 196 82 34 193 34 388 c 256
 34 567 155 645 323 690 c 256
 335 693 347 695 360 695 c 256
 433 695 515 647 543 622 c 258
 573 596 l 257
 573 742 l 257
 11 742 l 257
 11 741 l 257
 -11 741 l 258
 -30 741 -49 741 -69 742 c 257
EndSplineSet
PickledDataWithLists: "(dp0
Vcom.fontlab.hintData
p1
(dp2
Vhhints
p3
(lp4
(dp5
Vposition
p6
I-210
sVwidth
p7
I68
sa(dp8
g6
I41
sg7
I83
sa(dp9
g6
I82
sg7
I99
sa(dp10
g6
I224
sg7
I78
sa(dp11
g6
I598
sg7
I97
sa(dp12
g6
I741
sg7
I76
sa(dp13
g6
I742
sg7
I66
sasVvhints
p14
(lp15
(dp16
g6
I34
sg7
I98
sa(dp17
g6
I573
sg7
I86
sa(dp18
g6
I1003
sg7
I78
sa(dp19
g6
I1039
sg7
I91
sass."
Ligature2: "vatuVattuVariantsinBengalilookup7 subtable" u099d u09b0_u09cd.blwf
EndChar

StartChar: u099e_u09b0_u09cd.blwf.vatu
Encoding: 70 -1 70
GlifName: u099e_u09b0_u09cd.blwf.vatu
Width: 961
VWidth: 0
GlyphClass: 3
Flags: W
HStem: -126 68<404 464> 44 92<295.5 391.5> 161 87<778 802 773 823.5> 174 80<192 205.5 177.5 228> 358 76<176.5 206.5> 551 124<559 565.5> 704 81<766.5 797.5> 733 78<554 593.5 533 594.5>
VStem: 62 78<291 321.5 291 329.5> 244 78<292.5 320.5> 429 78<661 686 661 707> 650 78<508 508 508 642 642 665> 856 74<302 352 588.5 641.5>
AnchorPoint: "Anchor1" 810 73 basechar 0
AnchorPoint: "Anchor0" 546 859 basechar 0
AnchorPoint: "Anchor-0" 546 859 basechar 0
AnchorPoint: "Anchor-1" 810 73 basechar 0
LayerCount: 2
Fore
SplineSet
728 508 m 257
 789 514 856 558 856 619 c 256
 856 664 820 704 775 704 c 256
 758 704 745 699 728 690 c 257
 728 508 l 257
712 279 m 257
 741 258 764 248 782 248 c 256
 822 248 856 282 856 322 c 256
 856 382 790 426 729 432 c 257
 729 294 l 257
 712 279 l 257
140 306 m 256
 140 276 163 254 192 254 c 256
 219 254 244 279 244 306 c 256
 244 335 221 358 192 358 c 256
 161 358 140 337 140 306 c 256
62 292 m 256
 62 367 118 434 192 434 c 256
 264 434 322 376 322 304 c 256
 322 232 264 174 192 174 c 257
 221 149 269 136 322 136 c 256
 475 136 592 261 650 376 c 257
 650 642 l 258
 650 688 617 733 572 733 c 256
 536 733 507 704 507 668 c 256
 507 654 510 638 520 636 c 257
 524 658 546 675 572 675 c 256
 603 675 624 647 624 616 c 256
 624 578 585 551 546 551 c 256
 483 551 429 606 429 668 c 256
 429 746 494 811 572 811 c 256
 615 811 652 795 682 762 c 257
 682 759 l 257
 713 759 741 785 775 785 c 256
 862 785 930 707 930 619 c 256
 930 543 878 491 820 470 c 257
 878 449 930 396 930 322 c 256
 930 237 865 161 782 161 c 256
 774 161 765 164 755 169 c 257
 734 110 711 60 685 18 c 256
 653 -33 620 -70 584 -90 c 256
 543 -114 494 -126 434 -126 c 256
 374 -126 310 -115 242 -93 c 257
 262 -32 l 257
 316 -50 368 -58 417 -58 c 256
 535 -58 583 -17 632 65 c 256
 657 108 678 141 698 203 c 257
 689 209 681 214 674 218 c 257
 674 218 672 233 672 245 c 257
 650 226 l 257
 590 131 461 44 322 44 c 256
 183 44 62 154 62 292 c 256
EndSplineSet
PickledDataWithLists: "(dp0
Vcom.fontlab.hintData
p1
(dp2
Vhhints
p3
(lp4
(dp5
Vposition
p6
I-126
sVwidth
p7
I68
sa(dp8
g6
I44
sg7
I92
sa(dp9
g6
I161
sg7
I87
sa(dp10
g6
I174
sg7
I80
sa(dp11
g6
I358
sg7
I76
sa(dp12
g6
I551
sg7
I124
sa(dp13
g6
I704
sg7
I81
sa(dp14
g6
I733
sg7
I78
sasVvhints
p15
(lp16
(dp17
g6
I62
sg7
I78
sa(dp18
g6
I244
sg7
I78
sa(dp19
g6
I429
sg7
I78
sa(dp20
g6
I650
sg7
I78
sa(dp21
g6
I856
sg7
I74
sass."
Ligature2: "vatuVattuVariantsinBengalilookup7 subtable" u099e u09b0_u09cd.blwf
EndChar

StartChar: u099f_u09b0_u09cd.blwf.vatu
Encoding: 71 -1 71
GlifName: u099f_u09b0_u09cd.blwf.vatu
Width: 897
VWidth: 0
GlyphClass: 3
Flags: W
HStem: -192 68<365 425> 34 83<135.5 176.5 135.5 205> 74 106<499.5 552> 258 75<543 577 543 592.5> 437 95<563.5 591.5> 611 69<656 674 656 656> 736 74<511 567 511 755> 974 57<481.5 506.5 481.5 513> 1113 78<481.5 503.5>
VStem: 209 98<382 733 733 733> 348 83<469.5 523.5> 384 60<1056 1076 1056 1109.5> 591 69<996.5 1019.5> 620 96<378 412> 775 73<373.5 445 326.5 496> 810 78<876.5 892.5>
AnchorPoint: "Anchor1" 774 55 basechar 0
AnchorPoint: "Anchor0" 210 889 basechar 0
AnchorPoint: "Anchor-0" 210 889 basechar 0
AnchorPoint: "Anchor-1" 774 55 basechar 0
LayerCount: 2
Fore
SplineSet
512 375 m 256
 512 350 529 333 557 333 c 256
 597 333 620 357 620 399 c 256
 620 425 603 437 580 437 c 256
 547 437 512 414 512 375 c 256
444 1067 m 256
 444 1045 469 1031 494 1031 c 256
 519 1031 543 1050 543 1073 c 256
 543 1094 516 1113 491 1113 c 256
 472 1113 444 1085 444 1067 c 256
-69 742 m 257
 -69 742 -39 756 -20 775 c 256
 -17 777 -15 782 -12 786 c 257
 -12 820 l 257
 -12 820 233 815 367 812 c 257
 367 818 495 901 528 915 c 256
 559 928 591 975 591 1018 c 256
 591 1021 591 1023 589 1023 c 256
 586 1023 581 1018 573 1009 c 256
 551 985 527 974 499 974 c 256
 436 974 384 1027 384 1082 c 256
 384 1137 440 1191 510 1191 c 256
 589 1191 660 1125 660 1023 c 256
 660 937 621 892 563 862 c 256
 555 858 516 822 511 810 c 257
 567 810 l 257
 815 829 784 816 801 849 c 256
 806 858 810 872 810 881 c 256
 810 904 791 941 772 957 c 258
 755 971 l 257
 775 995 l 258
 786 1008 799 1019 803 1019 c 256
 846 1019 888 927 888 880 c 256
 888 809 839 736 755 736 c 258
 307 736 l 257
 307 382 l 257
 310 253 434 180 534 180 c 256
 668 180 775 295 775 452 c 256
 775 540 683 605 674 611 c 257
 656 611 l 257
 649 612 649 614 642 614 c 256
 616 614 576 605 576 605 c 258
 495 593 431 577 431 481 c 256
 431 458 446 408 452 408 c 256
 455 408 459 416 462 432 c 256
 475 488 513 532 583 532 c 256
 649 532 716 489 716 414 c 256
 716 325 634 258 551 258 c 256
 445 258 355 350 349 456 c 256
 349 460 348 465 348 470 c 256
 348 577 439 680 548 680 c 258
 675 680 l 258
 714 680 848 509 848 381 c 256
 848 272 798 190 728 138 c 257
 703 64 677 2 646 -48 c 256
 614 -99 581 -136 545 -156 c 256
 504 -180 455 -192 395 -192 c 256
 335 -192 271 -181 203 -159 c 257
 223 -98 l 257
 277 -116 329 -124 378 -124 c 256
 496 -124 544 -82 593 0 c 256
 611 31 628 57 643 93 c 257
 608 81 570 74 534 74 c 256
 465 74 396 97 340 146 c 256
 326 159 313 168 309 168 c 257
 309 167 l 257
 285 96 257 34 153 34 c 256
 94 34 3 78 3 115 c 256
 3 119 50 161 57 161 c 256
 75 161 121 117 150 117 c 256
 203 117 209 130 209 206 c 258
 209 733 l 257
 -12 733 l 257
 -12 741 l 257
 -31 741 -50 741 -69 742 c 257
EndSplineSet
PickledDataWithLists: "(dp0
Vcom.fontlab.hintData
p1
(dp2
Vhhints
p3
(lp4
(dp5
Vposition
p6
I-192
sVwidth
p7
I68
sa(dp8
g6
I34
sg7
I83
sa(dp9
g6
I74
sg7
I106
sa(dp10
g6
I258
sg7
I75
sa(dp11
g6
I437
sg7
I95
sa(dp12
g6
I611
sg7
I69
sa(dp13
g6
I736
sg7
I74
sa(dp14
g6
I974
sg7
I57
sa(dp15
g6
I1113
sg7
I78
sasVvhints
p16
(lp17
(dp18
g6
I209
sg7
I98
sa(dp19
g6
I348
sg7
I83
sa(dp20
g6
I384
sg7
I60
sa(dp21
g6
I591
sg7
I69
sa(dp22
g6
I620
sg7
I96
sa(dp23
g6
I775
sg7
I73
sa(dp24
g6
I810
sg7
I78
sass."
Ligature2: "vatuVattuVariantsinBengalilookup7 subtable" u099f u09b0_u09cd.blwf
EndChar

StartChar: u09a0_u09b0_u09cd.blwf.vatu
Encoding: 72 -1 72
GlifName: u09a0_u09b0_u09cd.blwf.vatu
Width: 539
VWidth: 0
GlyphClass: 3
Flags: W
HStem: 42 136<235.5 287> 421 126<193 300 224 290> 741 78<-20.5 185 0 11 446 452> 978 49<272 290.5 272 303.5> 1092 50<271.5 290.5>
VStem: 91 57<283.5 343 283.5 373.5> 117 57<964 978 978 996 957 1022> 199 50<1050 1060> 314 48<1049.5 1068.5> 432 76<403 479> 481 56<909 912 911.5 912>
AnchorPoint: "Anchor1" 432 43 basechar 0
AnchorPoint: "Anchor0" 360 865 basechar 0
AnchorPoint: "Anchor-0" 360 865 basechar 0
AnchorPoint: "Anchor-1" 432 43 basechar 0
LayerCount: 2
Fore
SplineSet
249 1059 m 256
 249 1041 263 1027 281 1027 c 256
 300 1027 314 1040 314 1059 c 256
 314 1078 300 1092 281 1092 c 256
 262 1092 249 1078 249 1059 c 256
148 320 m 256
 148 247 200 178 271 178 c 256
 379 178 432 340 432 461 c 256
 432 497 427 529 422 562 c 257
 404 496 363 421 290 421 c 258
 214 421 l 258
 172 421 148 366 148 320 c 256
-69 742 m 257
 -69 742 -39 756 -20 775 c 256
 -13 781 -6 796 0 807 c 257
 0 819 l 257
 185 819 l 257
 158 861 117 901 117 964 c 258
 117 978 l 258
 117 1066 185 1142 272 1142 c 256
 320 1142 362 1107 362 1060 c 256
 362 1015 326 978 281 978 c 256
 236 978 199 1015 199 1060 c 257
 183 1040 174 1014 174 978 c 256
 174 936 188 897 218 858 c 256
 233 838 262 837 296 819 c 257
 441 819 l 258
 463 819 481 879 481 909 c 256
 481 910 481 911 481 912 c 256
 480 930 482 925 462 956 c 257
 500 1023 l 257
 532 975 537 987 537 912 c 256
 537 849 492 741 446 741 c 257
 487 699 508 575 508 466 c 256
 508 340 472 177 394 95 c 257
 397 95 l 257
 373 19 347 -45 317 -96 c 256
 287 -147 256 -184 222 -204 c 256
 183 -228 137 -240 80 -240 c 256
 23 -240 56 -229 -8 -207 c 257
 11 -146 l 257
 64 -172 l 257
 64 -172 221 -131 267 -49 c 256
 285 -17 300 9 315 46 c 257
 304 43 293 42 281 42 c 256
 160 42 91 194 91 325 c 256
 91 422 136 547 224 547 c 258
 300 547 l 258
 380 547 369 652 394 689 c 257
 388 689 380 706 362 729 c 256
 353 741 259 744 169 744 c 256
 102 744 36 742 11 741 c 257
 -11 741 l 258
 -30 741 -49 741 -69 742 c 257
EndSplineSet
PickledDataWithLists: "(dp0
Vcom.fontlab.hintData
p1
(dp2
Vhhints
p3
(lp4
(dp5
Vposition
p6
I42
sVwidth
p7
I136
sa(dp8
g6
I421
sg7
I126
sa(dp9
g6
I741
sg7
I78
sa(dp10
g6
I978
sg7
I49
sa(dp11
g6
I1092
sg7
I50
sasVvhints
p12
(lp13
(dp14
g6
I91
sg7
I57
sa(dp15
g6
I117
sg7
I57
sa(dp16
g6
I199
sg7
I50
sa(dp17
g6
I314
sg7
I48
sa(dp18
g6
I432
sg7
I76
sa(dp19
g6
I481
sg7
I56
sass."
Ligature2: "vatuVattuVariantsinBengalilookup7 subtable" u09a0 u09b0_u09cd.blwf
EndChar

StartChar: u09a1_u09b0_u09cd.blwf.vatu
Encoding: 73 -1 73
GlifName: u09a1_u09b0_u09cd.blwf.vatu
Width: 728
VWidth: 0
GlyphClass: 3
Flags: W
HStem: -156 68<212 272> 46 72<276.5 307> 233 83<132.5 150> 385 76<253 296.5 253 309> 535 75<545.5 584> 738 80<0 7 8 221 0 7> 1003 20<641 664.5>
VStem: 3 86<185.5 208.5 185.5 243> 127 90<497 550> 194 93<175 198.5> 617 86<408 459 459 463 408 484> 650 78<862.5 895.5>
AnchorPoint: "Anchor1" 582 67 basechar 0
AnchorPoint: "Anchor0" 270 853 basechar 0
AnchorPoint: "Anchor-0" 270 853 basechar 0
AnchorPoint: "Anchor-1" 582 67 basechar 0
LayerCount: 2
Fore
SplineSet
89 199 m 256
 89 172 118 151 149 151 c 258
 159 151 l 257
 179 154 194 165 194 185 c 256
 194 212 166 233 134 233 c 256
 131 233 127 232 124 232 c 256
 105 229 89 218 89 199 c 256
-69 742 m 257
 -69 742 -39 756 -20 775 c 256
 -13 782 -7 798 0 809 c 257
 0 818 l 257
 7 818 l 257
 8 819 l 257
 8 818 l 257
 341 818 l 258
 415 818 472 817 515 817 c 256
 642 817 650 825 650 884 c 256
 650 907 631 944 612 960 c 258
 595 974 l 257
 615 998 l 258
 626 1011 639 1023 643 1023 c 256
 686 1023 728 929 728 882 c 256
 728 843 713 807 683 779 c 256
 644 741 646 757 378 739 c 256
 303 734 217 591 217 513 c 256
 217 481 235 461 271 461 c 256
 322 461 362 493 391 523 c 256
 437 570 492 610 573 610 c 256
 663 610 702 542 703 463 c 257
 703 459 l 258
 703 357 653 256 576 179 c 257
 577 179 l 257
 552 103 525 39 493 -12 c 256
 461 -63 428 -100 392 -120 c 256
 351 -144 302 -156 242 -156 c 256
 182 -156 118 -145 50 -123 c 257
 70 -62 l 257
 124 -80 176 -88 225 -88 c 256
 343 -88 391 -47 440 35 c 256
 454 59 467 79 479 104 c 257
 416 67 344 46 270 46 c 256
 155 46 3 106 3 212 c 256
 3 274 67 316 136 316 c 256
 221 316 287 252 287 183 c 256
 287 158 276 138 255 120 c 257
 264 119 272 118 281 118 c 256
 452 118 617 315 617 467 c 256
 617 501 602 535 566 535 c 256
 525 535 494 508 470 484 c 256
 418 431 355 385 263 385 c 256
 176 385 127 443 127 516 c 256
 127 584 179 694 221 738 c 257
 0 738 l 257
 0 741 l 257
 -4 741 -7 741 -11 741 c 256
 -30 741 -49 741 -69 742 c 257
EndSplineSet
PickledDataWithLists: "(dp0
Vcom.fontlab.hintData
p1
(dp2
Vhhints
p3
(lp4
(dp5
Vposition
p6
I-156
sVwidth
p7
I68
sa(dp8
g6
I46
sg7
I72
sa(dp9
g6
I233
sg7
I83
sa(dp10
g6
I385
sg7
I76
sa(dp11
g6
I535
sg7
I75
sa(dp12
g6
I738
sg7
I80
sa(dp13
g6
I1003
sg7
I20
sasVvhints
p14
(lp15
(dp16
g6
I3
sg7
I86
sa(dp17
g6
I127
sg7
I90
sa(dp18
g6
I194
sg7
I93
sa(dp19
g6
I617
sg7
I86
sa(dp20
g6
I650
sg7
I78
sass."
Ligature2: "vatuVattuVariantsinBengalilookup7 subtable" u09a1 u09b0_u09cd.blwf
EndChar

StartChar: u09a2_u09b0_u09cd.blwf.vatu
Encoding: 74 -1 74
GlifName: u09a2_u09b0_u09cd.blwf.vatu
Width: 883
VWidth: 0
GlyphClass: 3
Flags: W
HStem: -186 68<338 398> 55 84<130.5 172 130.5 201> 97 106<494.5 544> 280 61<554.5 568 554.5 589> 444 110<576.5 603> 632 71 749 70<304 636 636 715.5 304 304> 1008 20<796 819>
VStem: 208 96<405 741 741 741> 344 82<479 552 493.5 547> 632 79<392 420> 771 73<396 468.5 344 518.5> 805 78<857.5 901.5>
AnchorPoint: "Anchor1" 750 121 basechar 0
AnchorPoint: "Anchor0" 408 841 basechar 0
AnchorPoint: "Anchor-0" 408 841 basechar 0
AnchorPoint: "Anchor-1" 750 121 basechar 0
LayerCount: 2
Fore
SplineSet
524 383 m 256
 524 358 541 341 568 341 c 256
 609 345 632 363 632 407 c 256
 632 433 614 444 592 444 c 256
 561 444 524 422 524 383 c 256
-69 742 m 257
 -69 742 -39 756 -20 775 c 256
 -15 780 -9 790 -4 800 c 257
 -4 819 l 257
 209 819 423 819 636 819 c 256
 795 819 805 825 805 890 c 256
 805 913 786 949 767 965 c 258
 750 980 l 257
 771 1003 l 258
 782 1016 794 1028 798 1028 c 256
 840 1028 883 936 883 889 c 256
 883 814 836 749 750 749 c 258
 304 749 l 257
 304 405 l 257
 307 275 429 203 530 203 c 256
 663 203 771 318 771 474 c 256
 771 563 679 625 670 632 c 257
 652 632 l 257
 645 633 645 635 638 636 c 256
 612 636 571 627 571 627 c 258
 491 616 426 599 426 505 c 256
 426 482 441 430 448 430 c 256
 451 430 453 439 457 454 c 256
 470 510 509 554 579 554 c 256
 645 554 711 511 711 437 c 256
 711 347 631 280 547 280 c 256
 441 280 350 372 344 479 c 257
 344 493 l 258
 344 601 435 703 544 703 c 256
 551 703 663 697 670 696 c 256
 711 696 844 533 844 404 c 256
 844 284 784 196 702 146 c 257
 677 71 651 8 619 -42 c 256
 587 -93 554 -130 518 -150 c 256
 477 -174 428 -186 368 -186 c 256
 308 -186 244 -175 176 -153 c 257
 196 -92 l 257
 250 -110 302 -118 351 -118 c 256
 469 -118 517 -77 566 5 c 256
 586 39 603 68 620 110 c 257
 590 101 559 97 529 97 c 256
 460 97 391 120 335 169 c 256
 321 181 308 191 305 191 c 257
 305 190 l 257
 281 119 253 55 149 55 c 256
 89 55 0 99 0 138 c 256
 0 142 46 184 53 184 c 256
 71 184 116 139 145 139 c 256
 199 139 208 149 208 230 c 258
 208 741 l 257
 135 741 62 741 -11 741 c 256
 -30 741 -49 741 -69 742 c 257
EndSplineSet
PickledDataWithLists: "(dp0
Vcom.fontlab.hintData
p1
(dp2
Vhhints
p3
(lp4
(dp5
Vposition
p6
I-186
sVwidth
p7
I68
sa(dp8
g6
I55
sg7
I84
sa(dp9
g6
I97
sg7
I106
sa(dp10
g6
I280
sg7
I61
sa(dp11
g6
I444
sg7
I110
sa(dp12
g6
I632
sg7
I71
sa(dp13
g6
I749
sg7
I70
sa(dp14
g6
I1008
sg7
I20
sasVvhints
p15
(lp16
(dp17
g6
I208
sg7
I96
sa(dp18
g6
I344
sg7
I82
sa(dp19
g6
I632
sg7
I79
sa(dp20
g6
I771
sg7
I73
sa(dp21
g6
I805
sg7
I78
sass."
Ligature2: "vatuVattuVariantsinBengalilookup7 subtable" u09a2 u09b0_u09cd.blwf
EndChar

StartChar: u09a3_u09b0_u09cd.blwf.vatu
Encoding: 75 -1 75
GlifName: u09a3_u09b0_u09cd.blwf.vatu
Width: 704
VWidth: 0
GlyphClass: 3
Flags: W
HStem: -195 68<326 386> 49 78<533.5 558> 299 68<177 248 177 268> 517 81<218.5 286> 741 78<256 465> 1003 20<617 640.5>
VStem: 7 82<498.5 587.5 498.5 611> 319 72<425.5 466.5> 401 88<458 468 468 741 741 741> 626 78<857 895.5>
AnchorPoint: "Anchor1" 648 -59 basechar 0
AnchorPoint: "Anchor0" 264 853 basechar 0
AnchorPoint: "Anchor-0" 264 853 basechar 0
AnchorPoint: "Anchor-1" 648 -59 basechar 0
LayerCount: 2
Fore
SplineSet
7 536 m 256
 7 686 131 812 321 817 c 256
 350 818 391 819 448 819 c 258
 465 819 l 257
 557 822 626 830 626 884 c 256
 626 907 607 944 588 960 c 258
 571 974 l 257
 591 997 l 258
 602 1010 615 1023 619 1023 c 256
 662 1023 704 929 704 882 c 256
 704 794 599 746 489 742 c 257
 489 468 l 258
 489 389 488 327 488 280 c 256
 488 151 496 127 555 127 c 256
 578 127 615 146 631 165 c 258
 645 182 l 257
 669 162 l 258
 678 154 686 146 690 140 c 257
 691 140 l 257
 691 139 l 257
 692 137 693 135 693 134 c 256
 693 123 687 113 678 103 c 257
 657 43 634 -8 607 -51 c 256
 575 -102 542 -139 506 -159 c 256
 465 -183 416 -195 356 -195 c 256
 296 -195 232 -184 164 -162 c 257
 184 -101 l 257
 238 -119 290 -127 339 -127 c 256
 457 -127 505 -86 554 -4 c 256
 566 16 577 35 587 55 c 257
 574 52 563 49 553 49 c 256
 514 49 478 64 450 94 c 256
 411 134 410 161 401 458 c 257
 401 741 l 257
 256 741 l 257
 216 725 l 257
 146 692 89 635 89 540 c 256
 89 457 133 367 221 367 c 256
 275 367 319 397 319 454 c 256
 319 479 294 517 278 517 c 256
 277 517 277 516 277 516 c 258
 255 494 257 461 216 461 c 256
 184 461 156 487 156 525 c 256
 156 564 195 598 242 598 c 256
 313 598 391 534 391 447 c 256
 391 361 314 299 222 299 c 256
 91 299 7 411 7 536 c 256
EndSplineSet
PickledDataWithLists: "(dp0
Vcom.fontlab.hintData
p1
(dp2
Vhhints
p3
(lp4
(dp5
Vposition
p6
I-195
sVwidth
p7
I68
sa(dp8
g6
I49
sg7
I78
sa(dp9
g6
I299
sg7
I68
sa(dp10
g6
I517
sg7
I81
sa(dp11
g6
I741
sg7
I78
sa(dp12
g6
I1003
sg7
I20
sasVvhints
p13
(lp14
(dp15
g6
I7
sg7
I82
sa(dp16
g6
I319
sg7
I72
sa(dp17
g6
I401
sg7
I88
sa(dp18
g6
I626
sg7
I78
sass."
Ligature2: "vatuVattuVariantsinBengalilookup7 subtable" u09a3 u09b0_u09cd.blwf
EndChar

StartChar: u09a4_u09b0_u09cd
Encoding: 76 -1 76
GlifName: u09a4_u09b0_u09cd.blwf.vatu
Width: 790
VWidth: 0
GlyphClass: 3
Flags: W
HStem: -201 68<260 320> 41 90<297.5 363 297.5 368> 384 95<154.5 178 153 208.5> 597 107<550.5 592.5> 610 95<151 177.5> 740 78<0 7 8 403 403 413 0 7> 1003 20<705 727>
VStem: 0 100<310 388.5 309.5 496> 208 98<544 554.5> 385 107<543 560.5 527.5 587.5> 661 97<364.5 472> 712 78<862.5 896.5>
AnchorPoint: "Anchor1" 654 85 basechar 0
AnchorPoint: "Anchor0" 336 841 basechar 0
AnchorPoint: "Anchor-0" 336 841 basechar 0
AnchorPoint: "Anchor-1" 654 85 basechar 0
LayerCount: 2
Fore
SplineSet
116 544 m 256
 116 507 141 479 165 479 c 256
 191 479 208 512 208 541 c 256
 208 568 192 610 163 610 c 256
 139 610 116 579 116 544 c 256
0 420 m 256
 0 572 51 705 169 705 c 256
 243 705 306 635 306 544 c 256
 304 451 251 384 166 384 c 256
 143 384 120 394 104 394 c 256
 101 394 100 392 100 385 c 256
 100 234 235 131 360 131 c 256
 366 131 373 132 379 132 c 256
 554 145 661 255 661 428 c 256
 661 516 619 597 566 597 c 256
 535 597 492 579 492 542 c 256
 492 513 537 490 562 446 c 258
 575 423 l 257
 532 424 488 426 445 427 c 257
 428 444 l 258
 405 468 386 513 385 543 c 256
 385 632 463 704 557 704 c 256
 695 704 758 571 758 427 c 256
 758 302 708 197 623 128 c 257
 599 55 572 -7 541 -57 c 256
 509 -108 476 -145 440 -165 c 256
 399 -189 350 -201 290 -201 c 256
 230 -201 166 -190 98 -168 c 257
 118 -107 l 257
 172 -125 224 -133 273 -133 c 256
 391 -133 439 -92 488 -10 c 256
 505 18 520 42 534 74 c 257
 490 56 441 45 388 42 c 256
 380 42 372 41 364 41 c 256
 145 41 0 200 0 420 c 256
-69 742 m 257
 -69 742 -39 756 -20 775 c 256
 -14 781 -6 794 0 805 c 257
 0 818 l 257
 7 818 l 257
 8 819 l 257
 8 818 l 257
 403 818 l 258
 480 818 538 817 581 817 c 256
 705 817 712 825 712 885 c 256
 712 908 693 945 674 961 c 258
 657 975 l 257
 677 998 l 258
 689 1012 701 1022 705 1023 c 256
 749 1023 790 929 790 882 c 256
 790 843 775 808 745 780 c 256
 705 741 710 742 413 740 c 257
 0 740 l 257
 0 741 l 257
 -11 741 l 258
 -30 741 -49 741 -69 742 c 257
EndSplineSet
PickledDataWithLists: "(dp0
Vcom.fontlab.hintData
p1
(dp2
Vhhints
p3
(lp4
(dp5
Vposition
p6
I-201
sVwidth
p7
I68
sa(dp8
g6
I41
sg7
I90
sa(dp9
g6
I384
sg7
I95
sa(dp10
g6
I597
sg7
I107
sa(dp11
g6
I610
sg7
I95
sa(dp12
g6
I740
sg7
I78
sa(dp13
g6
I1003
sg7
I20
sasVvhints
p14
(lp15
(dp16
g6
I0
sg7
I100
sa(dp17
g6
I208
sg7
I98
sa(dp18
g6
I385
sg7
I107
sa(dp19
g6
I661
sg7
I97
sa(dp20
g6
I712
sg7
I78
sass."
Ligature2: "vatuVattuVariantsinBengalilookup7 subtable" u09a4 u09b0_u09cd.blwf
EndChar

StartChar: u09a5_u09b0_u09cd.blwf.vatu
Encoding: 77 -1 77
GlifName: u09a5_u09b0_u09cd.blwf.vatu
Width: 951
VWidth: 0
GlyphClass: 3
Flags: W
HStem: -213 68<356 416> 30 111<249.5 358.5 249.5 374.5> 58 94<785 802.5 785 819> 452 85<147.5 169.5 147.5 181.5> 619 51<144.5 169.5> 733 61<130 176> 741 78<710 762 615 809 615 710> 1003 20<848 872>
VStem: 0 63<610.5 654 610.5 690.5> 9 110<227 282 227 339> 207 66<574 589.5 534.5 594> 428 103<590.5 610> 615 95<355 485 485 741> 856 79<879.5 897>
AnchorPoint: "Anchor1" 768 1 basechar 0
AnchorPoint: "Anchor0" 330 829 basechar 0
AnchorPoint: "Anchor-0" 330 829 basechar 0
AnchorPoint: "Anchor-1" 768 1 basechar 0
LayerCount: 2
Fore
SplineSet
108 577 m 256
 108 555 135 537 160 537 c 256
 179 537 207 565 207 583 c 256
 207 605 182 619 157 619 c 256
 132 619 108 600 108 577 c 256
0 641 m 258
 0 654 l 258
 0 727 74 794 164 794 c 256
 207 794 291 791 291 791 c 258
 317 791 480 724 498 713 c 256
 523 698 531 662 531 622 c 256
 531 461 426 388 269 349 c 256
 205 333 119 311 119 253 c 256
 119 201 204 141 295 141 c 256
 422 141 533 196 589 311 c 257
 615 355 l 257
 615 819 l 257
 710 819 l 258
 814 819 823 822 823 823 c 258
 846 846 l 257
 846 846 856 874 856 885 c 256
 856 909 838 945 818 961 c 258
 801 975 l 257
 822 999 l 258
 833 1012 846 1023 850 1023 c 256
 894 1023 935 931 935 884 c 256
 935 845 890 781 890 781 c 257
 890 778 882 769 881 765 c 256
 879 759 867 744 864 742 c 256
 863 741 863 741 809 741 c 258
 710 741 l 257
 710 485 l 258
 710 188 711 184 752 163 c 256
 763 157 780 152 790 152 c 256
 815 152 862 175 882 197 c 257
 899 214 l 257
 925 189 l 258
 939 175 951 158 951 152 c 256
 951 116 851 58 787 58 c 256
 760 58 731 65 705 77 c 257
 668 -24 614 -134 536 -177 c 256
 495 -201 446 -213 386 -213 c 256
 326 -213 262 -202 194 -180 c 257
 214 -119 l 257
 268 -137 320 -145 369 -145 c 256
 487 -145 535 -104 584 -22 c 256
 609 20 630 53 650 114 c 257
 632 131 621 151 621 170 c 256
 621 180 620 186 616 186 c 256
 611 186 602 176 588 157 c 256
 540 88 434 30 315 30 c 256
 166 30 9 102 9 248 c 256
 9 430 283 444 386 530 c 257
 386 530 428 574 428 607 c 256
 428 613 426 617 423 622 c 256
 384 683 318 695 262 710 c 257
 250 715 l 257
 250 717 196 733 156 733 c 256
 104 733 66 677 66 626 c 256
 66 624 63 614 63 611 c 256
 63 610 64 610 64 610 c 257
 67 610 76 623 84 632 c 256
 106 657 130 670 158 670 c 256
 221 670 273 617 273 562 c 256
 273 507 216 452 147 452 c 256
 54 452 0 523 0 641 c 258
EndSplineSet
PickledDataWithLists: "(dp0
Vcom.fontlab.hintData
p1
(dp2
Vhhints
p3
(lp4
(dp5
Vposition
p6
I-213
sVwidth
p7
I68
sa(dp8
g6
I30
sg7
I111
sa(dp9
g6
I58
sg7
I94
sa(dp10
g6
I452
sg7
I85
sa(dp11
g6
I619
sg7
I51
sa(dp12
g6
I733
sg7
I61
sa(dp13
g6
I741
sg7
I78
sa(dp14
g6
I1003
sg7
I20
sasVvhints
p15
(lp16
(dp17
g6
I0
sg7
I63
sa(dp18
g6
I9
sg7
I110
sa(dp19
g6
I207
sg7
I66
sa(dp20
g6
I428
sg7
I103
sa(dp21
g6
I615
sg7
I95
sa(dp22
g6
I856
sg7
I79
sass."
Ligature2: "vatuVattuVariantsinBengalilookup7 subtable" u09a5 u09b0_u09cd.blwf
EndChar

StartChar: u09a6_u09b0_u09cd.blwf.vatu
Encoding: 78 -1 78
GlifName: u09a6_u09b0_u09cd.blwf.vatu
Width: 562
VWidth: 0
GlyphClass: 3
Flags: W
HStem: -204 68<173 233> 58 84<305.5 349> 739 78<0 6 8 132 0 6 207 419 207 207> 1003 20<477 477>
VStem: 124 98<176.5 210 176.5 240.5> 132 75<568 739 568 739 568 739> 288 78<391.5 426> 484 78<864 901>
AnchorPoint: "Anchor1" 462 -77 basechar 0
AnchorPoint: "Anchor0" 252 853 basechar 0
AnchorPoint: "Anchor-0" 252 853 basechar 0
AnchorPoint: "Anchor-1" 462 -77 basechar 0
LayerCount: 2
Fore
SplineSet
-69 742 m 257
 -69 742 -39 756 -20 775 c 256
 -13 781 -6 796 0 807 c 257
 0 817 l 257
 6 817 l 257
 7 818 7 819 8 819 c 257
 8 817 l 257
 419 817 l 258
 455 817 484 846 484 882 c 256
 484 920 457 952 432 973 c 257
 477 1023 l 257
 517 989 562 944 562 882 c 256
 562 804 497 739 419 739 c 258
 207 739 l 257
 207 568 l 257
 286 548 366 485 366 402 c 256
 366 340 325 291 282 266 c 256
 258 251 222 226 222 194 c 256
 222 159 285 142 326 142 c 256
 390 142 450 167 496 194 c 257
 542 130 l 257
 540 128 538 127 536 125 c 256
 512 52 485 -10 454 -60 c 256
 422 -111 389 -148 353 -168 c 256
 312 -192 263 -204 203 -204 c 256
 143 -204 79 -193 11 -171 c 257
 31 -110 l 257
 85 -128 137 -136 186 -136 c 256
 304 -136 352 -95 401 -13 c 256
 419 17 435 43 450 78 c 257
 414 65 372 58 326 58 c 256
 233 58 124 108 124 194 c 256
 124 287 220 314 268 362 c 256
 281 375 288 387 288 396 c 256
 288 456 200 486 132 486 c 257
 132 739 l 257
 0 739 l 257
 0 741 l 257
 -11 741 l 258
 -30 741 -49 741 -69 742 c 257
EndSplineSet
PickledDataWithLists: "(dp0
Vcom.fontlab.hintData
p1
(dp2
Vhhints
p3
(lp4
(dp5
Vposition
p6
I-204
sVwidth
p7
I68
sa(dp8
g6
I58
sg7
I84
sa(dp9
g6
I739
sg7
I78
sa(dp10
g6
I1003
sg7
I20
sasVvhints
p11
(lp12
(dp13
g6
I124
sg7
I98
sa(dp14
g6
I132
sg7
I75
sa(dp15
g6
I288
sg7
I78
sa(dp16
g6
I484
sg7
I78
sass."
Ligature2: "vatuVattuVariantsinBengalilookup7 subtable" u09a6 u09b0_u09cd.blwf
EndChar

StartChar: u09a7_u09b0_u09cd.blwf.vatu
Encoding: 79 -1 79
GlifName: u09a7_u09b0_u09cd.blwf.vatu
Width: 670
VWidth: 0
GlyphClass: 3
Flags: W
HStem: -186 68<305 365> 58 93<186.5 261.5 186.5 268.5 511.5 536.5> 400 95<394 394> 557 78<187 198 187 218.5> 728 110<141 178> 741 76<394 557 394 468> 1003 20<584 609>
VStem: 0 88<224.5 303 592 658> 224 74<670.5 696> 394 74<257 400 400 400 495 741> 593 79<866 895.5>
AnchorPoint: "Anchor1" 608 -54 basechar 0
AnchorPoint: "Anchor0" 197 840 basechar 0
AnchorPoint: "Anchor-0" 197 840 basechar 0
AnchorPoint: "Anchor-1" 608 -54 basechar 0
LayerCount: 2
Fore
SplineSet
88 260 m 256
 88 189 149 151 224 151 c 256
 299 151 353 207 394 257 c 257
 394 400 l 257
 253 395 88 398 88 260 c 256
0 260 m 256
 0 346 47 421 107 448 c 257
 47 475 0 549 0 635 c 256
 0 734 62 838 157 838 c 256
 238 838 298 764 298 682 c 256
 298 617 250 557 187 557 c 257
 187 635 l 257
 209 635 224 659 224 682 c 256
 224 710 193 728 163 728 c 256
 119 728 88 681 88 635 c 256
 88 497 253 500 394 495 c 257
 394 817 l 257
 436 819 593 823 593 884 c 256
 593 907 574 944 555 960 c 258
 538 974 l 257
 558 997 l 258
 569 1010 582 1023 586 1023 c 256
 632 1023 672 924 672 875 c 256
 672 857 596 741 557 741 c 258
 468 741 l 257
 468 229 l 258
 468 190 493 151 530 151 c 256
 569 151 598 185 617 214 c 257
 666 151 l 258
 666 150 665 150 665 149 c 257
 670 149 l 257
 645 73 618 9 586 -42 c 256
 554 -93 521 -130 485 -150 c 256
 444 -174 395 -186 335 -186 c 256
 275 -186 211 -175 143 -153 c 257
 163 -92 l 257
 217 -110 269 -118 318 -118 c 256
 436 -118 484 -77 533 5 c 256
 545 25 556 44 566 64 c 257
 555 60 543 58 530 58 c 256
 478 58 436 96 413 142 c 257
 370 99 306 58 231 58 c 256
 100 58 0 132 0 260 c 256
EndSplineSet
PickledDataWithLists: "(dp0
Vcom.fontlab.hintData
p1
(dp2
Vhhints
p3
(lp4
(dp5
Vposition
p6
I-186
sVwidth
p7
I68
sa(dp8
g6
I58
sg7
I93
sa(dp9
g6
I400
sg7
I95
sa(dp10
g6
I557
sg7
I78
sa(dp11
g6
I728
sg7
I110
sa(dp12
g6
I741
sg7
I76
sa(dp13
g6
I1003
sg7
I20
sasVvhints
p14
(lp15
(dp16
g6
I0
sg7
I88
sa(dp17
g6
I224
sg7
I74
sa(dp18
g6
I394
sg7
I74
sa(dp19
g6
I593
sg7
I79
sass."
Ligature2: "vatuVattuVariantsinBengalilookup7 subtable" u09a7 u09b0_u09cd.blwf
EndChar

StartChar: u09a8_u09b0_u09cd.blwf.vatu
Encoding: 80 -1 80
GlifName: u09a8_u09b0_u09cd.blwf.vatu
Width: 653
VWidth: 0
GlyphClass: 3
Flags: W
HStem: -189 68<224 284> 83 98<426.5 464.5> 432 98<146.5 176> 734 85<0 245>
VStem: 3 98<272.5 342 272.5 364.5> 554 99<356 420.5> 564 84<858 901>
AnchorPoint: "Anchor1" 554 -6 basechar 0
AnchorPoint: "Anchor0" 287 837 basechar 0
AnchorPoint: "Anchor-0" 287 837 basechar 0
AnchorPoint: "Anchor-1" 554 -6 basechar 0
LayerCount: 2
Fore
SplineSet
-69 742 m 257
 -69 742 -39 756 -20 775 c 256
 -13 782 -7 800 0 811 c 257
 0 819 l 257
 245 819 l 258
 307 819 356 818 397 818 c 256
 538 818 564 826 564 890 c 256
 564 912 544 954 524 973 c 258
 509 987 l 257
 532 1011 l 258
 545 1024 559 1034 565 1034 c 256
 597 1034 648 945 648 888 c 256
 648 821 576 740 526 740 c 256
 521 740 519 738 519 735 c 256
 519 725 543 703 566 686 c 256
 612 652 653 489 653 386 c 256
 653 299 634 206 587 146 c 257
 589 146 l 257
 564 70 537 6 505 -45 c 256
 473 -96 440 -133 404 -153 c 256
 363 -177 314 -189 254 -189 c 256
 194 -189 130 -178 62 -156 c 257
 82 -95 l 257
 136 -113 188 -121 237 -121 c 256
 355 -121 403 -82 452 0 c 256
 469 29 484 56 498 88 c 257
 485 85 472 83 457 83 c 256
 271 83 313 345 205 418 c 256
 192 427 181 432 171 432 c 256
 122 432 101 368 101 316 c 256
 101 229 132 144 183 93 c 257
 209 68 l 257
 173 41 l 258
 153 26 135 15 132 15 c 256
 75 15 3 233 3 309 c 256
 3 420 58 530 170 530 c 256
 255 530 334 448 367 314 c 256
 382 256 400 181 453 181 c 256
 500 181 548 256 553 338 c 256
 553 345 554 352 554 360 c 256
 554 481 497 664 401 711 c 257
 361 730 l 257
 241 731 120 733 0 734 c 257
 0 741 l 257
 -11 741 l 258
 -30 741 -49 741 -69 742 c 257
EndSplineSet
PickledDataWithLists: "(dp0
Vcom.fontlab.hintData
p1
(dp2
Vhhints
p3
(lp4
(dp5
Vposition
p6
I-189
sVwidth
p7
I68
sa(dp8
g6
I83
sg7
I98
sa(dp9
g6
I432
sg7
I98
sa(dp10
g6
I734
sg7
I85
sasVvhints
p11
(lp12
(dp13
g6
I3
sg7
I98
sa(dp14
g6
I554
sg7
I99
sa(dp15
g6
I564
sg7
I84
sass."
Ligature2: "vatuVattuVariantsinBengalilookup7 subtable" u09a8 u09b0_u09cd.blwf
EndChar

StartChar: u09aa_u09b0_u09cd.blwf.vatu
Encoding: 81 -1 81
GlifName: u09aa_u09b0_u09cd.blwf.vatu
Width: 786
VWidth: 0
GlyphClass: 3
Flags: W
HStem: -87 68<292.5 359.5> 161 91<244 338> 448 78<232 266> 720 91<233.5 321.5 204.5 336> 738 77<612 653> 1003 20<685 708.5>
VStem: 28 94<313.5 376 313.5 379 599.5 661.5> 534 78<291 291 693 738 189 816> 546 66<190 190> 553 59<121 738> 694 78<881 894.5>
AnchorPoint: "Anchor1" 611 -3 basechar 0
AnchorPoint: "Anchor0" 275 813 basechar 0
AnchorPoint: "Anchor-0" 275 813 basechar 0
AnchorPoint: "Anchor-1" 611 -3 basechar 0
LayerCount: 2
Fore
SplineSet
122 344 m 256
 122 283 210 252 278 252 c 256
 414 252 538 353 538 486 c 256
 538 622 406 720 266 720 c 256
 201 720 122 691 122 632 c 256
 122 567 197 526 266 526 c 257
 266 448 l 257
 198 448 122 408 122 344 c 256
28 343 m 256
 28 415 84 469 144 485 c 257
 83 501 28 556 28 629 c 256
 28 739 147 811 262 811 c 256
 381 811 477 761 534 693 c 257
 534 816 l 257
 559 816 l 258
 588 816 611 815 630 815 c 256
 676 815 694 823 694 883 c 256
 694 906 675 943 656 959 c 258
 639 973 l 257
 659 996 l 258
 670 1009 683 1023 687 1023 c 256
 730 1023 772 928 772 881 c 256
 771 776 718 739 612 738 c 257
 612 189 l 257
 605 151 l 257
 606 152 l 257
 609 152 611 134 611 111 c 256
 611 75 604 25 578 3 c 256
 499 -65 393 -87 326 -87 c 256
 259 -87 187 -76 111 -54 c 257
 133 7 l 257
 193 -11 252 -19 307 -19 c 256
 439 -19 493 22 548 104 c 256
 552 110 553 117 553 125 c 256
 553 143 547 167 546 190 c 257
 534 291 l 257
 473 218 402 161 274 161 c 256
 155 161 28 231 28 343 c 256
EndSplineSet
PickledDataWithLists: "(dp0
Vcom.fontlab.hintData
p1
(dp2
Vhhints
p3
(lp4
(dp5
Vposition
p6
I-87
sVwidth
p7
I68
sa(dp8
g6
I161
sg7
I91
sa(dp9
g6
I448
sg7
I78
sa(dp10
g6
I720
sg7
I91
sa(dp11
g6
I738
sg7
I77
sa(dp12
g6
I1003
sg7
I20
sasVvhints
p13
(lp14
(dp15
g6
I28
sg7
I94
sa(dp16
g6
I534
sg7
I78
sa(dp17
g6
I546
sg7
I66
sa(dp18
g6
I553
sg7
I59
sa(dp19
g6
I694
sg7
I78
sass."
Ligature2: "vatuVattuVariantsinBengalilookup7 subtable" u09aa u09b0_u09cd.blwf
EndChar

StartChar: u09ab_u09b0_u09cd.blwf.vatu
Encoding: 82 -1 82
GlifName: u09ab_u09b0_u09cd.blwf.vatu
Width: 1140
VWidth: 0
GlyphClass: 3
Flags: W
HStem: -159 68<344 404> 61 98<548 572> 97 106<241.5 297 241.5 300> 141 68<867 938 867 955> 359 81<837.5 838.5> 586 75<508 860 508 508> 742 75<-69 6 159 159 159 262 262 403.5> 1003 20<1048 1071.5>
VStem: 63 98<247 286.5 247 324> 226 78<513 554.5> 427 81<262 586> 724 72<267.5 308.5 267.5 332.5> 1026 80<340.5 427.5 304.5 429> 1057 78<879.5 895.5>
AnchorPoint: "Anchor1" 716 51 basechar 0
AnchorPoint: "Anchor0" 494 828 basechar 0
AnchorPoint: "Anchor-0" 494 828 basechar 0
AnchorPoint: "Anchor-1" 716 51 basechar 0
LayerCount: 2
Fore
SplineSet
-69 742 m 257
 -69 742 -39 756 -20 775 c 256
 -12 782 -4 801 3 812 c 257
 3 817 l 257
 6 817 l 257
 7 818 7 819 8 819 c 257
 8 817 l 257
 262 817 l 258
 545 817 1031 817 1049 851 c 256
 1054 860 1057 875 1057 884 c 256
 1057 907 1038 944 1019 960 c 258
 1002 974 l 257
 1022 997 l 258
 1033 1010 1046 1023 1050 1023 c 256
 1093 1023 1135 929 1135 882 c 256
 1135 743 970 742 814 742 c 258
 159 742 l 257
 237 711 304 621 304 528 c 256
 304 451 267 391 220 357 c 256
 194 338 161 305 161 268 c 256
 161 226 218 203 265 203 c 256
 329 203 384 232 427 262 c 257
 427 661 l 257
 866 661 l 257
 994 614 1106 491 1106 364 c 256
 1106 245 1017 141 893 141 c 256
 800 141 724 203 724 289 c 256
 724 376 802 440 873 440 c 256
 920 440 959 406 959 367 c 256
 959 329 931 303 899 303 c 256
 857 303 861 336 839 358 c 258
 839 358 839 359 838 359 c 256
 822 359 796 321 796 296 c 256
 796 239 840 209 894 209 c 256
 982 209 1026 299 1026 382 c 256
 1026 476 969 534 900 567 c 258
 860 586 l 257
 508 586 l 257
 508 240 l 258
 508 199 528 159 568 159 c 256
 609 159 639 193 659 223 c 257
 703 176 l 257
 709 176 l 257
 708 174 708 173 707 171 c 257
 711 167 l 257
 708 163 704 159 701 154 c 256
 678 88 654 31 625 -15 c 256
 593 -66 560 -103 524 -123 c 256
 483 -147 434 -159 374 -159 c 256
 314 -159 250 -148 182 -126 c 257
 202 -65 l 257
 256 -83 308 -91 357 -91 c 256
 475 -91 523 -50 572 32 c 256
 578 43 584 53 590 63 c 257
 583 61 576 61 568 61 c 256
 512 61 463 104 442 154 c 257
 399 121 335 97 265 97 c 256
 161 97 63 167 63 268 c 256
 63 380 157 416 207 478 c 256
 220 494 226 507 226 519 c 256
 226 590 145 632 70 632 c 257
 70 738 l 257
 3 738 l 257
 3 741 l 257
 -11 741 l 258
 -30 741 -49 741 -69 742 c 257
EndSplineSet
PickledDataWithLists: "(dp0
Vcom.fontlab.hintData
p1
(dp2
Vhhints
p3
(lp4
(dp5
Vposition
p6
I-159
sVwidth
p7
I68
sa(dp8
g6
I61
sg7
I98
sa(dp9
g6
I97
sg7
I106
sa(dp10
g6
I141
sg7
I68
sa(dp11
g6
I359
sg7
I81
sa(dp12
g6
I586
sg7
I75
sa(dp13
g6
I742
sg7
I75
sa(dp14
g6
I1003
sg7
I20
sasVvhints
p15
(lp16
(dp17
g6
I63
sg7
I98
sa(dp18
g6
I226
sg7
I78
sa(dp19
g6
I427
sg7
I81
sa(dp20
g6
I724
sg7
I72
sa(dp21
g6
I1026
sg7
I80
sa(dp22
g6
I1057
sg7
I78
sass."
Ligature2: "vatuVattuVariantsinBengalilookup7 subtable" u09ab u09b0_u09cd.blwf
EndChar

StartChar: u09ac_u09b0_u09cd.blwf.vatu
Encoding: 83 -1 83
GlifName: u09ac_u09b0_u09cd.blwf.vatu
Width: 870
VWidth: 0
GlyphClass: 3
Flags: W
HStem: -204 68<487.5 550.5> 47 83<713 734.5> 88 99<296.5 382.5> 604 97<353.5 396.5 353.5 413> 739 78<3 6 8 425 425 463.5 3 6> 1003 20<780 803.5>
VStem: 34 98<327 461 327 483.5> 573 106<602 739 739 739> 789 78<854 895.5>
AnchorPoint: "Anchor1" 810 -54 basechar 0
AnchorPoint: "Anchor0" 360 816 basechar 0
AnchorPoint: "Anchor-0" 360 816 basechar 0
AnchorPoint: "Anchor-1" 810 -54 basechar 0
LayerCount: 2
Fore
SplineSet
132 395 m 256
 132 259 244 187 349 187 c 256
 451 187 567 255 570 388 c 257
 570 400 l 258
 570 516 473 604 353 604 c 256
 242 604 132 527 132 395 c 256
-69 742 m 257
 -69 742 -39 756 -20 775 c 256
 -12 782 -4 801 3 812 c 257
 3 817 l 257
 6 817 l 257
 7 818 7 819 8 819 c 257
 8 817 l 257
 425 817 l 258
 502 817 563 816 612 816 c 256
 751 816 789 824 789 884 c 256
 789 907 770 944 751 960 c 258
 734 974 l 257
 754 997 l 258
 765 1010 778 1023 782 1023 c 256
 825 1023 867 929 867 882 c 256
 867 823 866 769 797 747 c 256
 778 741 697 742 679 741 c 257
 679 186 l 258
 679 143 694 130 732 130 c 256
 761 130 807 175 825 175 c 256
 832 175 879 133 879 129 c 256
 879 118 871 106 858 95 c 257
 835 34 811 -17 783 -60 c 256
 749 -111 715 -148 677 -168 c 256
 634 -192 582 -204 519 -204 c 256
 456 -204 172 -137 101 -115 c 257
 122 -54 l 257
 179 -72 449 -136 501 -136 c 256
 625 -136 675 -95 727 -13 c 256
 741 9 753 29 765 52 c 257
 752 49 740 47 729 47 c 256
 625 47 598 110 574 181 c 257
 574 181 574 182 573 182 c 256
 569 182 556 172 542 160 c 256
 486 111 417 88 348 88 c 256
 196 88 34 199 34 394 c 256
 34 573 155 651 323 696 c 256
 335 699 347 701 360 701 c 256
 433 701 515 653 543 628 c 258
 573 602 l 257
 573 739 l 257
 3 739 l 257
 3 741 l 257
 -11 741 l 258
 -30 741 -49 741 -69 742 c 257
EndSplineSet
PickledDataWithLists: "(dp0
Vcom.fontlab.hintData
p1
(dp2
Vhhints
p3
(lp4
(dp5
Vposition
p6
I-204
sVwidth
p7
I68
sa(dp8
g6
I47
sg7
I83
sa(dp9
g6
I88
sg7
I99
sa(dp10
g6
I604
sg7
I97
sa(dp11
g6
I739
sg7
I78
sa(dp12
g6
I1003
sg7
I20
sasVvhints
p13
(lp14
(dp15
g6
I34
sg7
I98
sa(dp16
g6
I573
sg7
I106
sa(dp17
g6
I789
sg7
I78
sass."
Ligature2: "vatuVattuVariantsinBengalilookup7 subtable" u09ac u09b0_u09cd.blwf
EndChar

StartChar: u09ad_u09b0_u09cd.blwf.vatu
Encoding: 84 -1 84
GlifName: u09ad_u09b0_u09cd.blwf.vatu
Width: 711
VWidth: 0
GlyphClass: 3
Flags: W
HStem: -145 68<176 236> 55 78<275.5 300> 269 72<153.5 168.5> 414 80<255.5 294 255.5 306> 541 75<284.5 295 273 326> 571 80<517 552.5> 739 78<0 6 8 293 0 6 316 320 320 330 316 316> 1003 20<620 643.5>
VStem: 30 84<219 243.5 219 264> 142 81<545 550.5 545 596.5> 209 76<208 231.5> 328 74<643.5 662 614 664> 582 78<436.5 516.5> 629 78<862.5 895.5>
AnchorPoint: "Anchor1" 552 72 basechar 0
AnchorPoint: "Anchor0" 315 837 basechar 0
AnchorPoint: "Anchor-0" 315 837 basechar 0
AnchorPoint: "Anchor-1" 552 72 basechar 0
LayerCount: 2
Fore
SplineSet
240 648 m 256
 240 629 262 616 284 616 c 256
 306 616 328 633 328 654 c 256
 328 674 305 690 281 690 c 256
 264 690 240 665 240 648 c 256
114 234 m 256
 114 204 140 181 170 181 c 256
 173 181 175 182 177 182 c 256
 194 185 209 198 209 218 c 256
 209 245 182 269 155 269 c 256
 152 269 149 268 146 268 c 256
 130 265 114 253 114 234 c 256
-69 742 m 257
 -69 742 -39 756 -20 775 c 256
 -13 781 -6 796 0 807 c 257
 0 817 l 257
 6 817 l 257
 7 818 7 819 8 819 c 257
 8 817 l 257
 320 817 l 258
 397 817 455 816 498 816 c 256
 622 816 629 824 629 884 c 256
 629 907 610 944 591 960 c 258
 574 974 l 257
 594 997 l 258
 605 1010 618 1023 622 1023 c 256
 665 1023 707 929 707 882 c 256
 707 843 692 807 662 779 c 256
 622 740 627 741 330 739 c 257
 316 739 l 257
 365 730 402 685 402 639 c 256
 402 589 355 541 297 541 c 256
 272 541 250 551 231 572 c 256
 232 573 230 576 227 579 c 257
 224 568 223 556 223 545 c 256
 224 514 240 494 271 494 c 256
 317 494 352 526 379 558 c 256
 419 607 472 651 543 651 c 256
 625 651 660 577 660 491 c 256
 660 382 612 272 539 190 c 257
 541 190 l 257
 516 114 489 51 457 0 c 256
 425 -51 392 -89 356 -109 c 256
 315 -133 266 -145 206 -145 c 256
 146 -145 82 -134 14 -112 c 257
 34 -51 l 257
 88 -69 140 -77 189 -77 c 256
 307 -77 355 -36 404 46 c 256
 416 67 427 85 438 106 c 257
 386 75 329 55 271 55 c 256
 169 55 30 121 30 232 c 256
 30 296 86 341 149 341 c 256
 226 341 285 274 285 202 c 256
 285 176 276 154 257 135 c 257
 264 134 272 133 279 133 c 256
 431 133 582 338 582 498 c 256
 582 535 570 571 535 571 c 256
 499 571 472 542 450 517 c 256
 404 462 347 414 265 414 c 256
 187 414 142 474 142 552 c 256
 142 641 217 730 293 739 c 257
 0 739 l 257
 0 741 l 257
 -11 741 l 258
 -30 741 -49 741 -69 742 c 257
EndSplineSet
PickledDataWithLists: "(dp0
Vcom.fontlab.hintData
p1
(dp2
Vhhints
p3
(lp4
(dp5
Vposition
p6
I-145
sVwidth
p7
I68
sa(dp8
g6
I55
sg7
I78
sa(dp9
g6
I269
sg7
I72
sa(dp10
g6
I414
sg7
I80
sa(dp11
g6
I541
sg7
I75
sa(dp12
g6
I571
sg7
I80
sa(dp13
g6
I739
sg7
I78
sa(dp14
g6
I1003
sg7
I20
sasVvhints
p15
(lp16
(dp17
g6
I30
sg7
I84
sa(dp18
g6
I142
sg7
I81
sa(dp19
g6
I209
sg7
I76
sa(dp20
g6
I328
sg7
I74
sa(dp21
g6
I582
sg7
I78
sa(dp22
g6
I629
sg7
I78
sass."
Ligature2: "vatuVattuVariantsinBengalilookup7 subtable" u09ad u09b0_u09cd.blwf
EndChar

StartChar: u09ae_u09b0_u09cd.blwf.vatu
Encoding: 85 -1 85
GlifName: u09ae_u09b0_u09cd.blwf.vatu
Width: 715
VWidth: 0
GlyphClass: 3
Flags: W
HStem: -249 68<155 215> 25 78<183 231.5 183 259> 737 80<0 6 8 108 0 6> 1003 20<627 650.5>
VStem: 65 91<142.5 194.5 142.5 211.5> 312 72<409 482.5 409 485.5> 546 78<200 271> 585 65<632 653> 636 78<854 895.5>
AnchorPoint: "Anchor1" 579 9 basechar 0
AnchorPoint: "Anchor0" 342 852 basechar 0
AnchorPoint: "Anchor-0" 342 852 basechar 0
AnchorPoint: "Anchor-1" 579 9 basechar 0
LayerCount: 2
Fore
SplineSet
248 739 m 257
 325 662 384 556 384 409 c 257
 425 426 459 451 488 480 c 257
 488 481 l 257
 488 481 575 594 575 603 c 257
 582 617 585 628 585 636 c 256
 585 670 500 701 452 740 c 257
 420 740 382 739 337 739 c 258
 248 739 l 257
156 155 m 256
 156 130 171 103 195 103 c 256
 268 103 305 230 312 311 c 257
 244 286 156 234 156 155 c 256
-69 742 m 257
 -69 742 -39 756 -20 775 c 256
 -13 781 -6 796 0 807 c 257
 0 817 l 257
 6 817 l 257
 7 818 7 819 8 819 c 257
 8 817 l 257
 327 817 l 258
 404 817 462 816 505 816 c 256
 629 816 636 824 636 884 c 256
 636 907 617 944 598 960 c 258
 581 974 l 257
 601 997 l 258
 612 1010 625 1023 629 1023 c 256
 672 1023 714 929 714 882 c 256
 714 797 665 747 561 742 c 257
 603 708 650 696 650 636 c 256
 650 565 609 511 566 474 c 257
 599 404 624 327 624 233 c 256
 624 139 565 68 500 28 c 257
 465 -66 408 -172 335 -213 c 256
 294 -237 245 -249 185 -249 c 256
 125 -249 61 -238 -7 -216 c 257
 13 -155 l 257
 67 -173 119 -181 168 -181 c 256
 286 -181 334 -140 383 -58 c 256
 408 -15 429 18 449 81 c 257
 442 90 l 257
 490 119 546 167 546 233 c 256
 546 309 538 379 514 428 c 257
 475 396 435 364 390 344 c 257
 390 203 323 25 195 25 c 256
 123 25 65 83 65 155 c 256
 65 268 211 346 312 383 c 257
 312 588 238 631 108 737 c 257
 0 737 l 257
 0 741 l 257
 -11 741 l 258
 -30 741 -49 741 -69 742 c 257
EndSplineSet
PickledDataWithLists: "(dp0
Vcom.fontlab.hintData
p1
(dp2
Vhhints
p3
(lp4
(dp5
Vposition
p6
I-249
sVwidth
p7
I68
sa(dp8
g6
I25
sg7
I78
sa(dp9
g6
I737
sg7
I80
sa(dp10
g6
I1003
sg7
I20
sasVvhints
p11
(lp12
(dp13
g6
I65
sg7
I91
sa(dp14
g6
I312
sg7
I72
sa(dp15
g6
I546
sg7
I78
sa(dp16
g6
I585
sg7
I65
sa(dp17
g6
I636
sg7
I78
sass."
Ligature2: "vatuVattuVariantsinBengalilookup7 subtable" u09ae u09b0_u09cd.blwf
EndChar

StartChar: u09af_u09b0_u09cd.blwf.vatu
Encoding: 86 -1 86
GlifName: u09af_u09b0_u09cd.blwf.vatu
Width: 721
VWidth: 0
GlyphClass: 3
Flags: W
HStem: -166 68<344 404> 68 98<548 573.5> 104 106<241.5 297 241.5 300> 739 78<159 159 159 262 262 272> 1003 20<628 651.5>
VStem: 63 98<254 293.5 254 331> 226 78<520 561.5> 425 78<269 740 740 740> 637 78<854 895.5>
AnchorPoint: "Anchor1" 642 -15 basechar 0
AnchorPoint: "Anchor0" 321 822 basechar 0
AnchorPoint: "Anchor-0" 321 822 basechar 0
AnchorPoint: "Anchor-1" 642 -15 basechar 0
LayerCount: 2
Fore
SplineSet
159 739 m 257
 238 708 304 629 304 535 c 256
 304 458 267 398 220 364 c 256
 194 345 161 312 161 275 c 256
 161 233 218 210 265 210 c 256
 329 210 382 239 425 269 c 257
 425 740 l 257
 386 739 336 739 272 739 c 258
 159 739 l 257
-69 742 m 257
 -69 742 -39 756 -20 775 c 256
 -12 782 -4 801 3 812 c 257
 3 817 l 257
 6 817 l 257
 7 818 7 819 8 819 c 257
 8 817 l 257
 262 817 l 258
 347 817 415 816 467 816 c 256
 598 816 637 824 637 884 c 256
 637 907 618 944 599 960 c 258
 582 974 l 257
 602 997 l 258
 613 1010 626 1023 630 1023 c 256
 673 1023 715 929 715 882 c 256
 715 769 630 749 503 742 c 257
 503 247 l 258
 503 206 528 166 568 166 c 256
 609 166 639 200 659 230 c 257
 711 174 l 257
 710 172 708 171 707 169 c 257
 709 169 l 257
 684 93 657 29 625 -22 c 256
 593 -73 560 -110 524 -130 c 256
 483 -154 434 -166 374 -166 c 256
 314 -166 250 -155 182 -133 c 257
 202 -72 l 257
 256 -90 308 -98 357 -98 c 256
 475 -98 523 -57 572 25 c 256
 582 42 591 57 600 73 c 257
 590 70 579 68 568 68 c 256
 512 68 463 111 442 161 c 257
 399 128 335 104 265 104 c 256
 161 104 63 174 63 275 c 256
 63 387 157 423 207 485 c 256
 220 501 226 514 226 526 c 256
 226 597 145 640 70 640 c 257
 70 738 l 257
 3 738 l 257
 3 741 l 257
 -11 741 l 258
 -30 741 -49 741 -69 742 c 257
EndSplineSet
PickledDataWithLists: "(dp0
Vcom.fontlab.hintData
p1
(dp2
Vhhints
p3
(lp4
(dp5
Vposition
p6
I-166
sVwidth
p7
I68
sa(dp8
g6
I68
sg7
I98
sa(dp9
g6
I104
sg7
I106
sa(dp10
g6
I739
sg7
I78
sa(dp11
g6
I1003
sg7
I20
sasVvhints
p12
(lp13
(dp14
g6
I63
sg7
I98
sa(dp15
g6
I226
sg7
I78
sa(dp16
g6
I425
sg7
I78
sa(dp17
g6
I637
sg7
I78
sass."
Ligature2: "vatuVattuVariantsinBengalilookup7 subtable" u09af u09b0_u09cd.blwf
EndChar

StartChar: u09b0_u09b0_u09cd.blwf.vatu
Encoding: 87 -1 87
GlifName: u09b0_u09b0_u09cd.blwf.vatu
Width: 870
VWidth: 0
GlyphClass: 3
Flags: W
HStem: -195 68<509 569> -23 119<69 73> 47 83<713 735> 88 99<296.5 382.5> 604 97<353.5 396.5 353.5 413> 739 78<3 6 8 425 425 463.5 3 6> 1003 20<780 803.5>
VStem: 17 125<21.5 38.5> 34 98<327 461 327 483.5> 573 106<602 739 739 739> 789 78<854 895.5>
AnchorPoint: "Anchor1" 804 -69 basechar 0
AnchorPoint: "Anchor0" 360 843 basechar 0
AnchorPoint: "Anchor-0" 360 843 basechar 0
AnchorPoint: "Anchor-1" 804 -69 basechar 0
LayerCount: 2
Fore
SplineSet
132 395 m 256
 132 259 244 187 349 187 c 256
 451 187 567 255 570 388 c 257
 570 400 l 258
 570 516 473 604 353 604 c 256
 242 604 132 527 132 395 c 256
17 19 m 256
 17 58 50 96 88 96 c 256
 122 96 142 68 142 40 c 256
 142 3 108 -21 73 -23 c 256
 45 -23 17 -10 17 19 c 256
-69 742 m 257
 -69 742 -39 756 -20 775 c 256
 -12 782 -4 801 3 812 c 257
 3 817 l 257
 6 817 l 257
 7 818 7 819 8 819 c 257
 8 817 l 257
 425 817 l 258
 502 817 563 816 612 816 c 256
 751 816 789 824 789 884 c 256
 789 907 770 944 751 960 c 258
 734 974 l 257
 754 997 l 258
 765 1010 778 1023 782 1023 c 256
 825 1023 867 929 867 882 c 256
 867 823 866 769 797 747 c 256
 778 741 697 742 679 741 c 257
 679 186 l 258
 679 143 694 130 732 130 c 256
 761 130 807 175 825 175 c 256
 830 175 855 154 869 140 c 257
 874 140 l 257
 874 139 873 138 873 137 c 256
 877 133 879 130 879 129 c 256
 879 118 871 107 859 96 c 257
 822 -5 767 -116 689 -159 c 256
 648 -183 599 -195 539 -195 c 256
 479 -195 415 -184 347 -162 c 257
 367 -101 l 257
 421 -119 473 -127 522 -127 c 256
 640 -127 688 -86 737 -4 c 256
 749 16 759 36 769 55 c 257
 755 51 741 47 729 47 c 256
 625 47 598 110 574 181 c 257
 574 181 574 182 573 182 c 256
 569 182 556 172 542 160 c 256
 486 111 417 88 348 88 c 256
 196 88 34 199 34 394 c 256
 34 573 155 651 323 696 c 256
 335 699 347 701 360 701 c 256
 433 701 515 653 543 628 c 258
 573 602 l 257
 573 739 l 257
 3 739 l 257
 3 741 l 257
 -11 741 l 258
 -30 741 -49 741 -69 742 c 257
EndSplineSet
PickledDataWithLists: "(dp0
Vcom.fontlab.hintData
p1
(dp2
Vhhints
p3
(lp4
(dp5
Vposition
p6
I-195
sVwidth
p7
I68
sa(dp8
g6
I-23
sg7
I119
sa(dp9
g6
I47
sg7
I83
sa(dp10
g6
I88
sg7
I99
sa(dp11
g6
I604
sg7
I97
sa(dp12
g6
I739
sg7
I78
sa(dp13
g6
I1003
sg7
I20
sasVvhints
p14
(lp15
(dp16
g6
I17
sg7
I125
sa(dp17
g6
I34
sg7
I98
sa(dp18
g6
I573
sg7
I106
sa(dp19
g6
I789
sg7
I78
sass."
Ligature2: "vatuVattuVariantsinBengalilookup7 subtable" u09b0 u09b0_u09cd.blwf
EndChar

